{"glyphs":{"0":{"ha":574,"x_min":67,"x_max":771,"o":"m 176 53 q 199 33 176 33 q 292 65 238 33 q 405 151 347 97 q 518 271 463 204 q 689 535 636 413 q 715 635 715 594 q 710 663 715 646 q 699 671 708 671 q 615 635 667 671 q 503 540 563 599 q 386 411 444 482 q 204 140 260 256 q 176 53 176 83 m 771 633 q 646 347 771 535 q 426 96 549 203 q 317 17 376 54 q 186 -21 257 -21 q 129 -7 153 -21 q 72 82 86 21 q 67 135 67 108 q 97 281 67 211 q 154 383 118 331 q 236 484 190 435 q 336 578 282 533 q 563 708 447 671 q 681 728 622 728 q 749 702 726 728 q 771 633 771 676 z "},"1":{"ha":546,"x_min":56,"x_max":776,"o":"m 279 -14 l 69 -14 q 56 0 56 -14 q 58 8 56 4 q 129 92 92 53 q 236 203 179 144 q 375 346 294 264 q 511 480 456 428 q 600 565 567 532 q 382 432 493 496 q 288 378 335 404 q 192 328 242 351 q 186 326 189 326 q 174 335 178 326 l 164 354 q 163 360 163 357 q 169 372 163 368 q 340 467 257 417 q 507 567 424 518 q 621 636 565 601 q 729 711 676 671 q 738 714 733 714 l 763 714 q 776 700 776 714 q 774 692 776 696 q 708 603 742 647 q 644 515 675 560 l 290 -8 q 279 -14 286 -14 z "},"2":{"ha":583,"x_min":-72,"x_max":714,"o":"m 665 465 m 714 596 q 678 458 714 521 q 586 350 642 396 q 513 299 553 322 q 343 215 435 254 q 181 139 250 175 q 306 142 250 160 q 390 110 344 129 q 413 103 404 103 q 444 122 426 103 q 475 160 458 135 q 486 165 479 165 q 492 164 489 165 l 510 157 q 518 144 518 154 q 517 139 518 142 q 479 79 503 108 q 363 -7 431 18 q 294 -21 328 -21 q 232 -12 261 -21 q 176 5 203 -4 q 122 22 149 14 q 74 31 96 31 q -3 8 24 31 l -19 -6 q -45 -19 -37 -19 q -57 -14 -53 -19 l -69 3 q -72 13 -72 7 q -67 22 -72 18 q 49 115 -10 71 l 165 204 q 315 315 240 261 q 543 546 453 417 q 581 611 565 579 q 597 664 597 643 q 593 674 597 671 q 571 678 582 678 q 504 665 535 678 q 433 624 474 651 q 357 563 392 597 q 299 488 322 528 q 275 414 275 449 q 281 401 275 407 q 292 394 286 394 q 340 413 314 394 q 392 461 367 432 q 437 521 417 490 q 468 572 457 551 q 481 579 472 579 q 486 578 483 579 l 503 571 q 511 558 511 568 q 510 553 511 556 q 478 489 499 525 q 365 368 428 407 q 290 346 329 346 q 240 367 258 346 q 222 418 222 389 q 289 574 222 489 q 439 696 350 653 q 578 728 504 728 q 676 693 639 728 q 714 596 714 658 z "},"3":{"ha":528,"x_min":-56,"x_max":711,"o":"m 711 624 q 674 524 711 565 q 587 456 638 483 q 481 410 536 428 q 457 403 468 406 q 518 364 497 393 q 539 302 539 335 q 525 238 539 269 q 397 88 490 153 q 236 9 324 38 q 60 -19 149 -19 q -17 0 15 -19 q -44 28 -33 11 q -56 71 -56 46 q -34 126 -56 103 q 21 150 -12 150 q 60 136 42 150 q 78 99 78 122 q 62 59 78 76 q 24 42 46 42 q 19 42 21 42 q 38 38 33 38 q 178 97 93 38 q 246 152 214 122 q 297 206 278 182 q 302 211 297 206 q 324 238 307 217 q 382 324 357 278 q 392 356 392 342 l 392 356 q 382 358 386 358 q 304 331 363 358 q 269 314 282 321 q 239 301 244 301 q 239 301 239 301 q 224 307 231 301 q 217 324 217 313 q 226 343 217 335 q 264 367 240 357 q 273 371 271 369 q 292 381 275 372 q 342 407 308 389 q 504 547 429 454 q 564 664 564 621 q 560 674 564 671 q 539 678 550 678 q 472 662 511 678 q 398 622 433 646 q 339 567 363 597 q 315 510 315 538 q 319 500 315 503 q 338 496 328 496 q 413 531 372 496 q 446 565 431 546 q 474 600 461 583 q 483 606 478 606 q 490 604 488 606 l 506 597 q 514 585 514 593 q 513 579 514 582 q 483 532 503 556 q 389 457 443 483 q 332 444 360 444 q 284 461 304 444 q 264 506 264 478 q 274 557 264 533 q 371 674 301 625 q 464 717 414 703 q 564 732 514 732 q 660 710 619 732 q 697 676 682 697 q 711 624 711 654 z "},"4":{"ha":601,"x_min":13,"x_max":828,"o":"m 303 168 q 215 172 257 172 q 131 165 172 172 q 43 136 90 158 q 35 135 40 135 q 26 140 31 135 l 15 157 q 13 167 13 161 q 18 176 13 172 q 225 353 107 240 q 353 481 290 415 q 433 565 353 481 q 568 703 513 650 q 578 707 572 707 l 814 707 q 828 693 828 707 q 824 683 828 688 q 763 632 794 656 q 703 585 732 608 q 482 425 597 499 q 182 231 321 324 q 167 219 174 225 q 244 224 196 224 q 354 215 292 224 q 463 310 394 249 q 474 319 463 310 q 513 354 485 329 q 565 394 540 379 q 572 397 568 397 l 601 396 q 615 382 615 396 q 611 372 615 376 q 543 282 586 347 q 493 203 518 247 q 558 214 514 203 q 561 214 560 214 q 575 204 572 214 q 581 181 581 182 q 572 168 581 172 q 514 153 546 154 q 465 153 489 151 q 382 -6 403 35 q 369 -14 378 -14 l 151 -14 q 138 0 138 -14 q 142 10 138 6 q 155 24 153 22 q 157 28 157 26 q 233 105 193 68 q 303 168 274 142 z "},"5":{"ha":565,"x_min":-29,"x_max":742,"o":"m 496 561 q 406 574 450 561 l 332 476 q 351 488 342 482 q 451 513 394 513 q 549 482 507 513 q 592 392 592 451 q 546 240 592 321 q 498 173 525 204 q 444 117 471 142 q 276 15 371 53 q 85 -24 182 -24 q 10 -4 43 -24 q -29 68 -29 17 q -7 128 -29 101 q 51 156 15 156 q 96 139 78 156 q 114 94 114 122 q 96 50 114 67 q 53 32 78 33 q 63 31 60 31 q 138 50 99 31 q 281 163 210 85 q 330 220 311 197 q 367 271 349 243 q 429 389 407 331 q 440 442 440 419 q 437 454 440 451 q 425 457 433 457 q 317 408 390 457 q 215 326 269 376 q 206 322 211 322 q 199 324 201 322 l 178 336 q 171 347 171 340 q 174 357 171 353 l 446 711 q 457 717 450 717 q 474 711 460 717 q 561 697 515 697 q 642 704 607 697 q 713 731 678 711 q 721 732 715 732 q 731 726 726 732 l 739 714 q 742 706 742 710 q 739 697 742 701 q 633 601 696 642 q 496 561 569 561 z "},"6":{"ha":574,"x_min":68,"x_max":806,"o":"m 494 417 m 404 435 q 499 465 456 465 q 581 431 551 465 q 611 347 611 397 q 572 207 611 274 q 471 90 532 140 q 337 8 410 39 q 196 -22 264 -22 q 98 18 128 -22 q 68 123 68 58 q 97 259 68 188 q 172 398 125 331 q 283 526 219 465 q 415 631 346 586 q 558 703 485 676 q 699 731 631 731 q 772 708 739 731 q 806 639 806 686 q 783 581 806 607 q 726 554 761 554 q 683 572 700 554 q 667 618 667 590 q 681 658 667 646 q 711 674 696 669 q 724 676 718 675 q 718 678 721 678 q 639 646 690 678 q 561 592 601 625 q 443 479 496 540 q 404 435 424 457 m 156 44 q 159 35 156 39 q 168 32 163 32 q 218 53 186 32 q 285 110 250 75 q 357 188 321 144 q 468 353 432 279 q 485 404 485 386 q 483 410 485 407 q 482 410 482 410 q 430 390 463 410 q 360 335 397 369 q 288 258 324 301 q 172 97 211 171 q 156 44 156 64 z "},"7":{"ha":546,"x_min":18,"x_max":835,"o":"m 428 707 q 515 722 472 722 q 597 710 563 722 q 642 694 617 703 q 682 686 668 686 q 708 692 696 686 q 782 747 743 708 q 792 751 786 751 l 821 751 q 835 738 835 751 q 832 729 835 732 q 801 697 817 711 q 764 660 786 682 q 717 607 742 638 q 462 293 588 454 q 229 -8 336 132 q 218 -14 225 -14 l 32 -14 q 18 0 18 -14 q 22 10 18 6 q 328 322 183 183 q 519 497 421 413 q 636 599 578 547 q 582 574 610 583 q 524 565 554 565 q 471 574 493 565 q 431 594 449 583 q 399 613 413 604 q 374 621 385 621 q 339 603 354 621 q 301 563 318 581 q 292 558 297 558 l 258 560 q 244 574 244 560 q 247 583 244 579 l 422 785 q 433 789 426 789 l 467 789 q 481 775 481 789 q 478 767 481 769 l 428 707 z "},"8":{"ha":556,"x_min":33,"x_max":735,"o":"m 265 48 q 282 55 265 48 q 326 84 299 61 q 369 138 353 107 q 386 204 386 168 q 369 273 386 240 q 339 336 353 306 q 280 308 310 324 q 219 269 250 292 q 155 199 183 242 q 126 111 126 157 q 147 58 126 81 q 199 35 167 35 q 265 48 231 35 m 501 447 q 638 560 597 490 q 653 615 653 588 q 637 659 653 643 q 597 675 621 675 q 549 667 574 675 q 467 608 494 649 q 454 567 454 589 q 490 467 454 538 q 501 447 496 457 m 735 615 q 713 533 735 569 q 582 425 671 467 q 522 401 550 410 q 533 367 529 385 q 538 324 538 350 q 529 267 538 297 q 451 124 506 186 q 279 0 378 36 q 173 -19 229 -19 q 75 15 117 -19 q 33 110 33 49 q 65 216 33 171 q 143 294 97 261 q 237 347 189 326 q 322 385 285 368 q 317 426 317 404 q 341 538 317 483 q 405 633 365 592 q 497 701 444 675 q 603 726 550 726 q 696 699 657 726 q 735 615 735 672 z "},"9":{"ha":593,"x_min":-6,"x_max":744,"o":"m 646 661 q 635 672 646 672 q 550 631 604 672 q 472 558 508 599 q 380 447 413 492 q 327 369 347 403 q 307 319 307 336 q 307 318 307 319 q 315 317 313 317 q 421 371 356 317 q 594 560 511 446 q 646 661 646 631 m 328 631 q 358 653 328 631 q 459 702 388 676 q 597 728 531 728 q 703 692 663 728 q 744 590 744 657 q 713 456 744 522 q 609 292 675 376 q 460 140 543 208 q 284 26 378 71 q 96 -19 190 -19 q 26 3 57 -19 q -6 69 -6 25 q 17 130 -6 101 q 75 158 40 158 q 119 141 100 158 q 138 99 138 124 q 123 53 138 65 q 92 36 108 40 q 78 33 85 35 q 92 32 89 32 q 168 60 125 32 q 254 128 211 88 q 397 279 318 186 q 422 310 410 294 q 360 276 390 288 q 297 265 331 265 q 218 301 244 265 q 192 383 192 336 q 231 522 192 458 q 328 631 269 585 z "},"\u0007":{"ha":463,"x_min":0,"x_max":0,"o":""},"\t":{"ha":463,"x_min":0,"x_max":0,"o":""},"―":{"ha":463,"x_min":0,"x_max":0,"o":""},"‖":{"ha":463,"x_min":0,"x_max":0,"o":""},"‗":{"ha":463,"x_min":0,"x_max":0,"o":""},"‛":{"ha":463,"x_min":0,"x_max":0,"o":""},"‟":{"ha":463,"x_min":0,"x_max":0,"o":""},"‣":{"ha":463,"x_min":0,"x_max":0,"o":""},"․":{"ha":463,"x_min":0,"x_max":0,"o":""},"‥":{"ha":463,"x_min":0,"x_max":0,"o":""},"\u0005":{"ha":694,"x_min":469,"x_max":800,"o":"m 800 678 l 760 678 q 693 620 729 639 q 608 601 657 601 q 542 617 564 601 q 514 678 521 633 l 469 678 q 477 614 469 644 q 501 560 485 583 q 542 524 517 538 q 606 511 568 511 q 672 526 642 511 q 729 563 703 540 q 774 614 760 589 q 800 678 788 639 z "},"\u0006":{"ha":694,"x_min":546,"x_max":722,"o":"m 722 622 q 703 669 722 651 q 657 686 685 686 q 617 677 636 686 q 581 653 597 668 q 556 619 565 638 q 546 579 546 600 q 563 532 546 550 q 610 514 579 514 q 651 523 631 514 q 687 547 671 532 q 713 581 703 561 q 722 622 722 601 z "},"\b":{"ha":694,"x_min":525,"x_max":729,"o":"m 729 603 q 699 675 729 646 q 626 704 669 704 q 554 675 583 704 q 525 603 525 646 q 554 530 525 560 q 626 500 583 500 q 699 531 668 500 q 729 603 729 561 m 689 603 q 670 559 689 576 q 626 542 651 542 q 583 560 601 542 q 565 603 565 578 q 583 647 565 629 q 626 664 600 664 q 671 647 653 664 q 689 603 689 629 z "},"\n":{"ha":694,"x_min":440,"x_max":878,"o":"m 878 663 l 738 663 l 635 517 l 664 515 l 878 663 m 683 663 l 543 663 l 440 517 l 469 515 l 683 663 z "},"\u000b":{"ha":694,"x_min":289,"x_max":493,"o":"m 493 0 l 463 0 q 415 -22 444 -8 q 358 -52 386 -35 q 309 -90 329 -69 q 289 -136 289 -111 q 301 -167 289 -156 q 331 -187 314 -179 q 368 -197 349 -194 q 401 -200 388 -200 q 445 -195 426 -200 q 485 -176 464 -190 l 474 -158 q 452 -170 461 -167 q 428 -174 443 -174 q 392 -164 408 -174 q 376 -132 376 -154 q 388 -90 376 -110 q 418 -54 400 -71 q 456 -24 436 -37 q 493 0 476 -11 z "},"\f":{"ha":694,"x_min":524,"x_max":856,"o":"m 856 696 l 797 696 q 772 688 797 696 q 715 672 746 681 q 656 655 683 663 q 624 646 628 647 l 554 694 l 524 693 l 546 507 l 856 696 z "},"\r":{"ha":293,"x_min":7,"x_max":401,"o":"m 401 431 l 238 431 l 69 214 q 26 150 44 182 q 7 75 7 118 q 28 14 7 36 q 88 -8 49 -8 q 149 8 119 -8 q 203 42 178 24 q 240 69 218 53 q 284 104 263 86 q 326 140 306 122 q 357 172 346 158 l 344 188 q 303 149 333 176 q 237 94 272 122 q 169 43 201 65 q 122 21 136 21 q 107 36 107 21 q 114 53 107 42 q 130 76 121 64 q 148 100 139 89 q 160 115 157 111 l 401 431 z "},"\u0019":{"ha":368,"x_min":-112,"x_max":767,"o":"m 767 839 l 738 864 l -112 -46 l -83 -72 l 767 839 z "},"\u001a":{"ha":625,"x_min":-354,"x_max":893,"o":"m -279 -369 m 704 651 q 606 558 653 600 q 538 501 557 517 q 383 378 394 383 q 371 367 379 375 q 361 358 361 358 q 224 172 353 350 q 243 171 233 171 q 314 182 278 171 q 381 207 350 193 q 558 439 558 439 q 569 444 563 444 q 733 444 733 444 q 747 431 747 444 q 744 422 747 426 q 500 104 528 154 q 490 92 499 101 q 457 46 468 67 q 453 36 453 36 q 453 35 453 35 q 454 35 453 35 q 494 56 464 35 q 560 104 525 76 q 625 160 596 133 q 667 197 656 186 q 677 201 671 201 q 688 196 683 201 q 700 181 696 192 q 703 172 703 178 q 700 164 703 167 q 625 93 651 114 q 543 31 568 49 q 486 -6 517 13 q 419 -22 456 -22 q 350 4 375 -22 q 325 75 325 31 q 338 139 325 106 q 308 131 324 135 q 247 122 276 122 q 192 129 218 122 q -168 -365 -164 -364 q -179 -369 -171 -369 q -269 -369 -183 -371 q -340 -369 -340 -369 q -354 -356 -354 -369 q -351 -347 -354 -351 q 49 199 49 199 q 42 235 42 218 q 53 281 42 267 q 82 308 65 294 q 153 367 135 354 q 165 376 160 371 q 186 403 175 388 q 325 569 246 481 q 476 726 404 657 q 547 790 503 751 q 744 929 658 885 q 840 957 799 957 q 876 944 860 957 q 893 907 893 932 q 871 846 893 882 q 733 679 826 774 q 704 651 733 679 m 865 601 q 842 649 865 632 q 792 667 819 667 q 755 658 772 667 q 724 637 738 650 q 703 606 711 624 q 694 569 694 588 q 716 522 694 542 q 768 501 738 501 q 835 531 806 501 q 865 601 865 561 m 826 911 q 775 881 810 911 q 697 803 740 851 q 522 582 622 721 q 471 510 494 543 q 806 849 722 726 q 831 906 831 885 l 829 911 q 826 911 829 911 m 453 36 l 453 36 l 453 36 z "},"\u001b":{"ha":674,"x_min":-354,"x_max":1249,"o":"m 378 390 m 826 911 q 775 881 810 911 q 697 803 740 851 q 522 582 622 721 q 471 510 494 543 q 806 849 722 726 q 831 906 831 885 l 829 911 q 826 911 829 911 m 49 199 q 42 235 42 218 q 53 281 42 267 q 84 311 68 299 q 113 335 100 324 q 150 365 139 358 q 168 380 161 372 q 186 402 175 388 q 208 431 197 417 q 476 726 343 599 q 547 790 503 751 q 744 929 658 885 q 840 957 799 957 q 876 944 860 957 q 893 907 893 932 q 872 846 893 882 q 817 770 850 810 q 744 690 783 731 q 665 613 704 650 q 538 501 596 547 q 383 378 386 379 q 370 367 379 375 q 361 358 361 358 l 224 172 q 243 171 233 171 q 322 185 281 171 q 397 217 364 200 q 480 335 425 264 q 607 486 535 406 q 760 647 679 567 q 920 791 840 726 q 1072 897 1000 856 q 1200 939 1144 939 q 1232 929 1221 939 q 1249 892 1249 917 q 1215 811 1249 858 q 1025 608 1151 719 q 803 424 899 496 q 726 369 736 375 q 718 363 725 368 q 708 356 711 358 q 701 347 706 354 q 675 312 696 339 q 618 238 654 285 q 546 144 582 192 q 501 86 514 104 q 469 33 474 47 q 518 54 490 35 q 640 143 588 103 q 732 219 693 183 q 742 224 736 224 q 751 219 747 224 l 767 203 q 771 193 771 199 q 767 183 771 188 q 568 26 683 107 q 512 -8 540 6 q 447 -22 483 -22 q 377 8 400 -22 q 354 79 354 38 q 360 131 354 108 q 365 147 363 139 q 243 122 297 122 q 192 129 218 122 l -168 -365 q -179 -371 -172 -371 l -340 -369 q -354 -356 -354 -369 q -351 -347 -354 -351 l 49 199 m 1185 889 q 1142 872 1168 889 q 1090 828 1117 854 q 1041 777 1064 803 q 997 724 1018 751 q 944 657 975 697 q 825 507 863 553 q 853 532 829 511 q 903 574 876 553 q 956 618 931 596 q 1011 669 981 640 q 1172 849 1132 782 q 1188 888 1188 872 q 1185 889 1188 889 z "}," ":{"ha":347,"x_min":0,"x_max":0,"o":""}," ":{"ha":347,"x_min":0,"x_max":0,"o":""},"!":{"ha":433,"x_min":57,"x_max":697,"o":"m 697 725 q 674 776 697 756 q 621 797 650 797 q 578 788 597 797 q 545 763 560 778 q 518 728 531 747 q 496 692 506 710 l 214 193 l 233 182 l 629 608 q 675 660 653 633 q 697 725 697 688 m 236 94 q 213 143 236 124 q 163 163 190 163 q 88 133 119 163 q 57 58 57 103 q 76 6 57 26 q 128 -14 96 -14 q 203 19 171 -14 q 236 94 236 51 z "},"\"":{"ha":393,"x_min":281,"x_max":744,"o":"m 744 888 l 699 924 l 465 607 l 497 582 l 744 888 m 560 888 l 514 924 l 281 607 l 313 582 l 560 888 z "},"#":{"ha":943,"x_min":154,"x_max":979,"o":"m 979 535 l 786 535 l 865 732 l 811 732 l 735 535 l 521 535 l 600 732 l 547 732 l 468 535 l 275 535 l 254 485 l 449 485 l 368 285 l 174 285 l 154 236 l 347 236 l 265 33 l 318 33 l 400 236 l 613 236 l 531 33 l 585 33 l 667 236 l 860 236 l 878 285 l 685 285 l 767 485 l 958 485 l 979 535 m 713 485 l 633 285 l 419 285 l 500 485 l 713 485 z "},"$":{"ha":611,"x_min":0,"x_max":782,"o":"m 3 -119 q 3 -119 3 -119 m 736 832 q 746 838 740 838 q 756 835 751 838 l 776 819 q 782 810 782 815 q 779 800 782 804 l 713 713 q 751 669 735 696 q 767 606 767 642 q 760 564 767 585 q 710 497 744 519 q 665 486 690 486 q 622 505 640 486 q 604 549 604 524 q 626 598 604 581 q 676 615 647 615 q 692 614 685 615 q 707 613 700 613 l 707 613 q 710 622 710 618 q 678 671 710 653 q 608 689 646 689 q 505 654 547 689 q 463 556 463 619 q 475 488 463 521 q 504 422 488 456 q 535 351 521 388 q 549 271 549 314 q 518 151 549 206 q 439 58 488 97 q 331 -2 390 19 q 211 -24 271 -24 q 147 -17 179 -24 l 46 -149 q 36 -154 42 -154 q 26 -151 31 -154 l 6 -136 q 0 -126 0 -132 q 3 -117 0 -121 l 96 4 q 49 47 68 19 q 24 125 24 82 q 31 174 24 147 q 90 251 47 225 q 140 265 113 265 q 185 247 167 265 q 204 202 204 229 q 185 152 204 175 q 136 129 167 129 q 109 133 121 129 q 93 138 97 138 q 86 133 89 138 q 82 118 82 125 q 93 79 82 94 q 165 36 118 46 q 210 31 189 31 q 277 43 244 31 q 333 76 310 56 q 371 127 357 97 q 385 194 385 157 q 372 263 385 231 q 344 329 360 296 q 314 399 328 363 q 300 479 300 435 q 328 584 300 536 q 399 667 356 632 q 494 721 442 701 q 599 740 547 740 q 660 733 629 740 l 736 832 z "},"%":{"ha":1093,"x_min":228,"x_max":1213,"o":"m 789 885 q 774 926 789 913 q 732 940 758 940 q 651 926 694 940 q 564 887 607 911 q 481 828 521 863 q 410 756 440 794 q 361 677 379 718 q 343 596 343 636 q 361 533 343 560 q 419 507 379 507 q 501 527 463 507 q 571 574 539 547 q 635 633 597 594 q 706 715 672 671 q 765 805 740 760 q 789 885 789 850 m 1213 925 l 1101 925 l 228 0 l 343 0 l 1213 925 m 1122 374 q 1065 429 1122 429 q 984 415 1028 429 q 897 376 940 400 q 814 318 854 351 q 743 247 774 285 q 694 167 713 208 q 676 86 676 126 q 694 23 676 50 q 753 -4 713 -4 q 834 17 796 -4 q 904 64 872 38 q 968 124 931 86 q 1040 205 1006 161 q 1099 293 1075 249 q 1122 374 1122 338 m 753 886 q 735 827 753 863 q 691 753 718 792 q 628 676 664 714 q 558 606 593 638 q 490 556 522 575 q 433 536 457 536 q 421 540 428 536 q 414 550 414 543 q 433 602 414 568 q 481 676 451 636 q 548 757 511 715 q 621 832 585 799 q 690 887 657 865 q 742 908 722 908 q 751 899 749 908 q 753 886 753 890 m 1086 375 q 1069 316 1086 351 q 1025 242 1053 281 q 963 165 997 203 q 892 96 928 126 q 824 46 857 65 q 767 26 790 26 q 754 29 761 26 q 747 39 747 32 q 766 91 747 57 q 814 165 785 125 q 880 246 843 204 q 953 321 917 288 q 1022 376 989 354 q 1075 397 1054 397 q 1084 388 1082 397 q 1086 375 1086 379 z "},"&":{"ha":836,"x_min":39,"x_max":896,"o":"m 724 619 q 717 635 724 629 q 700 640 710 640 q 658 617 679 640 q 622 560 638 594 q 599 500 606 525 q 589 463 592 475 q 621 483 600 469 q 667 519 642 496 q 724 619 724 571 m 526 128 l 528 83 q 530 60 528 69 q 535 49 532 50 q 542 47 538 47 q 581 61 557 47 q 672 140 619 85 q 704 176 693 161 q 713 182 708 182 q 721 181 718 182 l 742 171 q 750 158 750 167 q 747 150 750 154 q 564 -3 665 40 q 488 -19 526 -19 q 418 -1 450 -19 q 381 40 392 14 q 297 -1 344 18 q 197 -19 249 -19 q 84 20 129 -19 q 39 132 39 60 q 57 214 39 175 q 106 283 75 253 q 243 361 164 339 q 317 379 279 372 q 378 390 356 386 q 404 394 401 393 q 440 492 417 442 q 499 588 463 543 q 584 661 535 632 q 696 690 633 690 q 760 667 733 690 q 788 604 788 643 q 758 522 788 565 q 718 481 742 499 q 615 419 678 449 q 571 399 592 408 q 536 222 540 283 q 623 310 576 263 q 732 403 669 358 q 831 442 782 442 q 878 422 861 442 q 896 369 896 401 q 874 306 896 338 q 811 274 851 274 q 772 288 790 274 q 754 325 754 301 q 772 369 754 350 q 731 339 750 356 q 699 313 711 322 q 591 208 654 271 q 528 146 528 146 q 526 128 526 138 m 368 89 q 365 139 365 115 q 372 235 365 192 q 386 315 379 279 q 250 196 308 265 q 244 190 250 196 q 225 167 239 185 q 178 89 193 125 q 169 57 169 71 q 181 38 169 43 q 214 31 197 31 q 296 49 256 31 q 368 89 336 68 m 853 383 q 856 389 856 386 q 851 397 856 393 q 827 405 842 408 q 801 389 813 401 q 807 389 803 389 q 831 386 826 389 q 853 383 846 379 z "},"'":{"ha":208,"x_min":281,"x_max":560,"o":"m 560 888 l 514 924 l 281 607 l 313 582 l 560 888 z "},"(":{"ha":415,"x_min":-99,"x_max":844,"o":"m 844 975 l 833 990 q 569 810 689 900 q 350 617 449 721 q 172 388 251 513 q 28 100 92 263 q -42 -90 -10 4 q -99 -283 -75 -183 l -78 -290 q -58 -244 -69 -267 q -36 -200 -47 -222 q 92 30 22 -81 q 238 250 163 140 q 331 385 282 315 q 431 523 379 454 q 535 658 482 592 q 643 782 589 724 q 744 879 692 833 q 844 975 796 925 z "},")":{"ha":415,"x_min":-225,"x_max":718,"o":"m 718 983 l 697 990 q 677 944 688 967 q 656 900 667 922 q 629 848 642 874 q 601 796 617 822 q 497 621 553 706 q 382 451 440 536 q 247 258 315 354 q 104 71 179 163 q 41 -7 72 32 q -24 -82 10 -46 q -121 -182 -71 -133 q -225 -274 -171 -231 l -214 -290 q 52 -109 -68 -199 q 270 84 172 -19 q 447 313 368 188 q 592 601 526 439 q 662 790 629 696 q 718 983 694 883 z "},"*":{"ha":656,"x_min":426,"x_max":832,"o":"m 832 728 q 824 747 832 736 q 803 768 815 758 q 778 784 792 778 q 757 790 765 790 q 730 785 746 790 q 697 772 714 779 q 660 757 679 764 q 624 747 640 750 q 657 789 638 769 q 678 808 667 799 q 699 826 690 817 q 715 848 708 836 q 721 875 721 860 q 719 894 721 882 q 714 917 718 906 q 703 936 710 928 q 686 944 696 944 q 660 938 674 944 q 634 920 646 931 q 615 896 622 910 q 607 869 607 882 q 610 828 607 849 q 613 788 613 808 q 608 749 613 769 q 583 789 593 768 q 564 833 574 810 q 533 876 551 863 q 482 890 515 890 q 453 885 465 890 q 440 860 440 879 q 446 824 440 844 q 461 792 451 804 q 485 774 472 778 q 514 767 499 769 q 560 756 538 761 q 604 738 582 750 q 558 726 581 729 q 510 721 535 724 q 472 713 486 718 q 444 689 458 708 q 432 665 438 678 q 426 636 426 651 q 433 619 426 625 q 451 610 440 613 q 472 606 461 607 q 490 606 482 606 q 531 617 518 606 q 557 653 544 629 q 583 694 569 675 q 614 731 596 714 l 614 717 q 604 658 614 686 q 594 600 594 629 q 601 576 594 589 q 619 553 608 564 q 641 535 629 542 q 664 528 653 528 q 681 537 672 528 q 695 558 689 546 q 705 583 701 571 q 708 604 708 596 q 700 635 708 624 q 679 658 692 646 q 648 693 661 676 q 624 733 635 710 q 667 716 647 726 q 710 693 688 706 q 731 682 719 688 q 754 676 743 676 q 776 681 763 676 q 801 692 789 685 q 823 708 814 699 q 832 728 832 717 z "},"+":{"ha":649,"x_min":161,"x_max":692,"o":"m 692 404 l 472 404 l 624 624 l 563 624 l 413 404 l 196 404 l 161 353 l 378 353 l 226 133 l 288 133 l 438 353 l 657 353 l 692 404 z "},",":{"ha":351,"x_min":-104,"x_max":231,"o":"m 231 90 q 195 0 231 43 q 111 -78 160 -43 q 9 -139 63 -114 q -82 -172 -44 -164 q -85 -172 -83 -172 q -99 -162 -94 -172 q -104 -140 -104 -143 q -94 -128 -104 -131 q -86 -124 -86 -124 q -39 -104 -57 -115 q 1 -72 -21 -93 q 3 -71 1 -71 q 31 -41 15 -61 q 47 -7 47 -21 q 40 7 47 -1 q 25 49 25 24 q 35 96 25 74 q 63 135 46 118 q 103 162 81 151 q 150 172 126 172 q 209 150 188 172 q 231 90 231 128 z "},"-":{"ha":443,"x_min":86,"x_max":511,"o":"m 511 294 l 178 294 l 86 175 l 418 175 l 511 294 z "},".":{"ha":351,"x_min":38,"x_max":218,"o":"m 218 89 q 195 139 218 119 q 143 158 172 158 q 103 149 122 158 q 69 126 83 140 q 46 92 54 111 q 38 53 38 74 q 58 1 38 21 q 110 -18 78 -18 q 150 -9 131 -18 q 185 15 169 0 q 209 49 200 29 q 218 89 218 68 z "},"/":{"ha":697,"x_min":-149,"x_max":1013,"o":"m 1013 986 l 908 986 l -149 -292 l -46 -292 l 1013 986 z "},":":{"ha":389,"x_min":38,"x_max":426,"o":"m 426 381 q 403 431 426 413 q 350 450 381 450 q 310 441 329 450 q 277 417 292 432 q 254 383 263 403 q 246 344 246 364 q 266 292 246 313 q 318 272 286 272 q 358 281 339 272 q 393 306 378 290 q 417 340 408 321 q 426 381 426 360 m 218 89 q 195 139 218 119 q 143 158 172 158 q 103 149 122 158 q 69 126 83 140 q 46 92 54 111 q 38 53 38 74 q 58 1 38 21 q 110 -18 78 -18 q 150 -9 131 -18 q 185 15 169 0 q 209 49 200 29 q 218 89 218 68 z "},";":{"ha":389,"x_min":-104,"x_max":442,"o":"m -90 -140 m 150 172 q 209 150 188 172 q 231 94 231 128 q 218 34 231 60 q 188 -12 206 8 q 104 -83 151 -51 q 28 -128 65 -110 q -82 -172 -43 -164 q -85 -172 -83 -172 q -99 -162 -94 -172 q -104 -140 -104 -143 q -94 -128 -104 -131 q -86 -124 -86 -124 q -39 -104 -57 -115 q 1 -72 -21 -93 l 15 -57 q 43 -21 32 -42 q 47 -7 47 -12 q 40 7 47 -1 q 25 49 25 24 q 35 96 25 74 q 63 135 46 118 q 103 162 81 151 q 150 172 126 172 m 442 381 q 405 295 442 332 q 319 258 368 258 q 258 283 282 258 q 235 344 235 308 q 244 389 235 368 q 308 454 264 433 q 354 464 331 464 q 415 441 389 464 q 442 381 442 418 m 1 -72 q 1 -72 1 -72 l 1 -72 z "},"<":{"ha":694,"x_min":-122,"x_max":479,"o":"m 479 172 l 479 228 l -61 465 l 479 701 l 479 758 l -122 490 l -122 439 l 479 172 z "},"=":{"ha":649,"x_min":138,"x_max":756,"o":"m 756 469 l 260 469 l 225 418 l 721 418 l 756 469 m 668 342 l 172 342 l 138 290 l 632 290 l 668 342 z "},">":{"ha":694,"x_min":-122,"x_max":479,"o":"m 479 439 l 479 490 l -122 758 l -122 701 l 418 465 l -122 228 l -122 172 l 479 439 z "},"?":{"ha":567,"x_min":64,"x_max":778,"o":"m 243 89 q 221 139 243 119 q 169 158 199 158 q 95 127 126 158 q 64 53 64 96 q 83 1 64 21 q 135 -19 103 -19 q 210 13 178 -19 q 243 89 243 46 m 778 652 q 778 618 778 652 q 749 531 778 583 q 677 440 721 479 q 579 372 633 401 q 476 318 525 343 q 383 268 428 293 q 301 210 339 243 q 280 189 290 199 q 258 168 269 179 q 249 164 254 164 q 240 167 244 164 l 221 181 q 215 191 215 185 q 218 200 215 197 q 365 358 286 285 q 482 472 425 415 q 583 596 539 528 q 588 603 583 597 q 603 629 593 610 q 644 743 644 701 q 641 759 644 754 q 626 764 638 764 q 546 739 592 764 q 460 676 500 714 q 393 593 419 638 q 367 514 367 549 q 370 501 367 506 q 386 497 374 497 q 416 506 399 497 q 451 531 433 515 q 508 592 486 560 q 519 597 513 597 q 529 593 525 597 l 542 581 q 546 572 546 576 q 544 564 546 567 q 476 485 515 518 q 429 456 454 467 q 379 444 404 444 q 325 465 346 444 q 304 519 304 486 q 338 627 304 574 q 424 722 372 681 q 533 790 475 764 q 643 815 592 815 q 703 801 678 815 q 746 764 729 788 q 778 652 778 721 z "},"@":{"ha":1250,"x_min":347,"x_max":1278,"o":"m 1278 544 q 1247 415 1278 475 q 1167 310 1217 354 q 1053 240 1117 265 q 924 215 990 215 q 876 221 904 215 q 781 269 815 235 q 760 319 760 290 q 761 338 760 329 q 631 246 696 276 q 558 228 592 228 q 485 260 513 228 q 457 335 457 293 q 474 417 457 378 q 569 549 504 490 q 631 597 601 576 q 753 662 688 636 q 890 688 819 688 q 938 679 914 688 q 968 635 967 669 l 993 668 q 1004 674 997 674 l 1154 674 q 1168 660 1168 674 q 1165 651 1168 656 q 1042 492 1103 572 q 947 369 982 413 q 903 314 913 325 q 894 296 894 303 q 910 279 894 285 q 948 275 922 275 q 1007 286 974 275 q 1171 407 1113 324 q 1213 540 1213 465 q 1182 678 1213 615 q 1101 785 1151 740 q 982 854 1050 829 q 842 879 914 879 q 675 847 753 879 q 538 756 597 814 q 446 619 479 697 q 413 454 413 542 q 445 291 413 367 q 535 158 478 215 q 667 69 592 101 q 829 38 743 38 q 1033 92 938 38 q 1131 164 1092 124 q 1164 208 1149 183 q 1199 265 1179 232 q 1211 272 1203 272 l 1249 272 q 1263 258 1263 272 q 1261 251 1263 256 q 1235 204 1247 225 q 1063 33 1165 93 q 829 -26 961 -26 q 641 12 729 -26 q 488 115 553 50 q 385 267 424 179 q 347 454 347 354 q 386 644 347 554 q 491 799 425 733 q 646 904 557 865 q 836 943 735 943 q 999 915 919 943 q 1140 833 1078 886 q 1240 707 1203 781 q 1278 544 1278 633 m 921 628 q 882 611 908 628 q 826 570 856 594 q 770 523 796 546 q 733 489 744 500 q 696 449 722 478 q 593 322 636 385 q 574 283 574 294 q 574 281 574 282 q 578 281 574 281 q 629 299 596 281 q 701 350 663 318 q 779 422 740 382 q 903 575 864 508 q 921 628 921 608 z "},"A":{"ha":879,"x_min":-25,"x_max":1331,"o":"m 46 22 m 21 63 m 728 0 m 886 192 q 896 196 890 196 q 906 192 901 196 l 919 176 q 924 167 924 172 q 921 158 924 163 q 855 95 894 121 q 775 58 815 69 l 740 -7 q 728 -14 736 -14 l 526 -14 q 513 0 513 -14 q 515 8 513 4 l 553 65 q 425 140 482 89 q 189 -11 314 33 q 95 -29 140 -29 q 13 -3 50 -29 q -25 75 -25 24 q -15 122 -25 99 q 47 193 4 169 q 97 206 69 206 q 147 186 125 206 q 169 135 169 167 q 145 81 169 103 q 90 58 121 58 q 53 68 68 58 q 36 74 46 74 q 35 59 35 65 q 40 46 35 53 q 53 33 44 39 q 96 22 74 22 q 332 132 190 22 q 388 176 363 156 q 308 307 342 228 q 272 469 272 392 q 283 547 272 507 q 317 621 294 588 q 374 676 340 654 q 455 699 408 699 q 540 676 501 699 q 665 546 619 633 q 690 489 682 517 q 796 597 742 543 q 913 715 850 656 q 1021 814 975 775 q 1203 932 1117 897 q 1293 951 1250 951 q 1319 947 1301 951 q 1331 933 1331 944 q 1328 925 1331 929 q 1302 889 1315 906 q 1269 847 1289 872 q 1188 729 1243 813 q 1081 566 1149 669 q 965 381 1013 463 q 881 240 918 300 q 815 129 844 181 q 886 192 846 146 m 660 358 l 660 376 q 464 175 557 261 q 583 110 513 131 q 639 185 624 164 q 646 214 642 190 q 656 296 651 244 q 660 358 660 347 m 626 507 q 529 618 589 583 q 463 636 497 636 q 403 619 428 636 q 363 576 379 603 q 339 516 347 549 q 331 454 331 483 q 359 323 331 386 q 428 213 388 260 q 458 242 442 226 q 497 282 475 258 q 596 385 546 329 q 624 416 611 400 q 650 444 636 432 q 626 507 642 475 m 706 428 q 713 356 713 390 q 708 281 713 315 q 749 336 711 283 q 790 392 769 364 q 833 449 811 421 q 946 588 889 521 q 1063 725 1003 656 q 1136 803 1100 768 q 1226 890 1213 876 q 1132 839 1182 874 q 1040 767 1082 804 q 958 690 999 729 q 829 558 907 642 q 766 492 797 524 q 706 428 735 461 z "},"B":{"ha":1219,"x_min":21,"x_max":1439,"o":"m 1083 425 q 1043 422 1064 422 l 1028 422 q 981 433 999 422 q 965 457 967 442 q 888 340 929 401 q 690 118 794 204 q 564 40 632 69 q 322 -17 461 -3 q 248 -21 281 -21 q 178 -17 215 -21 q 105 0 140 -14 q 45 40 69 14 q 21 111 21 67 q 31 158 21 135 q 58 198 42 181 q 96 226 74 215 q 146 236 118 236 q 196 218 174 236 q 218 168 218 200 q 196 113 218 136 q 143 90 174 90 q 101 101 119 90 q 81 108 90 108 q 79 99 79 103 q 93 68 79 81 q 175 35 121 43 q 217 32 201 32 q 318 50 269 32 q 519 183 424 92 q 613 283 569 231 q 699 390 657 335 q 790 504 742 446 q 889 614 838 563 q 1232 861 1036 758 q 1121 900 1192 886 q 978 914 1049 914 q 790 890 883 914 q 613 822 696 867 q 517 763 567 799 q 426 681 468 726 q 358 585 385 636 q 332 481 332 535 q 358 421 332 442 q 422 400 383 400 q 579 453 496 400 q 711 567 642 494 q 832 754 783 646 q 863 828 847 788 q 875 836 865 836 q 896 835 875 836 q 908 821 908 833 q 908 818 908 819 q 760 533 875 671 q 665 440 717 482 q 553 372 613 399 q 431 346 493 346 q 324 380 368 346 q 279 482 279 414 q 325 633 279 558 q 425 753 364 697 q 684 911 540 858 q 982 964 828 964 q 1142 947 1061 964 q 1289 890 1222 931 q 1415 940 1347 918 q 1419 942 1417 942 q 1432 932 1429 942 q 1439 910 1439 914 q 1435 901 1439 906 q 1428 897 1431 897 q 1390 881 1425 896 q 1338 858 1354 867 q 1399 790 1372 826 q 1431 681 1431 744 q 1400 571 1431 618 q 1319 491 1369 524 q 1218 449 1269 458 q 1157 439 1189 443 q 1208 392 1186 419 q 1246 279 1246 347 q 1224 183 1246 228 q 1167 104 1201 139 q 1089 44 1132 69 q 846 -21 978 -21 q 740 18 771 -21 q 726 61 726 36 q 758 149 726 111 q 835 213 790 186 q 928 258 881 240 q 1013 283 976 275 q 1015 283 1014 283 q 1029 272 1026 283 q 1033 249 1033 250 q 1024 235 1033 239 q 951 212 986 224 q 882 181 915 200 q 881 181 882 181 q 814 131 846 163 q 781 61 781 94 q 789 44 781 51 q 810 38 797 38 q 868 60 831 38 q 924 100 899 78 q 925 100 925 100 q 982 157 953 122 q 1081 311 1050 236 q 1096 388 1096 351 q 1092 409 1096 399 q 1083 425 1089 419 m 986 488 q 1019 493 1000 493 q 1054 489 1038 493 q 1092 476 1076 482 q 1129 494 1115 483 q 1207 583 1167 528 q 1271 713 1250 643 q 1281 779 1281 746 q 1278 806 1281 797 q 1271 824 1276 815 q 1240 805 1251 815 q 1207 774 1228 794 q 1085 631 1138 704 q 986 488 1032 557 z "},"C":{"ha":1025,"x_min":308,"x_max":1410,"o":"m 1410 875 q 1376 779 1410 825 q 1201 628 1314 694 q 949 517 1072 551 q 776 476 864 492 q 708 469 739 469 q 643 396 681 438 q 517 204 561 300 q 493 114 493 156 q 528 46 493 69 q 607 25 558 25 q 774 58 689 25 q 919 144 860 90 q 921 146 919 146 q 979 214 953 172 q 1007 296 1007 258 q 981 344 1007 326 q 919 360 957 360 q 815 335 865 360 q 719 269 764 310 q 638 179 674 228 q 579 85 603 131 q 567 78 575 78 q 547 82 565 78 q 536 96 536 85 q 538 101 536 99 q 596 213 560 157 q 680 313 632 268 q 786 385 728 357 q 913 414 844 414 q 1011 386 971 414 q 1046 347 1033 371 q 1058 292 1058 324 q 1028 192 1058 239 q 960 113 997 144 q 794 11 888 47 q 606 -25 701 -25 q 430 35 496 -25 q 364 208 364 96 q 400 368 364 290 q 475 488 431 433 q 422 508 450 494 q 367 547 393 522 q 324 604 340 571 q 308 679 308 638 q 331 785 308 736 q 475 931 374 875 q 669 993 565 981 q 772 1000 719 1000 q 971 968 878 1000 q 981 956 981 965 q 979 950 981 953 l 969 931 q 957 922 965 922 q 953 922 956 922 q 789 944 878 944 q 611 917 700 944 q 525 881 569 904 q 386 756 431 831 q 364 669 364 715 q 414 576 364 615 q 511 531 453 544 q 726 722 589 622 q 1013 889 867 824 q 1299 960 1175 960 q 1399 915 1369 960 q 1410 875 1410 899 m 1361 874 q 1346 901 1361 894 q 1301 911 1324 911 q 1101 835 1222 911 q 797 575 950 739 q 750 521 771 546 q 779 526 765 524 q 1092 624 956 558 q 1167 665 1121 638 q 1258 728 1214 693 q 1331 800 1301 763 q 1361 874 1361 838 z "},"D":{"ha":1165,"x_min":126,"x_max":1460,"o":"m 232 81 q 185 56 185 69 q 194 44 185 49 q 278 28 226 31 q 308 28 300 28 q 397 36 358 28 q 465 53 436 44 q 399 72 432 64 q 302 86 347 86 q 232 81 257 86 m 1301 589 q 1282 445 1301 518 q 1228 304 1263 372 q 1144 178 1193 236 q 904 4 1042 54 q 758 -22 835 -22 q 650 -10 707 -22 q 547 21 593 1 q 483 1 525 15 q 387 -16 442 -10 q 302 -22 332 -22 q 246 -19 272 -22 q 149 13 185 -15 q 126 58 126 29 q 151 104 126 86 q 254 133 186 129 q 294 136 281 136 q 417 119 358 136 q 532 82 476 103 q 608 136 576 104 l 636 164 q 770 322 708 239 q 901 485 832 404 q 1010 598 953 543 q 1133 694 1068 653 l 1178 725 q 1214 747 1196 738 q 1157 821 1193 789 q 981 903 1088 885 q 876 911 928 911 q 714 892 794 911 q 564 829 633 872 q 490 772 528 806 q 374 619 410 703 q 356 532 356 576 q 410 433 356 469 q 466 408 435 417 q 528 400 497 400 q 674 428 606 400 q 796 505 742 457 q 890 616 850 553 q 953 751 931 679 q 967 761 957 761 q 986 757 968 761 q 996 743 996 754 q 996 742 996 742 q 983 685 992 708 q 961 632 975 661 q 887 517 931 569 q 787 427 843 464 q 666 369 731 390 q 531 349 601 349 q 444 361 488 349 q 317 463 356 388 q 296 550 296 501 q 324 685 296 624 q 399 796 353 747 q 506 879 446 844 q 629 936 569 917 q 851 969 736 969 q 1088 925 992 969 q 1256 775 1193 876 q 1393 850 1288 797 q 1440 869 1432 869 q 1451 861 1447 869 l 1458 846 q 1460 840 1460 843 q 1451 828 1460 831 q 1283 713 1353 790 q 1296 654 1290 685 q 1301 589 1301 624 m 1243 672 q 1184 591 1214 636 q 1119 487 1154 546 q 1044 369 1083 428 q 960 261 1006 311 q 859 168 915 211 q 729 93 803 125 q 667 66 693 78 q 621 46 640 54 q 681 33 643 39 q 757 28 718 28 q 888 51 825 28 q 1007 116 951 75 q 1107 213 1063 157 q 1233 460 1199 324 q 1251 583 1251 526 q 1243 672 1251 640 z "},"E":{"ha":976,"x_min":278,"x_max":1317,"o":"m 1265 900 q 1258 914 1265 910 q 1235 919 1247 919 q 1140 896 1192 919 q 1035 837 1088 872 q 938 762 983 801 q 861 690 892 722 q 815 635 836 664 q 1067 710 944 651 q 1244 846 1190 775 q 1265 900 1265 872 m 681 626 q 676 657 676 642 q 712 763 676 715 q 798 847 747 811 q 905 906 849 882 q 1006 943 961 929 q 1211 969 1104 969 q 1274 961 1253 969 q 1317 903 1317 944 q 1292 826 1317 863 q 1163 707 1244 757 q 1097 671 1118 681 q 943 612 1025 635 q 783 582 861 589 q 779 567 779 574 q 806 569 794 569 q 831 568 818 569 q 876 557 857 567 q 893 533 893 549 q 843 499 893 503 q 829 497 833 497 q 760 514 793 497 q 663 449 718 496 q 556 341 608 403 q 467 216 503 279 q 432 106 432 153 q 469 46 432 67 q 550 29 501 29 q 695 51 624 29 q 826 113 767 72 q 910 188 881 150 q 949 283 949 236 q 924 328 949 314 q 865 344 894 344 q 744 319 804 344 q 636 256 683 293 q 562 188 601 228 q 496 114 522 149 q 486 108 492 108 q 476 111 481 108 l 463 121 q 457 131 457 125 q 458 139 457 136 q 528 235 486 189 q 622 318 571 282 q 732 376 674 354 q 850 397 790 397 q 950 374 910 397 q 987 338 972 360 q 1001 283 1001 315 q 967 177 1001 225 q 892 96 933 129 q 726 6 818 36 q 540 -24 635 -24 q 442 -10 489 -24 q 358 30 394 3 q 299 101 321 57 q 278 203 278 144 q 336 371 278 294 q 397 434 363 406 q 471 483 432 463 q 597 533 536 517 q 715 557 658 549 q 701 578 707 567 l 694 578 q 601 587 651 578 q 506 618 550 596 q 432 679 463 640 q 401 777 401 718 q 435 881 401 836 q 517 953 468 926 q 624 994 567 981 q 728 1007 682 1007 q 897 976 819 1007 q 906 964 906 974 q 904 957 906 960 l 894 940 q 882 933 890 933 q 878 935 879 933 q 822 948 846 944 q 763 951 797 951 q 578 911 664 951 q 475 824 507 879 q 458 759 458 794 q 483 698 458 724 q 546 657 508 672 q 681 626 606 632 z "},"F":{"ha":908,"x_min":81,"x_max":1544,"o":"m 1146 592 q 1160 586 1153 592 q 1168 571 1168 581 q 1150 535 1168 553 q 1072 474 1118 501 q 1044 458 1054 464 q 1017 404 1026 431 q 1001 342 1007 378 q 993 332 1000 335 l 944 313 q 939 311 942 311 q 925 325 925 311 q 926 338 925 326 q 933 369 928 350 q 968 442 942 403 l 947 436 q 915 383 933 418 q 883 325 897 349 q 772 180 836 244 q 629 71 707 115 q 463 2 551 26 q 282 -22 375 -22 q 154 0 203 -22 q 102 39 124 14 q 81 110 81 64 q 116 194 81 156 q 201 232 151 232 q 252 213 231 232 q 274 162 274 194 q 251 108 274 129 q 196 86 228 86 q 160 97 176 86 q 140 103 151 103 l 139 103 q 138 93 138 99 q 150 63 138 75 q 228 33 175 39 q 268 31 253 31 q 458 101 367 31 q 538 176 500 133 q 675 350 596 243 q 717 403 696 378 q 604 367 661 390 q 468 289 529 335 q 460 286 464 286 q 446 296 449 286 q 439 325 439 324 q 444 336 439 332 q 601 418 511 386 q 767 465 681 447 q 942 647 832 550 q 1139 801 1040 736 q 1044 817 1103 806 q 919 841 985 828 q 806 863 854 854 q 706 871 757 871 q 601 853 656 871 q 504 803 547 836 q 434 724 461 771 q 407 621 407 678 q 444 549 407 574 q 532 525 481 525 q 651 544 593 525 q 760 599 710 564 q 851 679 810 633 q 922 778 893 725 q 935 785 926 785 l 954 785 q 968 771 968 785 q 961 754 968 768 q 911 674 949 722 q 753 528 844 585 q 546 472 661 472 q 417 504 468 472 q 371 551 389 522 q 353 621 353 579 q 380 733 353 683 q 449 824 407 783 q 543 892 492 864 q 646 936 594 919 q 646 938 646 938 q 831 965 740 965 q 1004 956 921 965 q 1158 934 1088 946 q 1283 914 1228 922 q 1385 906 1338 906 q 1458 912 1432 906 q 1517 938 1483 918 q 1524 939 1519 939 q 1536 931 1532 939 l 1543 917 q 1544 909 1544 914 q 1539 900 1544 904 q 1394 824 1472 853 q 1233 796 1315 796 q 1169 799 1201 796 l 1176 790 q 1181 781 1181 786 q 1176 771 1181 775 q 1108 700 1136 735 q 1011 554 1054 633 q 979 496 996 526 l 1018 504 q 1067 553 1046 536 q 1146 592 1115 592 z "},"G":{"ha":956,"x_min":225,"x_max":1319,"o":"m 1267 878 q 1254 901 1267 893 q 1226 910 1242 910 q 1065 851 1161 910 q 792 615 943 776 q 933 643 863 625 q 1103 708 1021 664 q 1154 739 1125 721 q 1251 828 1219 779 q 1267 878 1267 853 m 1319 881 q 1297 808 1319 842 q 1181 696 1257 744 q 954 596 1072 625 q 782 563 869 575 q 756 560 769 560 l 740 560 q 697 513 724 542 q 601 381 635 440 q 583 324 583 347 q 597 300 583 306 q 639 293 619 293 q 807 339 711 293 q 963 432 881 374 q 1014 469 989 450 q 1068 506 1039 489 q 1076 507 1071 507 q 1086 501 1082 507 l 1097 486 q 1100 477 1100 482 q 1096 468 1100 472 q 1050 415 1063 438 q 1035 387 1042 403 q 1015 333 1029 371 q 980 244 1001 294 q 917 148 958 194 q 821 69 876 101 q 703 15 765 36 q 578 -17 642 -7 q 456 -26 514 -26 q 251 33 313 -26 q 225 106 225 61 q 235 154 225 131 q 299 224 254 201 q 351 235 322 235 q 400 215 379 235 q 421 164 421 194 q 398 110 421 133 q 344 88 375 88 q 304 99 322 88 q 288 106 293 106 l 283 106 q 282 96 282 101 q 294 67 282 79 q 369 35 319 43 q 408 31 393 31 q 614 114 513 31 l 676 165 q 843 300 768 244 q 849 304 846 301 q 738 258 790 274 q 636 242 686 242 q 568 256 600 242 q 513 292 536 269 q 476 347 489 315 q 464 415 464 379 q 480 506 464 464 q 517 579 496 547 q 419 628 460 594 q 379 679 394 650 q 364 744 364 708 q 400 858 364 810 q 489 935 436 906 q 603 978 542 964 q 711 993 664 993 q 892 960 821 993 q 900 947 900 956 q 899 940 900 943 l 889 922 q 876 915 885 915 q 872 917 874 915 q 740 938 808 938 q 611 919 668 938 q 482 856 533 897 q 438 802 456 832 q 421 738 421 772 q 464 658 421 692 q 547 622 494 636 q 674 742 596 682 q 844 851 753 801 q 1032 931 936 900 q 1210 963 1128 963 q 1281 946 1250 963 q 1308 921 1297 938 q 1319 881 1319 904 z "},"H":{"ha":989,"x_min":49,"x_max":1557,"o":"m 1499 928 q 1499 931 1499 931 q 1494 932 1499 932 q 1393 860 1471 932 q 1251 706 1335 803 q 1192 638 1201 649 q 1296 704 1240 665 q 1347 746 1314 717 q 1475 878 1431 818 q 1499 928 1499 908 m 1557 932 q 1481 793 1557 872 q 1325 663 1422 732 q 1185 578 1242 604 q 1148 560 1165 568 q 1113 542 1131 551 q 1068 488 1094 517 q 925 314 1008 419 q 754 74 800 156 q 738 33 739 46 q 865 106 768 35 q 996 210 917 143 q 1004 213 999 213 q 1014 208 1010 213 l 1029 192 q 1033 182 1033 188 q 1029 172 1033 176 q 879 51 958 108 q 803 3 843 26 q 715 -21 763 -21 q 644 15 667 -21 q 625 88 625 49 q 647 197 625 142 q 772 406 688 299 q 811 454 793 432 q 799 451 808 453 q 772 443 789 449 q 733 433 754 438 q 692 421 711 428 q 557 257 649 357 q 399 110 467 160 q 340 71 376 93 q 185 -7 260 19 q 115 -22 144 -22 q 67 -7 86 -22 q 49 38 49 8 q 77 118 49 76 q 145 198 106 160 q 225 265 185 236 q 372 360 307 325 q 449 399 410 379 q 651 613 540 519 q 883 792 761 707 q 889 796 886 793 q 797 778 839 778 q 726 792 756 778 q 669 824 696 807 q 617 853 643 840 q 564 867 592 867 q 515 856 536 867 q 475 825 493 844 q 447 783 457 806 q 438 740 438 760 q 445 708 438 719 q 465 689 453 697 q 528 674 490 674 q 633 701 583 674 q 717 769 682 728 q 726 775 721 775 q 736 772 732 775 l 750 763 q 756 753 756 758 q 754 744 756 747 q 662 654 719 689 q 538 619 604 619 q 438 647 479 619 q 401 684 415 661 q 386 739 386 707 q 415 832 386 790 q 487 901 444 874 q 579 944 529 929 q 673 960 629 960 q 751 944 717 960 q 813 912 785 929 q 864 881 840 894 q 911 867 888 867 q 1071 939 972 867 q 1118 972 1096 957 q 1126 975 1122 975 q 1135 972 1131 975 l 1153 960 q 1158 948 1158 956 q 1151 936 1158 940 q 1063 871 1101 906 q 1044 856 1063 871 q 995 812 1026 842 q 936 750 964 782 q 829 611 879 683 q 781 543 801 572 q 747 494 761 514 q 803 507 769 501 q 876 528 836 513 q 1047 699 957 618 q 1102 745 1068 717 q 1176 804 1136 774 q 1432 963 1335 924 q 1504 979 1472 979 q 1540 967 1524 979 q 1557 932 1557 954 m 104 36 q 117 26 104 26 q 215 94 149 26 q 276 163 247 125 q 382 306 335 238 q 331 275 363 294 q 213 188 276 243 q 121 83 153 136 q 104 36 104 57 z "},"I":{"ha":799,"x_min":-58,"x_max":1367,"o":"m 1367 953 q 1344 928 1367 933 q 1278 912 1292 915 q 1247 903 1264 908 q 1215 890 1231 899 q 1170 856 1199 881 q 1107 790 1142 831 q 950 560 1032 706 q 1067 631 1004 583 q 1113 667 1092 650 q 1121 669 1115 669 q 1131 665 1126 669 l 1143 651 q 1147 642 1147 647 q 1143 632 1147 636 q 969 514 1081 565 q 914 493 940 501 l 910 486 q 847 374 878 431 q 775 267 815 317 q 700 182 746 226 q 622 111 664 144 q 361 -4 519 26 q 183 -24 267 -24 q 36 -3 93 -24 q -30 37 -1 10 q -58 110 -58 64 q -48 156 -58 133 q -21 197 -37 179 q 19 224 -4 214 q 69 235 42 235 q 118 217 96 235 q 140 165 140 199 q 117 111 140 132 q 65 90 94 90 q 19 103 36 90 q 3 108 13 108 q 0 97 0 101 q 15 65 0 78 q 107 31 44 39 q 151 28 135 28 q 295 60 224 28 q 419 138 367 92 q 578 313 510 219 q 710 499 647 406 q 632 547 664 515 q 593 652 593 588 q 628 768 593 717 q 715 853 663 819 q 829 904 768 886 q 1086 939 935 932 q 1208 947 1149 942 q 1272 963 1240 950 q 1339 976 1303 976 q 1353 974 1346 976 q 1367 953 1367 968 m 1032 888 q 804 821 911 878 q 676 710 718 775 q 654 636 654 675 q 679 572 654 597 q 738 540 704 547 q 896 724 800 633 q 1135 894 1008 832 q 1032 888 1083 890 z "},"J":{"ha":635,"x_min":-206,"x_max":1215,"o":"m 1199 972 q 1215 949 1215 967 q 1193 924 1215 932 q 1124 907 1163 911 q 1100 904 1106 904 q 1008 849 1075 901 q 983 829 992 836 q 799 603 897 750 q 769 557 783 579 q 857 606 810 574 q 950 681 904 638 q 960 685 954 685 q 969 681 965 685 l 983 665 q 988 656 988 661 q 985 646 988 650 q 931 597 963 622 q 792 514 867 547 q 728 492 757 499 q 687 422 707 458 q 639 344 667 386 q 553 213 579 250 q 576 226 561 217 q 608 244 590 235 q 633 260 625 254 q 644 265 640 265 q 657 257 653 265 l 667 236 q 668 231 668 233 q 661 218 668 222 q 576 172 618 194 q 490 129 535 149 q 369 -8 438 60 q 224 -122 300 -75 q -31 -229 101 -196 q -112 -240 -76 -240 q -175 -225 -149 -240 q -206 -167 -206 -208 q -178 -90 -206 -125 q -107 -26 -150 -54 q -11 26 -64 3 q 258 115 106 78 q 360 258 306 188 q 507 456 458 386 q 536 496 521 476 q 456 546 488 515 q 415 656 415 585 q 457 783 415 726 q 558 869 499 839 q 679 915 618 900 q 935 943 790 940 q 1029 947 999 944 q 1060 949 1060 949 l 1071 949 q 1088 951 1081 949 q 1097 956 1094 954 q 1136 968 1110 961 q 1183 975 1163 975 q 1199 972 1189 975 m -151 -171 q -142 -187 -151 -183 q -112 -193 -126 -193 q -15 -164 -65 -193 q 81 -92 35 -135 q 167 -1 128 -49 q 208 50 189 26 q 14 -25 101 15 q -131 -124 -86 -72 q -151 -171 -151 -147 m 507 569 q 571 538 533 547 q 644 625 599 578 q 849 810 739 726 q 950 878 904 851 q 986 896 968 886 q 940 893 969 894 q 868 888 911 892 q 699 854 775 879 q 624 819 664 842 q 496 707 536 772 q 475 634 475 672 q 507 569 475 596 z "},"K":{"ha":1061,"x_min":53,"x_max":1564,"o":"m 1007 793 q 899 776 947 776 q 819 796 850 776 q 760 836 788 815 q 705 874 733 857 q 640 890 676 890 q 567 878 603 890 q 503 844 532 867 q 457 792 475 822 q 439 726 439 763 q 474 660 439 683 q 554 639 506 639 q 681 667 618 639 q 781 746 743 694 q 790 751 785 751 q 799 749 796 751 l 814 739 q 821 729 821 735 q 818 719 821 724 q 563 582 725 582 q 501 590 532 582 q 444 617 469 599 q 402 662 418 635 q 386 726 386 689 q 418 829 386 785 q 498 903 450 874 q 601 947 546 932 q 697 963 656 963 q 765 958 739 963 q 860 926 813 953 q 909 897 882 914 q 959 869 936 881 q 1008 858 982 858 q 1188 926 1078 858 q 1233 960 1215 943 q 1244 963 1238 963 q 1254 957 1250 963 l 1267 942 q 1269 933 1269 939 q 1263 922 1269 926 q 1040 724 1135 836 q 879 508 956 622 q 901 507 892 508 q 924 499 911 506 l 925 499 q 1008 544 965 499 q 1046 589 1028 565 q 1178 751 1108 675 q 1294 858 1231 808 q 1336 889 1311 871 q 1447 951 1392 929 q 1500 964 1476 964 q 1544 950 1524 964 q 1564 909 1564 936 q 1544 855 1564 882 q 1490 828 1524 828 q 1450 842 1468 828 q 1432 882 1432 857 q 1432 883 1432 882 q 1392 819 1406 846 q 1376 790 1378 793 q 1375 788 1375 788 q 1299 663 1339 721 q 1207 561 1258 604 q 978 458 1110 475 q 1006 424 994 442 q 1024 350 1024 392 q 1013 276 1024 308 q 943 161 993 219 q 871 79 892 101 q 839 36 850 57 q 838 33 838 35 q 840 32 839 32 l 846 32 q 924 71 858 38 q 988 110 956 88 q 1064 165 1029 138 q 1115 207 1108 204 q 1115 207 1115 207 q 1126 211 1119 211 q 1136 206 1132 211 l 1150 188 q 1153 178 1153 183 q 1147 168 1153 172 q 992 51 1060 94 q 899 0 946 21 q 813 -21 851 -21 q 742 15 765 -21 q 718 90 718 50 q 751 200 718 149 q 821 296 783 251 q 888 378 858 340 q 918 444 918 415 q 917 449 918 447 q 907 449 913 449 l 893 449 q 847 461 863 449 q 745 307 799 386 q 618 154 692 228 q 429 29 539 75 q 207 -19 314 -19 q 104 8 147 -19 q 67 47 82 24 q 53 99 53 71 q 63 151 53 128 q 90 191 74 174 q 129 219 107 208 q 178 231 151 231 q 228 211 206 231 q 250 160 250 192 q 227 107 250 129 q 174 85 204 85 q 133 94 150 85 q 114 101 122 101 q 113 90 113 94 q 139 50 113 67 q 193 33 165 33 q 288 64 240 33 q 380 139 336 94 q 462 233 424 183 q 543 342 500 283 q 647 477 586 400 q 781 624 708 554 q 890 715 835 675 q 1007 793 944 756 z "},"L":{"ha":953,"x_min":-39,"x_max":1454,"o":"m 786 258 m 1403 883 q 1395 906 1403 900 q 1372 913 1388 913 q 1301 890 1339 913 q 1147 749 1228 846 q 1011 567 1069 654 q 988 531 999 547 q 1070 564 1028 544 q 1154 610 1113 583 q 1315 733 1250 668 q 1378 808 1353 769 q 1403 883 1403 847 m 1454 886 q 1425 788 1454 836 q 1267 622 1372 699 q 1185 567 1221 589 q 949 468 1063 497 q 901 390 925 428 q 796 249 851 307 q 722 185 764 214 q 649 141 679 156 q 592 115 618 126 q 656 99 624 107 q 749 85 706 85 q 826 96 793 85 q 949 164 883 114 q 1004 211 978 188 q 1014 215 1008 215 q 1024 211 1019 215 l 1038 196 q 1042 186 1042 192 q 1038 176 1042 181 q 954 107 996 136 q 876 53 914 78 q 796 13 838 29 q 615 -24 711 -24 q 500 -12 554 -24 q 392 18 446 0 q 267 -15 326 -7 q 136 -22 208 -22 q 39 -13 72 -22 q -17 13 6 -4 q -39 63 -39 31 q -17 117 -39 94 q 88 175 21 154 q 136 188 117 183 q 232 196 183 196 q 375 178 306 196 q 510 138 444 160 q 583 226 553 175 q 639 322 614 278 q 711 447 683 406 q 610 460 668 450 q 496 497 553 469 q 399 572 439 525 q 360 693 360 619 q 383 794 360 747 q 444 876 407 840 q 529 938 482 913 q 794 1003 649 1003 q 997 969 903 1003 q 1007 957 1007 967 q 1003 938 1007 956 q 989 926 1000 926 q 985 926 988 926 q 811 950 906 950 q 560 893 668 950 q 435 774 472 847 q 415 690 415 738 q 449 594 415 632 q 535 535 483 557 q 643 506 586 514 q 746 497 700 497 q 863 653 801 581 q 1004 792 924 725 q 1081 849 1038 818 q 1269 944 1171 913 q 1367 961 1319 961 q 1426 942 1399 961 q 1454 886 1454 924 m 113 88 q 88 86 106 88 q 24 67 47 81 q 17 56 17 63 q 26 46 17 50 q 110 29 56 32 q 142 28 132 28 q 310 47 228 28 q 233 72 271 61 q 113 88 181 88 z "},"M":{"ha":1075,"x_min":-17,"x_max":1485,"o":"m 43 64 q 40 53 40 58 q 47 35 40 40 q 70 29 54 29 q 104 38 86 29 q 139 61 122 47 q 261 188 190 103 q 324 263 293 225 l 486 458 q 728 728 618 618 q 856 842 790 792 q 983 922 915 886 q 1129 958 1051 958 l 1147 958 q 1168 956 1157 958 q 1179 942 1179 953 q 1175 932 1179 936 q 990 725 1074 831 q 850 538 928 644 q 686 310 735 379 q 515 40 529 83 q 549 72 529 49 q 631 176 583 111 q 739 324 679 240 q 1004 664 875 514 q 1299 918 1160 842 q 1444 960 1374 960 l 1457 960 q 1474 958 1465 960 q 1485 944 1485 956 q 1481 935 1485 939 q 1391 826 1433 882 q 1293 692 1349 769 q 1044 321 1178 531 q 1023 289 1038 311 q 991 238 1008 267 q 954 176 974 208 q 885 32 885 54 q 886 32 885 32 q 921 44 896 32 q 1021 115 961 67 q 1067 156 1044 133 l 1125 211 q 1140 222 1131 222 q 1149 219 1146 222 l 1167 204 q 1172 194 1172 200 q 1168 183 1172 188 q 1108 125 1144 160 q 951 4 1026 46 q 871 -19 908 -19 q 821 -7 842 -19 q 772 68 783 15 q 767 115 767 92 q 788 232 767 175 q 913 439 828 336 q 986 526 950 485 q 1087 634 1036 582 q 1190 739 1138 686 q 1236 783 1214 761 q 1282 828 1258 806 q 1330 871 1310 854 q 1361 897 1350 888 q 1278 850 1324 881 q 1243 825 1257 836 q 1106 699 1176 775 q 965 539 1035 624 q 833 368 896 454 q 719 213 769 282 q 657 127 688 169 q 589 44 626 85 q 542 1 568 21 q 479 -18 515 -18 q 440 -7 456 -18 q 403 56 411 14 q 399 90 399 74 q 442 251 399 163 q 749 639 511 396 q 993 858 878 771 q 1030 885 1014 874 q 1050 900 1046 896 q 985 869 1019 890 q 729 657 868 801 q 500 393 606 525 q 437 315 453 333 q 368 232 421 296 q 275 123 297 147 q 226 69 253 99 q 121 -12 171 10 q 67 -24 94 -24 q 6 2 28 -24 q -17 64 -17 28 q -8 108 -17 86 q 46 179 7 156 q 92 193 67 193 q 137 178 117 193 q 157 134 157 163 q 137 78 157 106 q 83 51 117 51 q 53 60 65 51 q 43 64 47 64 m 1124 210 l 1124 210 l 1124 210 z "},"N":{"ha":924,"x_min":-17,"x_max":1486,"o":"m 1465 793 q 1437 765 1454 776 q 1395 754 1419 754 q 1351 771 1371 754 q 1331 815 1331 788 q 1349 859 1331 842 q 1393 876 1367 876 q 1408 875 1401 876 q 1421 874 1415 874 l 1421 874 q 1424 881 1424 878 q 1415 896 1424 890 q 1396 901 1407 901 q 1356 888 1376 901 q 1242 778 1304 854 q 1090 568 1176 699 l 1043 497 q 922 318 963 376 q 719 64 819 171 q 700 43 711 56 q 644 -8 674 10 q 613 -19 628 -19 q 597 -6 597 -19 q 600 3 597 -1 q 657 157 643 61 q 675 286 663 194 q 688 378 688 378 q 743 583 703 483 q 844 769 783 683 q 863 794 853 782 q 734 645 789 718 q 621 490 679 572 q 489 313 563 408 q 331 129 415 217 q 150 -4 239 32 q 76 -19 114 -19 q 10 3 38 -19 q -17 68 -17 25 q -8 113 -17 90 q 50 185 10 161 q 96 197 71 197 q 143 181 121 197 q 165 134 165 165 q 141 80 165 103 q 89 57 117 57 q 51 71 61 57 q 46 74 50 74 l 44 74 q 42 61 42 67 q 52 38 42 44 q 79 31 63 31 q 196 76 129 31 q 250 122 225 97 q 296 167 275 146 q 452 350 378 253 q 597 546 526 447 q 694 678 646 613 q 886 883 778 790 q 983 950 932 922 q 990 951 988 951 q 1004 938 1004 951 q 1001 931 1004 933 l 988 908 q 961 838 968 875 q 945 713 950 774 q 938 626 940 651 q 892 431 926 528 q 804 250 858 333 l 753 171 q 831 274 796 224 q 889 357 865 324 l 989 504 q 1094 661 1042 583 q 1244 854 1161 760 q 1342 936 1294 911 q 1401 951 1372 951 q 1463 928 1439 951 q 1486 865 1486 904 q 1465 793 1486 826 m 44 74 l 44 74 l 44 74 z "},"O":{"ha":843,"x_min":151,"x_max":1253,"o":"m 653 422 q 669 408 653 408 q 740 434 703 408 q 811 497 776 460 q 873 575 846 533 q 914 646 900 617 q 926 654 918 654 q 932 653 929 654 l 946 647 q 954 635 954 644 q 954 632 954 633 q 933 581 946 601 q 899 527 911 546 q 861 478 886 508 q 738 378 804 410 q 663 361 701 361 q 601 391 624 361 q 578 457 578 421 q 617 579 578 519 q 715 685 657 639 q 840 759 772 731 q 963 788 907 788 q 1049 757 1018 788 q 1081 674 1081 726 q 1060 567 1081 621 q 942 358 1019 460 q 875 276 900 303 q 658 82 768 161 q 524 9 596 38 q 374 -19 451 -19 q 281 1 322 -19 q 210 54 239 21 q 166 132 181 88 q 151 225 151 176 q 226 474 151 349 q 306 578 261 529 q 396 669 350 628 q 539 781 461 728 q 882 940 704 892 q 1064 965 975 965 q 1128 958 1094 965 q 1189 936 1161 951 q 1235 893 1217 921 q 1253 826 1253 865 q 1209 709 1253 757 q 1104 642 1165 661 q 1100 640 1103 640 q 1088 649 1090 640 l 1082 661 q 1081 667 1081 664 q 1088 679 1081 675 q 1166 741 1135 704 q 1197 832 1197 778 q 1164 890 1197 868 q 1092 911 1133 911 q 829 821 972 911 q 583 613 710 744 q 397 385 481 504 q 313 251 342 307 q 272 107 272 174 q 303 49 272 71 q 374 29 332 29 q 586 94 474 29 q 681 162 636 124 q 767 236 726 200 q 938 438 874 343 q 1005 556 978 496 q 1032 669 1032 615 q 1019 716 1032 697 q 979 735 1007 735 q 863 686 929 735 q 763 597 811 650 q 699 519 719 550 q 665 464 678 488 q 653 422 653 440 z "},"P":{"ha":1069,"x_min":39,"x_max":1382,"o":"m 1182 876 q 965 919 1096 919 q 808 905 888 919 q 658 863 729 890 q 551 806 610 842 q 442 726 492 771 q 360 626 393 681 q 328 514 328 572 q 357 451 328 472 q 428 429 386 429 q 532 452 481 429 q 630 510 583 475 q 716 590 676 546 q 783 676 756 635 q 872 844 839 757 q 885 853 875 853 q 908 847 886 853 q 918 833 918 844 q 918 831 918 832 q 868 708 907 781 q 800 596 840 656 q 549 390 694 442 q 435 371 496 371 q 324 408 374 371 q 275 517 275 446 q 290 600 275 561 q 386 742 321 679 q 447 797 415 771 q 689 927 556 885 q 961 969 822 969 q 1104 954 1032 969 q 1231 907 1183 938 q 1276 936 1251 922 q 1325 965 1300 950 q 1332 967 1328 967 q 1344 960 1340 967 l 1354 942 q 1356 933 1356 939 q 1349 924 1356 928 q 1306 897 1325 907 q 1272 876 1286 886 q 1343 803 1313 843 q 1382 686 1382 751 q 1353 564 1382 621 q 1278 465 1325 507 q 1173 400 1232 424 q 1051 376 1114 376 q 992 392 1021 376 q 960 449 960 408 q 967 488 960 469 q 907 388 943 447 q 817 256 871 329 q 697 128 764 183 q 580 53 642 82 q 458 7 518 24 q 246 -22 344 -22 q 117 -1 169 -22 q 62 38 85 13 q 39 104 39 63 q 49 152 39 129 q 76 192 60 175 q 115 221 93 210 q 165 232 138 232 q 213 211 192 232 q 233 160 233 190 q 210 108 233 129 q 156 86 188 86 q 119 96 135 86 q 101 101 110 101 l 99 101 q 97 90 97 96 q 110 64 97 75 q 185 33 135 42 q 222 31 208 31 q 360 63 294 31 q 483 145 425 94 q 590 256 542 196 q 679 372 639 317 q 719 429 699 400 q 763 490 739 458 q 868 619 804 544 q 976 726 919 676 q 1083 808 1029 774 q 1182 876 1136 843 m 1061 568 q 1074 558 1071 568 q 1082 533 1082 536 q 1074 521 1082 525 q 1033 491 1053 511 q 1013 449 1013 471 q 1017 436 1013 440 q 1032 432 1022 432 q 1075 450 1053 432 q 1114 483 1097 468 q 1204 619 1167 539 q 1243 776 1243 700 q 1228 840 1243 818 q 1169 786 1197 818 q 1014 565 1083 686 q 982 511 997 538 q 992 524 986 517 q 1056 567 1022 553 q 1061 568 1058 568 z "},"Q":{"ha":899,"x_min":151,"x_max":1253,"o":"m 1253 824 q 1210 707 1253 756 q 1104 639 1167 658 q 1100 639 1103 639 q 1088 647 1090 639 l 1082 661 q 1004 450 1078 574 q 833 231 942 346 q 742 144 786 181 q 665 83 699 107 q 699 48 679 67 q 747 29 719 29 q 792 40 769 29 q 882 106 840 65 q 918 142 903 125 q 928 146 922 146 q 936 143 933 146 l 953 129 q 958 119 958 125 q 954 108 958 113 q 813 -7 882 29 q 635 -50 731 -50 q 559 -39 590 -50 q 500 0 528 -28 q 442 -15 472 -8 q 376 -22 413 -22 q 282 -3 324 -22 q 211 50 240 17 q 167 127 182 83 q 151 221 151 171 q 179 369 151 299 q 350 624 232 506 q 593 814 458 732 q 903 944 749 907 q 1065 964 985 964 q 1189 935 1139 964 q 1235 891 1217 918 q 1253 824 1253 864 m 1031 667 q 1018 715 1031 692 q 981 733 1008 733 q 925 721 954 733 q 813 643 867 694 q 765 597 786 618 q 732 560 751 582 q 665 461 688 508 q 654 419 654 438 q 657 409 654 411 q 667 407 660 407 q 738 432 700 407 q 811 494 776 457 q 874 572 846 531 q 914 644 901 614 q 926 653 917 653 q 946 646 929 653 q 956 633 956 643 q 956 631 956 632 q 916 545 946 592 q 845 458 886 499 q 757 388 804 417 q 667 358 710 358 q 601 388 625 358 q 578 454 578 417 q 618 576 578 517 q 716 683 658 636 q 841 758 774 729 q 964 786 908 786 q 1051 756 1019 786 q 1082 674 1082 726 q 1089 679 1083 678 q 1129 703 1110 689 q 1189 779 1169 733 q 1197 824 1197 800 q 1165 889 1197 865 q 1083 910 1136 910 q 969 888 1031 910 q 739 753 854 846 q 644 672 686 710 q 496 511 585 618 q 292 196 343 328 q 274 108 274 147 q 303 46 274 63 q 379 28 336 28 q 431 33 410 28 q 474 44 453 38 q 461 76 467 58 q 446 111 456 94 q 428 135 436 128 q 403 142 421 142 q 360 128 385 142 q 318 101 336 115 q 308 99 314 99 q 297 106 301 99 l 288 122 q 286 131 286 125 q 292 140 286 136 q 461 201 371 201 q 632 125 574 201 q 778 244 707 175 q 857 331 813 279 q 1004 558 953 442 q 1031 667 1031 617 z "},"R":{"ha":1147,"x_min":25,"x_max":1404,"o":"m 944 968 q 1249 893 1140 968 q 1309 922 1278 907 q 1378 950 1340 938 q 1382 951 1379 951 q 1394 943 1390 951 l 1403 925 q 1404 919 1404 922 q 1394 906 1404 910 q 1343 883 1367 896 q 1308 865 1319 871 q 1293 858 1297 860 q 1350 792 1326 828 q 1381 683 1381 746 q 1355 574 1381 621 q 1288 494 1329 526 q 1192 443 1246 461 q 1064 418 1129 422 q 1096 297 1096 365 q 1068 196 1096 242 q 1018 126 1046 158 q 961 63 974 74 q 936 35 949 50 q 1063 104 969 40 q 1144 163 1106 133 q 1201 208 1183 193 q 1210 211 1204 211 q 1221 206 1217 211 l 1235 186 q 1238 177 1238 182 q 1233 168 1238 172 q 1168 113 1210 144 q 988 0 1075 40 q 904 -22 939 -22 q 833 9 857 -22 q 810 82 810 40 q 826 157 810 124 q 915 274 856 218 q 963 319 942 297 q 999 362 985 342 q 1013 401 1013 382 q 1011 415 1013 408 q 931 436 950 418 q 921 418 926 426 q 725 163 825 263 q 515 28 632 69 q 322 -15 428 -3 q 237 -21 274 -21 q 166 -17 200 -21 q 101 1 132 -12 q 47 40 69 15 q 25 106 25 65 q 35 154 25 131 q 101 224 56 201 q 153 235 125 235 q 203 215 182 235 q 224 165 224 196 q 202 111 224 135 q 150 88 181 88 q 110 99 126 88 q 88 106 99 106 q 86 97 86 101 q 131 47 86 65 q 214 32 167 32 q 353 67 286 32 q 479 158 419 103 q 590 276 539 213 q 693 408 640 339 q 813 557 746 476 q 964 707 881 638 q 1196 865 1099 817 q 1154 887 1181 876 q 1090 906 1128 897 q 951 918 1025 918 q 744 897 842 918 q 551 819 646 876 q 471 764 513 797 q 343 606 385 693 q 322 517 322 561 q 349 451 322 472 q 417 429 375 429 q 563 468 493 429 q 688 560 633 507 q 793 696 756 626 q 858 856 831 765 q 872 865 863 865 q 894 861 874 865 q 906 847 906 858 q 906 844 906 846 q 843 676 885 760 q 740 526 801 592 q 596 418 678 460 q 418 376 514 376 q 363 385 389 376 q 281 451 307 401 q 267 510 267 478 q 307 660 267 592 q 408 781 347 728 q 541 870 468 833 q 679 928 614 907 q 944 968 808 968 m 1231 785 q 1226 818 1231 804 q 1201 799 1213 808 q 1169 768 1189 789 q 1000 547 1081 674 q 963 486 982 517 q 964 486 963 486 q 1032 463 1000 486 q 1121 531 1072 472 q 1198 649 1165 582 q 1231 785 1231 717 z "},"S":{"ha":901,"x_min":4,"x_max":1451,"o":"m 1400 904 q 1396 913 1400 910 q 1382 917 1389 917 q 1315 894 1351 917 q 1240 835 1278 872 q 1167 751 1203 797 q 1040 571 1103 671 q 1021 540 1029 554 q 1117 594 1064 558 q 1219 672 1169 631 q 1269 718 1238 688 q 1381 850 1344 789 q 1400 904 1400 882 m 1428 954 q 1451 904 1451 940 q 1429 828 1451 868 q 1308 681 1385 751 q 1250 629 1275 649 q 1122 537 1192 581 q 979 471 1051 493 q 874 303 933 389 q 742 150 814 217 q 524 19 647 60 q 275 -21 401 -21 q 199 -16 243 -21 q 111 3 154 -11 q 36 47 68 18 q 4 127 4 76 q 43 214 4 178 q 133 250 82 250 q 188 231 165 250 q 210 179 210 213 q 188 124 210 146 q 135 103 167 103 q 106 108 118 103 q 68 132 86 117 l 65 133 l 64 133 q 62 128 64 133 q 60 117 60 122 q 78 79 60 96 q 126 52 97 63 q 187 37 156 42 q 238 32 218 32 q 388 67 319 32 q 515 158 456 103 q 624 281 574 214 q 735 434 728 424 q 746 449 743 444 q 585 476 693 450 q 583 476 583 476 q 515 507 549 488 q 413 614 443 549 q 396 689 396 649 q 419 793 396 746 q 478 877 442 840 q 562 940 515 914 q 657 982 608 965 q 832 1007 743 1007 q 1028 974 946 1007 q 1036 961 1036 971 q 1035 954 1036 957 l 1025 938 q 1013 931 1021 931 q 1010 931 1011 931 q 842 951 928 951 q 681 929 758 951 q 596 896 638 918 q 468 775 504 847 q 449 686 449 736 q 480 600 449 636 q 559 542 511 564 q 662 509 607 519 q 761 499 717 499 l 775 499 q 782 499 779 499 q 996 743 871 631 q 1267 933 1136 871 q 1320 955 1290 944 q 1379 965 1350 965 q 1428 954 1408 965 z "},"T":{"ha":876,"x_min":72,"x_max":1539,"o":"m 189 101 q 189 101 189 101 m 72 106 q 82 153 72 129 q 146 222 100 200 q 195 233 168 233 q 244 212 222 233 q 265 160 265 190 q 242 108 265 129 q 189 88 219 88 q 153 97 168 88 q 131 103 142 103 q 129 92 129 96 q 142 64 129 75 q 175 45 154 53 q 219 34 196 38 q 257 31 242 31 q 374 53 322 31 q 472 119 425 76 q 551 201 514 158 q 692 382 608 269 q 881 600 781 500 q 1013 714 943 663 q 1074 761 1044 738 q 1133 804 1104 785 q 980 831 1078 810 q 817 863 882 851 q 686 875 751 875 q 584 856 636 875 q 490 801 532 836 q 422 721 449 767 q 396 622 396 675 q 436 551 396 578 q 526 528 474 528 q 638 548 578 528 q 753 603 699 568 q 849 684 807 639 q 914 779 892 729 q 926 788 917 788 l 944 788 q 958 774 958 788 q 958 769 958 772 q 928 704 946 728 q 882 649 906 674 q 728 523 814 572 q 535 474 643 474 q 471 482 504 474 q 409 508 438 490 q 362 553 381 525 q 343 619 343 581 q 369 731 343 679 q 438 824 396 783 q 531 893 479 864 q 819 968 667 968 q 1003 958 913 968 q 1188 932 1094 947 q 1284 917 1236 925 q 1375 908 1332 908 q 1447 914 1418 908 q 1510 940 1476 919 q 1519 942 1513 942 q 1529 935 1525 942 l 1538 921 q 1539 913 1539 918 q 1533 903 1539 907 q 1509 888 1521 894 q 1472 868 1497 881 q 1292 804 1375 815 q 1224 800 1258 800 q 1161 801 1189 800 l 1169 793 q 1174 783 1174 789 q 1168 772 1174 776 q 1054 642 1118 738 q 965 488 1007 571 q 929 418 954 465 q 881 335 904 371 q 776 196 832 256 q 275 -21 574 -21 q 211 -17 244 -21 q 147 -1 178 -14 q 94 38 115 13 q 72 106 72 63 z "},"U":{"ha":1093,"x_min":317,"x_max":1547,"o":"m 1165 182 m 832 854 q 747 914 832 914 q 528 851 629 914 q 528 850 528 850 q 422 758 468 815 q 371 636 371 694 q 388 588 371 607 q 435 569 404 569 q 531 599 485 569 q 611 665 576 629 q 676 758 654 711 q 713 867 699 806 q 726 878 715 878 q 747 874 728 878 q 758 860 758 871 q 758 858 758 858 q 724 740 753 800 q 653 631 696 679 q 554 550 610 582 q 435 518 499 518 q 352 550 386 518 q 318 632 318 582 q 367 771 318 703 q 469 872 407 828 q 603 939 532 915 q 750 963 675 963 q 896 925 838 963 q 947 871 928 904 q 967 794 967 838 q 951 714 967 751 q 865 575 922 642 l 829 532 l 818 518 l 594 254 l 521 167 q 496 136 513 154 q 435 58 456 93 q 425 32 425 42 l 425 31 q 439 28 432 28 q 583 97 486 28 q 831 318 679 165 q 1099 621 990 478 q 1346 944 1346 944 q 1357 950 1350 950 l 1533 950 q 1547 936 1547 950 q 1544 928 1547 932 l 918 110 q 901 90 911 101 q 872 46 882 68 q 868 32 868 38 q 872 31 871 31 q 931 51 893 31 q 1008 101 968 71 q 1140 208 1064 142 q 1150 211 1144 211 q 1160 207 1156 211 l 1175 192 q 1179 182 1179 188 q 1175 172 1179 176 q 1094 103 1136 135 q 1015 45 1053 72 q 940 -1 976 18 q 858 -21 904 -21 q 784 16 811 -21 q 757 96 757 53 q 790 206 757 150 q 678 106 739 156 q 551 17 618 56 q 424 -22 483 -22 q 344 10 371 -22 q 317 91 317 43 q 339 185 317 139 q 456 351 376 265 q 514 419 489 389 l 733 674 q 832 854 832 792 m 425 31 l 425 31 l 425 31 m 521 167 l 521 167 l 521 167 z "},"V":{"ha":1083,"x_min":339,"x_max":1689,"o":"m 417 -19 l 382 -18 q 368 -4 368 -18 q 374 7 368 3 q 419 56 399 28 q 493 176 460 108 q 663 486 593 382 q 748 597 701 544 q 853 696 794 650 q 915 744 885 719 q 965 783 946 768 q 992 804 985 799 q 954 788 974 796 q 824 761 893 761 q 743 783 776 761 q 683 828 710 804 q 628 872 656 853 q 569 890 601 890 q 507 876 538 890 q 450 836 476 861 q 408 781 424 811 q 392 722 392 751 q 422 667 392 686 q 456 652 438 657 q 493 647 475 647 q 614 681 558 647 q 708 765 669 715 q 718 771 713 771 q 726 769 724 771 l 740 761 q 747 749 747 757 q 746 742 747 744 q 645 635 710 675 q 503 594 581 594 q 447 601 476 594 q 356 664 385 618 q 339 722 339 689 q 383 839 339 785 q 478 917 421 885 q 657 965 563 965 q 794 932 738 965 q 835 901 818 917 q 869 872 853 886 q 901 851 886 858 q 940 843 915 843 q 994 854 965 843 q 1101 918 1046 872 q 1149 958 1128 939 q 1158 961 1153 961 q 1168 957 1164 961 l 1183 942 q 1188 932 1188 938 q 1183 922 1188 926 q 1151 890 1168 906 l 1118 860 q 1028 751 1081 825 q 951 630 988 696 q 876 496 915 564 q 704 236 793 349 q 596 122 654 175 q 492 39 533 68 q 564 65 528 49 q 711 150 642 100 q 989 406 857 256 q 1178 629 1083 514 q 1332 804 1253 724 q 1513 947 1426 901 q 1599 972 1560 972 q 1664 951 1639 972 q 1689 892 1689 931 q 1665 824 1689 853 q 1601 796 1640 796 q 1556 813 1574 796 q 1538 858 1538 831 q 1553 900 1538 885 q 1593 919 1569 915 q 1449 843 1540 918 q 1365 764 1407 808 q 1204 581 1292 688 q 1010 351 1093 444 q 831 176 926 257 q 531 -1 669 43 q 417 -19 474 -19 z "},"W":{"ha":1249,"x_min":322,"x_max":1839,"o":"m 1754 979 q 1815 959 1790 979 q 1839 901 1839 939 q 1816 834 1839 864 q 1753 804 1793 804 q 1708 820 1729 804 q 1688 865 1688 836 q 1704 906 1688 893 q 1729 921 1717 917 q 1751 928 1742 925 q 1749 928 1750 928 q 1683 908 1719 928 q 1610 856 1647 889 q 1538 781 1574 822 q 1410 619 1468 703 l 1378 574 q 1269 418 1328 503 q 1147 258 1211 333 q 1010 119 1083 182 q 856 25 938 56 q 729 -7 801 4 q 694 -11 707 -11 q 657 -8 672 -11 q 646 6 646 -6 q 651 17 646 13 q 776 157 717 68 q 828 239 803 196 q 971 481 918 399 q 1226 775 1075 639 q 1382 903 1306 846 q 1340 882 1368 897 q 1274 840 1313 867 q 1189 772 1235 814 q 1101 683 1143 731 q 949 488 1029 601 q 878 385 913 436 q 722 188 800 272 q 572 60 660 119 q 438 -3 511 18 q 368 -12 401 -12 q 333 -10 351 -12 q 322 4 322 -7 q 329 15 322 13 q 369 53 349 29 q 440 164 408 101 q 489 256 468 217 q 551 371 551 371 q 818 694 649 551 q 943 793 879 746 q 867 769 897 776 q 811 763 836 763 q 731 784 764 763 q 671 829 699 806 q 616 872 643 853 q 554 890 589 890 q 500 876 528 890 q 449 840 472 863 q 413 789 426 817 q 399 733 399 761 q 425 678 399 697 q 486 660 451 660 q 594 685 547 660 q 685 754 642 711 q 694 758 689 758 q 703 756 699 758 l 715 747 q 721 738 721 743 q 719 729 721 732 q 626 636 682 669 q 499 603 569 603 q 443 610 471 603 q 361 675 388 626 q 347 732 347 699 q 376 833 347 789 q 450 906 406 876 q 547 950 494 935 q 641 965 599 965 q 733 953 683 965 q 813 914 782 942 q 865 867 840 888 q 926 846 890 846 q 1028 886 963 846 q 1079 922 1054 903 q 1124 954 1104 940 q 1133 957 1128 957 q 1142 953 1138 957 l 1154 939 q 1158 930 1158 935 q 1156 921 1158 925 q 1124 887 1143 904 q 1088 855 1104 869 q 1058 823 1072 840 q 1029 789 1043 806 q 946 671 983 732 q 872 547 908 610 q 775 389 824 465 q 456 51 639 174 q 493 68 475 58 q 688 225 590 118 q 849 431 769 317 q 903 509 869 461 q 972 602 936 557 q 1049 696 1007 647 q 1342 936 1206 876 q 1444 960 1394 960 q 1466 958 1457 960 q 1488 950 1475 957 q 1494 939 1494 946 q 1490 928 1494 932 q 1484 922 1486 924 q 1481 920 1482 921 q 1479 918 1481 919 q 1326 729 1397 850 q 1214 528 1275 643 q 1164 443 1192 485 q 975 199 1079 306 q 788 53 894 115 q 907 107 851 71 q 1069 245 996 165 q 1206 417 1143 325 q 1325 588 1269 508 q 1444 749 1383 669 q 1581 896 1506 829 q 1660 953 1615 928 q 1754 979 1704 979 m 1029 789 l 1029 789 l 1029 789 z "},"X":{"ha":971,"x_min":85,"x_max":1493,"o":"m 1442 899 q 1438 913 1442 910 q 1415 917 1428 917 q 1254 835 1354 917 q 971 535 1126 729 q 1128 607 1054 567 q 1139 613 1128 607 q 1250 679 1169 626 q 1382 788 1328 731 q 1442 899 1442 850 m 660 46 q 679 29 660 29 q 828 94 729 29 q 964 203 888 135 q 974 206 968 206 q 983 201 979 206 l 997 186 q 1001 176 1001 182 q 999 167 1001 171 q 960 132 981 147 q 921 101 940 117 q 815 28 854 51 q 741 -9 775 4 q 678 -22 707 -22 q 631 -10 649 -22 q 592 63 600 14 q 588 113 588 83 q 599 193 588 146 q 422 63 513 118 q 295 3 360 26 q 167 -21 231 -21 q 114 -7 139 -21 q 85 46 85 10 q 126 146 85 94 q 204 217 153 178 q 422 345 306 294 q 676 444 538 396 q 736 528 703 481 q 853 728 815 636 q 874 822 874 778 q 842 893 874 874 q 758 915 807 915 q 615 892 688 915 q 538 860 579 881 q 463 809 497 839 q 408 744 429 779 q 386 670 386 708 q 413 613 386 632 q 476 593 440 593 q 574 616 529 593 q 656 677 619 639 q 719 763 693 715 q 754 860 744 811 q 768 871 757 871 q 788 868 769 871 q 799 854 799 865 l 799 853 q 793 803 799 822 q 729 672 775 733 q 663 606 700 635 q 485 543 579 543 q 431 550 458 543 q 346 613 374 567 q 332 669 332 638 q 357 764 332 721 q 419 842 382 807 q 501 901 457 876 q 588 939 546 925 q 744 965 661 965 q 907 917 842 965 q 972 763 972 868 q 970 717 972 733 q 967 696 968 701 q 1053 774 997 726 q 1138 842 1110 821 q 1200 883 1165 863 q 1346 953 1271 929 q 1415 965 1385 965 q 1467 953 1444 965 q 1493 904 1493 938 q 1453 795 1493 849 q 1358 697 1413 742 q 1246 616 1304 651 q 1149 560 1188 581 q 915 461 1033 501 q 853 378 894 429 q 801 307 833 353 q 682 117 722 197 q 660 46 660 72 m 140 49 q 149 35 140 38 q 174 28 161 28 q 285 65 225 28 q 383 140 333 96 q 385 140 385 140 q 513 260 454 199 q 615 374 571 321 q 461 311 539 347 q 349 251 392 276 q 269 199 306 225 q 157 93 192 146 q 140 49 140 69 z "},"Y":{"ha":1072,"x_min":201,"x_max":1658,"o":"m 461 789 m 1063 189 l 1150 253 q 1158 254 1153 254 q 1168 249 1164 254 l 1181 231 q 1183 222 1183 226 q 1179 213 1183 217 q 1172 204 1172 206 q 1033 104 1106 147 q 888 21 961 61 q 767 -117 832 -50 q 551 -271 675 -207 q 381 -336 465 -315 q 299 -347 336 -347 q 238 -333 264 -347 q 211 -311 221 -326 q 201 -275 201 -296 q 226 -206 201 -237 q 276 -153 251 -174 q 469 -47 339 -99 q 578 -10 525 -26 q 675 18 631 6 l 915 324 q 894 305 911 321 q 835 253 878 289 q 649 129 733 168 q 551 107 597 107 q 476 141 504 107 q 447 221 447 175 q 457 285 447 256 q 483 343 467 314 q 572 457 521 404 q 735 617 693 576 q 817 706 776 658 q 888 797 858 753 q 918 869 918 842 q 886 906 918 894 q 822 915 861 915 q 658 888 742 915 q 510 813 575 860 q 471 779 490 797 q 408 694 429 743 q 399 646 399 671 q 420 607 399 621 q 468 593 442 593 q 572 618 518 593 q 672 683 625 643 q 756 772 719 724 q 811 865 792 819 q 824 874 814 874 q 843 869 825 874 q 853 856 853 867 q 853 851 853 854 q 797 739 836 794 q 706 640 758 683 q 593 571 654 597 q 469 544 532 544 q 386 571 425 544 q 347 649 347 597 q 389 764 347 706 q 475 850 422 811 q 636 934 547 904 q 817 964 725 964 q 949 929 897 964 q 992 881 976 911 q 1008 808 1008 851 q 986 690 1008 744 q 929 589 964 636 q 852 500 894 542 q 769 419 810 458 q 658 300 704 353 q 632 272 649 290 q 568 192 592 229 q 557 164 557 174 l 557 163 q 569 160 564 160 q 666 194 607 160 q 794 286 725 229 q 936 412 863 343 q 1075 549 1010 481 q 1193 674 1140 617 q 1364 854 1267 754 q 1454 943 1407 900 q 1464 946 1458 946 l 1644 944 q 1658 931 1658 944 q 1654 921 1658 925 q 1467 732 1557 831 q 1204 428 1322 574 l 1119 321 l 1024 197 q 968 124 996 161 q 1033 168 1003 144 l 1063 189 m 257 -276 q 260 -285 257 -282 q 271 -292 264 -289 q 301 -297 283 -297 q 390 -274 349 -297 q 465 -219 431 -251 q 624 -49 553 -142 q 514 -85 574 -65 q 389 -142 454 -106 q 349 -165 372 -151 q 269 -240 300 -197 q 257 -276 257 -258 m 557 163 l 557 163 l 557 163 z "},"Z":{"ha":1003,"x_min":-31,"x_max":1431,"o":"m 1022 763 m 242 8 m 235 169 q 447 158 353 169 q 563 297 494 204 q 656 435 601 350 l 650 435 q 582 428 611 435 q 519 400 553 421 q 510 397 517 397 q 500 404 504 397 l 490 421 q 489 429 489 424 q 493 439 489 435 q 597 498 546 483 q 711 514 649 513 q 854 656 775 596 q 982 747 917 703 q 902 749 938 744 q 838 763 867 754 q 732 797 781 778 q 630 839 682 818 q 525 860 578 860 q 472 849 497 860 q 428 822 447 839 q 399 781 410 806 q 389 733 389 757 q 399 694 389 708 q 464 656 421 665 q 504 651 485 651 q 624 682 572 651 q 721 763 675 713 q 730 767 725 767 q 739 764 735 767 l 750 756 q 756 746 756 751 q 754 738 756 740 q 709 680 736 706 q 649 636 682 654 q 508 600 581 600 q 451 607 481 600 q 396 630 421 614 q 354 670 371 646 q 338 731 338 694 q 371 833 338 789 q 452 904 404 876 q 556 947 500 932 q 656 961 611 961 q 733 956 701 961 q 856 915 794 946 q 914 884 885 900 q 963 857 943 868 q 1081 818 1019 828 q 1293 940 1194 907 q 1372 956 1335 956 q 1407 947 1388 956 q 1431 911 1431 935 q 1403 856 1431 878 q 1358 824 1379 836 q 1183 765 1274 779 q 1125 760 1153 760 l 1107 760 q 1096 760 1101 760 q 990 628 1035 699 q 904 489 944 558 q 917 489 914 489 q 974 494 951 489 q 1028 515 997 500 q 1035 517 1031 517 q 1044 511 1040 517 l 1053 500 q 1056 492 1056 496 q 1053 483 1056 488 q 958 422 1021 443 q 874 410 917 410 q 856 410 865 410 q 703 247 790 314 q 620 190 660 214 q 547 147 581 167 q 681 142 632 142 q 778 144 731 142 q 951 190 886 150 q 996 246 986 211 q 1010 256 1000 256 q 1033 251 1011 256 q 1044 238 1044 249 q 1044 233 1044 236 q 990 122 1026 169 q 903 43 953 75 q 794 -6 853 11 q 674 -22 735 -22 q 513 -6 590 -22 q 360 36 435 11 q 242 -5 306 13 q 115 -22 179 -22 q 32 -11 69 -22 q -12 11 7 -4 q -31 54 -31 26 q -8 101 -31 82 q 97 153 33 136 q 149 163 131 161 q 235 169 203 169 m 78 78 q 26 50 26 67 q 35 43 26 47 q 57 36 43 39 q 107 29 82 29 q 207 39 160 29 q 286 60 254 49 q 224 75 261 67 q 145 83 186 83 q 78 78 104 83 m 1157 811 q 1238 825 1194 813 q 1338 867 1293 842 q 1375 896 1363 881 q 1379 907 1379 901 q 1371 908 1374 908 q 1242 867 1321 908 q 1187 833 1207 847 q 1157 811 1167 818 z "},"[":{"ha":549,"x_min":-179,"x_max":1051,"o":"m 1051 986 l 790 986 l -179 -282 l 90 -282 l 132 -219 l -12 -219 l 863 921 l 1004 921 l 1051 986 z "},"\\":{"ha":1013,"x_min":315,"x_max":1013,"o":"m 1013 -292 l 418 986 l 315 986 l 910 -292 l 1013 -292 z "},"]":{"ha":549,"x_min":-265,"x_max":965,"o":"m 965 986 l 696 986 l 678 957 l 824 957 l -104 -254 l -246 -254 l -265 -282 l -4 -282 l 965 986 z "},"^":{"ha":694,"x_min":-118,"x_max":474,"o":"m 474 531 l 215 926 l 142 926 l -118 531 l -54 531 l 176 883 l 408 531 l 474 531 z "},"_":{"ha":694,"x_min":-169,"x_max":525,"o":"m 525 -160 l 525 -106 l -169 -106 l -169 -160 l 525 -160 z "},"`":{"ha":694,"x_min":365,"x_max":586,"o":"m 586 513 l 585 663 l 365 663 l 556 511 l 586 513 z "},"a":{"ha":631,"x_min":10,"x_max":756,"o":"m 458 35 q 462 35 460 35 q 467 37 464 35 q 478 43 471 39 q 672 196 585 111 q 683 200 676 200 q 693 194 689 200 l 707 178 q 710 169 710 175 q 706 160 710 164 q 557 36 635 94 q 497 -4 529 15 q 426 -24 465 -24 q 358 1 386 -24 q 329 67 329 25 q 332 97 329 83 q 190 -6 260 28 q 115 -24 151 -24 q 39 11 68 -24 q 10 90 10 46 q 26 174 10 133 q 69 249 43 214 q 128 314 96 285 q 192 364 160 343 q 321 433 251 406 q 465 460 390 460 q 517 450 492 460 q 547 404 546 439 l 574 439 q 585 444 578 444 l 742 444 q 756 431 756 444 q 753 422 756 426 q 510 108 513 110 q 499 94 508 106 q 464 44 481 71 l 458 35 m 497 399 q 456 381 483 399 q 397 339 428 364 q 338 290 365 314 q 299 253 311 265 q 258 210 286 240 q 150 76 196 143 q 131 35 131 47 q 133 32 131 33 q 136 31 135 31 q 247 92 167 31 q 272 110 267 106 q 278 115 278 115 q 456 306 379 199 q 497 393 489 350 q 499 396 497 394 l 499 397 q 499 399 499 399 q 497 399 499 399 m 458 35 l 458 33 l 457 35 q 458 35 457 35 l 458 35 z "},"b":{"ha":492,"x_min":14,"x_max":897,"o":"m 839 886 q 839 890 839 889 q 835 890 839 890 q 640 718 781 890 q 595 660 615 688 q 556 608 575 633 q 510 549 536 583 q 699 706 567 590 q 778 785 750 750 q 839 886 839 858 m 897 893 q 856 799 897 853 q 760 694 814 746 q 653 599 707 642 q 569 535 599 556 q 419 424 422 428 q 411 418 415 421 q 394 397 404 411 q 334 318 365 357 q 277 245 303 279 q 230 184 251 211 q 196 139 208 157 q 172 107 183 121 q 132 46 147 76 q 125 28 126 35 q 129 28 126 28 q 201 53 160 28 q 361 185 275 94 q 415 243 394 219 q 413 278 413 258 q 422 328 413 297 q 448 387 432 358 q 488 437 464 415 q 540 458 511 458 q 567 447 558 458 q 575 421 575 435 q 536 317 575 381 q 474 235 511 276 q 486 215 476 222 q 514 207 499 207 q 549 213 529 207 q 553 214 550 214 q 565 204 563 214 q 574 181 574 183 q 563 167 574 169 q 511 161 538 161 q 465 170 485 161 q 436 193 446 179 q 379 137 414 171 q 299 67 344 103 q 204 3 253 31 q 113 -24 156 -24 q 38 12 61 -24 q 14 92 14 47 q 49 213 14 146 q 117 315 72 260 q 432 667 251 492 q 530 756 476 711 q 622 831 583 801 q 847 939 767 939 q 883 927 868 939 q 897 893 897 915 z "},"c":{"ha":422,"x_min":14,"x_max":572,"o":"m 138 311 q 108 283 122 297 l 138 311 m 572 385 q 550 317 572 349 q 483 285 526 285 q 443 299 458 285 q 428 338 428 311 q 447 382 428 371 q 481 396 463 393 q 514 401 514 401 q 514 404 514 403 l 514 406 q 506 408 510 408 q 440 394 464 408 q 372 339 408 375 q 294 256 333 297 q 168 92 210 168 q 149 39 149 57 q 151 32 149 33 q 168 28 160 28 q 236 47 194 28 q 324 96 279 68 q 408 153 368 124 q 467 201 447 183 q 477 206 471 206 q 488 200 483 206 l 500 183 q 503 174 503 179 q 499 164 503 168 q 240 -3 361 46 q 144 -22 190 -22 q 94 -12 118 -22 q 25 54 47 8 q 14 104 14 78 q 31 185 14 146 q 128 321 61 261 q 190 369 160 349 q 325 436 253 411 q 472 461 397 461 q 536 449 507 461 q 572 385 572 433 z "},"d":{"ha":631,"x_min":13,"x_max":1079,"o":"m 499 394 q 497 400 499 399 q 493 400 497 400 q 464 385 488 400 q 463 385 463 385 q 310 261 381 332 q 267 215 296 247 q 154 76 193 133 q 133 33 135 47 q 138 32 136 32 q 192 52 157 32 q 267 106 226 72 q 350 182 308 139 q 479 342 438 271 q 499 394 499 375 m 499 400 q 499 400 499 400 q 499 400 499 400 m 908 864 l 1065 864 q 1079 850 1079 864 q 1076 842 1079 846 l 490 83 q 461 38 471 57 q 565 106 481 39 q 631 160 601 133 l 674 197 q 683 201 678 201 q 693 197 689 201 l 707 182 q 711 172 711 178 q 707 163 711 167 q 650 108 683 140 q 497 0 569 36 q 419 -21 456 -21 q 354 8 376 -21 q 332 74 332 36 q 335 99 332 86 q 194 -3 264 31 q 115 -21 154 -21 q 40 13 68 -21 q 13 90 13 47 q 59 233 13 165 q 173 351 106 300 q 319 433 240 403 q 467 463 399 463 q 518 451 492 463 q 550 406 549 439 l 897 858 q 908 864 901 864 m 501 97 l 501 97 l 501 97 z "},"e":{"ha":467,"x_min":18,"x_max":561,"o":"m 533 174 m 514 417 m 561 406 q 545 357 561 379 q 513 319 529 335 q 375 232 460 269 q 229 175 319 207 q 208 147 221 164 q 157 69 176 106 q 149 42 149 51 q 151 31 149 32 q 169 26 160 26 q 347 89 232 26 q 440 147 397 117 q 510 201 483 178 q 520 206 514 206 q 531 200 526 206 l 544 182 q 547 172 547 178 q 543 163 547 167 q 501 132 522 146 q 317 18 382 49 q 153 -25 225 -25 q 56 8 94 -25 q 18 103 18 42 q 68 251 18 179 q 181 358 110 311 q 321 431 244 404 q 478 458 397 458 q 525 451 508 458 q 551 434 542 444 q 561 406 561 424 m 503 407 q 447 383 482 407 q 376 328 413 360 q 297 250 336 293 q 349 274 324 261 q 440 329 410 307 q 506 406 506 375 q 503 407 506 407 z "},"f":{"ha":346,"x_min":-354,"x_max":893,"o":"m 826 911 q 775 881 810 911 q 697 803 740 851 q 522 582 622 721 q 471 510 494 543 q 806 849 722 726 q 831 906 831 885 l 829 911 q 826 911 829 911 m 49 199 q 42 235 42 218 q 53 281 42 267 q 84 311 68 299 q 113 335 100 324 q 150 365 139 358 q 168 380 161 372 q 186 402 175 388 q 208 431 197 417 q 476 726 343 599 q 547 790 503 751 q 744 929 658 885 q 840 957 799 957 q 876 944 860 957 q 893 907 893 932 q 872 846 893 882 q 817 770 850 810 q 744 690 783 731 q 665 613 704 650 q 538 501 596 547 q 383 378 386 379 q 370 367 379 375 q 361 358 361 358 l 224 172 q 248 171 233 171 q 285 176 263 171 q 331 188 307 181 q 410 225 375 201 q 418 228 414 228 q 431 219 428 228 l 439 199 q 440 193 440 196 q 435 182 440 186 q 343 139 396 156 q 243 122 290 122 q 192 129 218 122 l -168 -365 q -179 -371 -172 -371 l -340 -369 q -354 -356 -354 -369 q -351 -347 -354 -351 l 49 199 z "},"g":{"ha":628,"x_min":-211,"x_max":749,"o":"m 499 399 q 499 401 499 401 q 496 401 499 401 q 421 363 476 401 q 258 218 336 303 q 171 110 207 163 q 140 58 143 68 q 151 56 146 56 q 168 61 156 56 q 220 88 200 75 q 247 106 240 100 q 318 160 275 124 q 401 240 361 197 q 470 326 442 283 q 499 399 499 369 m -137 -312 q -133 -319 -137 -317 q -119 -324 -126 -324 q -37 -294 -81 -324 q 124 -137 38 -243 q 178 -71 154 -99 q 8 -158 96 -104 q -119 -265 -78 -210 q -137 -312 -137 -289 m 181 124 q 181 124 181 124 l 181 124 m 582 444 l 735 444 q 749 431 749 444 q 746 422 749 426 l 499 100 q 547 126 517 110 q 644 190 594 151 q 679 208 661 203 q 683 210 681 210 q 694 204 690 210 l 706 188 q 708 178 708 183 q 703 168 708 172 q 432 17 589 85 q 297 -153 367 -71 q 128 -294 226 -235 q 8 -351 74 -329 q -122 -374 -57 -374 q -175 -364 -151 -374 q -201 -345 -190 -357 q -211 -314 -211 -333 q -185 -240 -211 -276 q -25 -114 -135 -175 q 164 -21 76 -57 q 229 6 203 -6 l 279 69 q 240 42 263 57 q 185 16 217 28 q 122 4 154 4 q 47 38 75 4 q 19 114 19 72 q 124 318 19 219 q 181 365 153 346 q 315 435 243 408 q 464 463 386 463 q 515 453 490 463 q 547 408 544 442 l 571 439 q 582 444 575 444 z "},"h":{"ha":597,"x_min":-106,"x_max":888,"o":"m 828 885 q 828 887 828 886 q 824 888 828 888 q 701 800 785 888 q 493 533 619 713 q 663 668 581 596 q 806 825 761 756 q 828 885 828 860 m 888 888 q 850 797 888 854 q 706 636 797 717 q 503 478 599 544 q 406 413 451 442 l 376 374 q 415 403 390 386 q 474 436 439 419 q 545 453 508 453 q 605 426 582 453 q 628 365 628 400 q 617 304 628 331 q 556 211 599 258 q 524 175 529 182 q 428 64 494 144 q 403 31 411 44 l 417 38 l 475 69 q 601 164 521 94 q 635 194 622 182 q 644 199 639 199 q 654 194 650 199 l 669 178 q 674 168 674 174 q 669 158 674 163 q 626 119 650 138 q 533 47 560 67 q 422 -15 475 4 q 360 -28 392 -28 q 295 -2 319 -28 q 271 63 271 24 q 285 125 271 94 q 360 232 313 181 q 393 269 381 256 q 424 301 406 283 q 493 382 471 351 l 503 396 q 425 350 481 390 q 304 251 375 314 q 256 207 276 228 q 228 178 236 186 q 140 63 194 135 q 85 -8 85 -8 q 74 -14 81 -14 l -92 -14 q -106 0 -106 -14 q -103 8 -106 4 l 233 446 q 400 639 317 554 q 482 720 429 669 q 596 818 535 771 q 719 901 657 865 q 831 936 782 936 q 867 926 851 936 q 888 888 888 915 z "},"i":{"ha":293,"x_min":-7,"x_max":550,"o":"m 506 550 m 357 172 m 550 621 q 516 541 550 575 q 436 507 482 507 q 377 531 403 507 q 351 589 351 556 q 361 631 351 610 q 419 690 379 671 q 463 700 440 700 q 522 679 494 700 q 550 621 550 658 m 122 35 q 163 56 132 35 q 228 105 193 76 q 294 160 264 133 q 335 197 324 186 q 345 201 339 201 q 356 196 351 201 l 368 181 q 371 172 371 178 q 368 164 371 167 q 293 93 350 142 q 211 31 263 68 q 154 -5 185 13 q 88 -22 124 -22 q 18 4 43 -22 q -7 76 -7 31 q 13 156 -7 122 q 58 222 33 190 q 226 439 226 438 q 238 444 231 444 l 401 444 q 415 431 415 444 q 413 422 415 426 q 156 88 161 93 q 125 46 140 68 q 121 36 121 36 l 121 35 q 122 35 121 35 m 121 36 l 121 36 l 121 36 m 171 107 l 171 107 l 171 107 z "},"j":{"ha":286,"x_min":-421,"x_max":543,"o":"m 500 547 m 339 194 m 543 618 q 509 538 543 572 q 429 504 475 504 q 369 528 396 504 q 343 586 343 553 q 353 628 343 607 q 413 688 371 668 q 456 697 433 697 q 515 676 488 697 q 543 618 543 656 m -357 -315 q -356 -322 -357 -318 q -308 -296 -336 -322 q -203 -156 -257 -244 q -186 -129 -193 -142 q -332 -260 -281 -193 q -357 -315 -357 -290 m 236 444 l 401 444 q 415 431 415 444 q 413 422 415 426 l 168 106 l 332 206 q 341 208 335 208 q 351 201 347 208 l 361 185 q 363 176 363 182 q 356 167 363 169 l 93 3 q 11 -110 53 -56 q -137 -264 -56 -197 q -286 -351 -208 -321 q -364 -368 -326 -368 q -403 -355 -386 -368 q -421 -318 -421 -342 q -412 -276 -421 -294 q -197 -71 -360 -162 q -125 -33 -161 -51 q -76 44 -103 7 q -19 121 -49 82 q 225 439 225 439 q 236 444 229 444 z "},"k":{"ha":606,"x_min":-108,"x_max":903,"o":"m 567 411 q 571 403 571 410 l 567 411 m 456 40 m 838 899 m 840 881 q 840 885 840 883 q 838 885 840 885 q 783 858 817 885 q 714 794 750 832 q 647 719 678 757 q 603 663 617 682 q 521 556 563 610 q 654 658 582 599 q 701 701 669 672 q 819 831 781 774 q 840 881 840 861 m 335 224 l 310 221 q 296 235 296 221 q 297 239 296 238 q 165 92 232 178 q 89 -8 140 58 q 78 -14 85 -14 l -94 -14 q -108 0 -108 -14 q -106 8 -108 4 l 188 383 q 413 642 300 531 q 568 783 483 713 q 758 911 667 865 q 850 936 810 936 q 886 925 869 936 q 903 892 903 914 q 874 810 903 854 q 704 633 821 729 q 436 439 599 547 q 425 431 433 436 l 372 364 q 508 438 440 411 q 589 453 549 453 q 638 440 617 453 q 664 390 664 426 q 638 326 664 353 q 583 283 611 300 q 482 249 535 257 q 435 242 458 244 q 446 235 440 239 q 478 167 478 213 q 465 117 478 140 q 417 40 444 75 l 414 35 l 450 53 q 494 81 465 60 q 558 127 551 121 q 574 141 565 133 q 604 167 583 149 q 647 200 625 186 q 656 201 650 201 q 665 196 661 201 l 681 178 q 683 169 683 175 q 679 160 683 164 q 642 128 660 142 l 554 60 q 432 -15 492 10 q 364 -29 399 -29 q 301 -3 329 -29 q 272 61 272 22 q 285 122 272 94 q 314 172 299 150 q 342 210 329 193 q 350 222 347 218 q 335 224 343 224 m 554 400 q 549 399 550 400 q 535 394 547 399 q 488 374 513 386 q 450 354 464 363 q 332 271 382 313 q 385 285 353 274 q 451 317 417 297 q 513 360 486 338 q 554 400 540 382 z "},"l":{"ha":328,"x_min":8,"x_max":903,"o":"m 839 903 q 850 899 846 903 l 839 903 m 903 892 q 869 811 903 858 q 679 608 806 719 q 457 424 553 496 q 371 364 392 375 q 356 349 363 358 q 329 312 350 339 q 272 238 308 285 q 200 144 236 192 q 156 86 168 104 q 124 33 128 47 q 172 54 144 35 q 294 143 242 103 q 386 219 347 183 q 396 224 390 224 q 406 219 401 224 l 421 203 q 425 193 425 199 q 421 183 425 188 q 222 26 338 107 q 166 -8 194 6 q 101 -22 138 -22 q 32 7 56 -22 q 8 78 8 36 q 35 182 8 126 q 171 385 79 278 q 240 464 210 432 q 406 639 303 536 q 753 910 606 836 q 854 939 810 939 q 886 929 875 939 q 903 892 903 917 m 839 889 q 797 872 822 889 q 744 828 771 854 q 695 777 718 803 q 651 724 672 751 q 599 657 629 697 q 479 507 517 553 q 507 532 483 511 q 558 574 531 553 q 610 618 585 596 q 665 669 635 640 q 826 849 786 782 q 842 888 842 872 q 839 889 842 889 z "},"m":{"ha":910,"x_min":-107,"x_max":990,"o":"m 586 69 q 611 153 586 115 q 703 268 642 201 q 755 323 729 296 q 791 363 781 350 q 804 378 801 375 q 813 390 807 382 q 821 401 819 397 q 721 342 793 394 q 698 324 703 328 q 693 319 693 319 q 535 166 606 249 q 394 -8 464 83 q 383 -14 390 -14 l 221 -14 q 207 0 207 -14 q 210 8 207 4 q 468 344 465 343 q 485 367 472 349 q 506 397 503 390 q 481 387 499 396 q 443 363 464 378 q 378 310 417 343 q 197 133 304 244 q 128 47 160 93 q 89 -8 89 -8 q 78 -14 85 -14 l -93 -14 q -107 0 -107 -14 q -104 8 -107 4 l 228 439 q 239 444 232 444 l 393 444 q 407 431 407 444 q 404 422 407 426 l 349 350 q 399 390 368 367 q 473 435 431 414 q 553 457 515 457 q 611 434 590 457 q 632 375 632 411 q 624 324 632 346 q 779 435 706 399 q 860 457 822 457 q 921 432 897 457 q 944 369 944 407 q 911 267 944 317 q 881 226 897 246 q 855 197 864 207 q 844 186 846 188 q 797 132 835 175 q 728 50 736 61 q 718 36 719 39 q 771 60 733 38 q 771 61 771 61 q 860 122 818 85 q 946 193 901 160 q 949 194 946 193 q 962 201 956 201 q 972 197 968 201 l 986 182 q 990 172 990 178 q 986 163 990 167 q 963 142 975 150 q 946 128 951 133 q 928 114 940 124 q 885 81 915 104 q 749 -6 813 22 q 674 -22 711 -22 q 611 4 636 -22 q 586 69 586 31 z "},"n":{"ha":600,"x_min":-107,"x_max":676,"o":"m 389 28 q 389 28 389 28 m 363 -29 q 297 -2 319 -29 q 275 65 275 25 q 318 176 275 115 q 357 224 336 201 q 386 256 378 246 q 397 267 394 265 q 418 290 399 269 q 496 379 463 339 l 507 394 q 482 385 499 393 q 444 363 465 376 q 375 311 400 333 q 222 160 292 242 q 82 -8 153 78 q 71 -14 78 -14 l -93 -14 q -107 0 -107 -14 q -104 8 -107 4 l 228 439 q 239 444 232 444 l 396 444 q 410 431 410 444 q 407 422 410 426 l 361 361 q 546 451 475 451 q 609 424 588 451 q 631 360 631 396 q 596 258 631 311 q 565 216 582 236 q 539 187 547 196 q 528 176 531 178 q 507 150 526 174 q 419 47 456 93 q 407 31 411 36 q 517 94 435 33 q 583 147 551 121 q 635 189 631 188 q 648 196 642 196 q 658 192 654 196 l 672 176 q 676 167 676 172 q 672 157 676 161 q 610 103 649 135 q 443 -8 526 32 q 363 -29 399 -29 z "},"o":{"ha":474,"x_min":15,"x_max":560,"o":"m 481 229 q 515 218 493 218 q 531 220 525 218 q 540 222 538 222 q 554 211 551 222 q 560 186 560 188 q 550 174 560 176 q 514 167 533 167 q 449 188 476 167 q 394 126 426 161 q 320 57 363 90 q 231 0 278 24 q 138 -24 185 -24 q 49 10 82 -24 q 15 99 15 43 q 31 181 15 140 q 126 319 60 256 q 188 371 157 349 q 310 437 246 413 q 447 461 374 461 q 535 431 510 461 q 546 394 546 417 q 539 347 546 371 q 497 257 525 303 q 481 229 488 242 m 419 231 q 413 264 413 247 q 436 336 413 303 q 496 378 460 369 q 497 391 497 385 q 494 401 497 397 q 492 401 494 401 q 440 380 474 401 q 366 323 407 358 q 283 243 325 288 q 153 78 196 151 q 133 29 133 44 q 137 26 133 28 q 144 25 140 25 q 216 47 175 25 q 297 103 257 69 q 369 171 338 136 q 419 231 401 206 m 496 401 q 496 401 496 401 q 496 401 496 401 z "},"p":{"ha":601,"x_min":-382,"x_max":683,"o":"m 371 -22 q 304 4 329 -22 q 279 71 279 31 q 315 171 279 121 q 373 243 342 208 q 422 297 404 278 q 452 330 439 315 q 480 360 465 344 q 507 392 494 376 l 514 403 q 510 403 513 403 q 500 399 508 403 q 401 333 446 372 q 303 247 356 294 q 199 138 250 199 q 99 13 147 76 q -192 -365 -1 -118 q -203 -371 -196 -371 l -368 -368 q -382 -354 -382 -368 q -379 -346 -382 -350 l 229 439 q 240 444 233 444 l 396 444 q 410 431 410 444 q 407 422 410 426 l 364 367 q 390 388 376 378 q 470 438 429 417 q 550 460 511 460 q 613 434 589 460 q 638 372 638 408 q 623 303 638 335 q 588 244 608 271 q 543 192 567 217 q 510 156 519 167 q 499 143 500 144 q 483 125 497 142 q 436 68 457 96 q 413 36 415 40 q 529 104 439 39 q 599 160 567 132 q 646 199 632 188 q 656 203 650 203 q 665 199 661 203 l 679 183 q 683 174 683 179 q 679 164 683 168 q 626 116 654 138 q 568 72 597 94 l 526 42 q 425 -12 475 6 q 371 -22 399 -22 z "},"q":{"ha":647,"x_min":-32,"x_max":761,"o":"m 501 396 q 500 399 501 399 q 464 383 489 399 q 361 304 424 360 l 326 274 q 240 183 282 231 q 164 85 197 136 q 163 83 164 85 q 157 72 161 81 q 142 46 146 56 q 138 32 138 35 q 143 31 142 31 q 179 43 158 31 q 208 60 200 56 q 215 65 215 65 q 292 123 243 81 q 388 217 340 165 q 468 317 435 268 q 501 396 501 367 m 586 444 l 747 444 q 761 431 761 444 q 758 422 761 426 l 449 21 q 490 49 461 29 q 626 153 538 82 q 693 201 660 181 q 701 203 696 203 q 711 197 707 203 l 724 181 q 726 171 726 176 q 719 161 726 165 q 644 106 681 135 q 535 22 588 58 q 490 -8 503 0 q 444 -42 483 -14 q 393 -76 404 -69 q 350 -110 372 -92 l 154 -365 q 143 -371 150 -371 l -18 -371 q -32 -357 -32 -371 q -29 -349 -32 -353 l 279 49 q 174 -11 228 10 q 115 -24 143 -24 q 39 14 64 -24 q 14 92 14 51 q 26 168 14 133 q 156 335 60 258 q 301 424 222 389 q 469 460 381 460 q 518 450 493 460 q 550 406 549 439 l 575 439 q 586 444 579 444 z "},"r":{"ha":465,"x_min":-108,"x_max":636,"o":"m 622 429 q 622 429 622 429 m 594 451 q 636 429 636 451 q 631 416 636 422 q 614 399 626 410 q 554 335 581 369 q 543 310 543 321 l 554 311 q 568 297 568 311 q 563 271 568 296 q 551 260 560 263 q 509 256 531 256 q 461 263 488 256 q 421 288 435 269 l 101 17 q 91 4 99 14 q 83 -6 83 -6 q 71 -14 79 -14 l -94 -14 q -108 0 -108 -14 q -106 8 -108 4 l 226 439 q 238 444 231 444 l 403 444 q 417 431 417 444 q 414 422 417 426 l 249 207 l 408 339 q 447 414 415 376 q 501 448 475 444 q 564 451 528 451 l 575 451 l 594 451 z "},"s":{"ha":431,"x_min":1,"x_max":457,"o":"m 375 413 m 347 439 q 397 524 365 496 q 428 536 411 536 q 450 526 443 536 q 457 504 457 517 q 449 476 457 492 q 389 411 426 439 q 397 375 389 394 q 421 304 400 368 q 433 226 433 269 q 414 147 433 185 q 296 31 378 76 q 94 -24 201 -24 q 30 -5 58 -24 q 1 57 1 14 q 22 121 1 92 q 83 150 44 150 q 125 135 108 150 q 142 93 142 118 q 131 56 142 71 q 122 43 126 49 q 193 104 126 38 q 258 175 258 175 q 324 360 331 269 l 117 197 q 107 194 113 194 q 97 200 101 194 l 82 218 q 79 228 79 221 q 85 238 79 233 l 347 439 z "},"t":{"ha":317,"x_min":-7,"x_max":656,"o":"m 475 747 l 642 747 q 656 733 656 747 q 653 725 656 729 l 500 528 l 581 528 q 594 514 594 528 q 592 506 594 510 l 576 483 q 565 478 572 478 l 463 478 q 161 90 163 90 q 153 79 160 89 q 139 60 146 69 q 122 36 128 44 q 166 56 135 38 q 234 100 197 74 q 304 153 271 126 q 361 200 338 179 q 371 204 365 204 q 381 200 376 204 l 394 185 q 399 174 399 181 q 393 164 399 168 q 331 113 368 143 q 164 0 239 38 q 85 -22 119 -22 q 15 6 38 -22 q -7 76 -7 35 q 24 169 -7 124 q 51 210 36 190 l 79 246 l 261 479 l 201 479 q 188 493 188 479 q 190 501 188 497 l 207 525 q 218 531 211 531 q 300 529 258 531 l 464 742 q 475 747 468 747 z "},"u":{"ha":600,"x_min":1,"x_max":721,"o":"m 665 174 m 539 444 l 707 444 q 721 431 721 444 q 718 422 721 426 l 465 93 q 454 79 463 89 q 424 36 433 54 q 426 38 425 38 q 428 39 428 39 q 574 139 511 81 q 608 171 590 154 q 643 200 625 188 q 652 203 647 203 q 661 199 657 203 l 675 183 q 679 174 679 179 q 675 164 679 168 q 614 110 650 142 q 461 0 535 38 q 381 -22 418 -22 q 319 1 344 -22 q 293 64 293 25 q 294 90 293 78 q 165 -4 229 29 q 97 -22 129 -22 q 26 9 50 -22 q 1 82 1 40 q 12 142 1 114 q 38 193 22 169 q 106 285 63 231 q 165 362 135 324 q 224 439 194 400 q 235 444 228 444 l 401 444 q 415 431 415 444 q 413 422 415 426 l 182 121 q 167 101 178 115 q 126 46 142 72 l 119 31 q 165 54 133 33 q 228 98 200 75 q 281 144 256 121 q 350 213 319 179 q 409 283 381 247 q 466 358 438 319 q 528 439 494 396 q 539 444 532 444 m 465 93 l 465 93 l 465 93 z "},"v":{"ha":474,"x_min":-3,"x_max":561,"o":"m 144 101 m 401 246 q 399 278 399 268 q 408 331 399 301 q 434 390 418 361 q 473 440 450 418 q 525 461 496 461 q 552 450 543 461 q 561 419 561 439 q 549 372 561 400 q 461 236 519 303 q 472 218 463 225 q 501 210 485 210 q 536 215 517 210 q 540 217 538 217 q 554 207 551 217 q 560 183 560 185 q 550 169 560 172 q 496 163 522 163 q 424 194 449 163 q 190 3 308 61 q 97 -22 140 -22 q 22 9 46 -22 q -3 86 -3 40 q 28 181 -3 125 q 83 260 50 218 l 222 439 q 233 444 226 444 l 399 444 q 413 431 413 444 q 410 422 413 426 q 154 91 156 92 q 146 81 153 90 q 131 60 139 71 q 113 33 115 39 q 115 31 113 32 q 120 29 117 29 q 135 33 124 29 q 158 44 146 38 q 254 101 213 69 q 364 201 315 150 q 401 246 386 225 z "},"w":{"ha":783,"x_min":-3,"x_max":865,"o":"m 410 18 m 444 94 m 150 106 m 704 244 q 703 274 703 258 q 728 374 703 325 q 764 424 747 407 q 828 458 799 458 q 855 447 844 458 q 865 416 865 436 q 853 369 865 396 q 767 235 822 300 q 804 210 772 210 q 839 215 822 210 q 843 215 840 215 q 857 206 853 215 q 863 183 863 186 q 856 172 863 175 q 832 161 843 163 q 807 160 821 160 q 760 169 781 160 q 728 192 739 178 q 669 130 703 165 q 590 59 635 94 q 495 0 544 24 q 400 -24 446 -24 q 324 1 354 -24 q 294 72 294 26 q 296 94 294 83 q 274 75 292 90 q 224 35 257 60 q 156 -6 190 11 q 89 -24 121 -24 q 19 10 42 -24 q -3 83 -3 43 q 29 182 -3 132 q 58 224 43 204 q 88 263 74 243 l 222 439 q 233 444 226 444 l 399 444 q 413 431 413 444 q 410 422 413 426 q 132 58 138 67 q 117 32 124 46 q 118 32 117 32 q 139 39 125 32 q 169 56 153 46 q 222 94 206 81 q 383 257 313 167 q 525 439 454 347 q 536 444 529 444 l 703 444 q 717 431 717 444 q 714 422 717 426 l 456 86 q 446 72 453 82 q 421 38 428 50 l 418 29 q 422 28 419 28 q 488 53 438 28 q 606 140 533 75 q 704 244 654 185 m 456 86 l 456 86 l 456 86 m 161 97 l 161 97 l 161 97 z "},"x":{"ha":594,"x_min":-17,"x_max":722,"o":"m 471 376 q 651 457 574 457 q 703 438 685 457 q 722 385 722 418 q 699 313 722 346 q 669 285 686 296 q 629 274 651 274 q 590 286 607 274 q 574 325 574 299 q 581 354 574 340 q 511 276 544 319 q 465 218 478 233 q 394 121 415 151 q 342 31 342 47 l 342 28 q 346 28 343 28 q 412 49 369 28 q 500 100 454 71 q 588 161 546 129 q 649 211 629 193 q 659 215 653 215 q 669 208 665 215 l 682 189 q 685 181 685 186 q 679 171 685 175 q 614 119 656 151 q 428 1 507 39 q 344 -22 378 -22 q 275 13 296 -22 q 262 40 265 28 q 257 60 258 53 q 183 15 222 36 q 56 -24 107 -24 q 3 -7 24 -24 q -17 44 -17 10 q -10 86 -17 65 q 42 153 6 129 q 83 164 61 164 q 123 151 104 164 q 142 115 142 139 q 128 68 142 92 q 121 60 125 64 q 161 97 135 72 l 193 133 q 272 229 225 169 q 339 319 318 289 q 386 407 386 388 q 379 408 382 408 q 289 371 346 408 q 207 304 243 340 q 151 247 174 267 q 142 243 147 243 q 133 246 136 243 l 115 261 q 110 272 110 265 q 113 281 110 278 q 167 339 136 308 q 307 440 238 410 q 385 458 347 458 q 447 436 424 458 q 471 376 471 414 m 161 97 q 161 97 161 97 l 161 97 m 40 51 q 35 36 35 51 q 39 28 35 32 q 54 22 44 22 q 100 47 71 25 q 58 46 78 42 q 40 51 40 51 m 342 28 q 342 28 342 28 q 342 28 342 28 l 342 28 m 633 386 l 660 388 q 665 392 663 388 q 669 401 669 396 q 667 408 669 408 q 657 411 664 411 q 613 383 638 410 q 633 386 618 385 z "},"y":{"ha":597,"x_min":-235,"x_max":715,"o":"m -172 -314 q -166 -320 -172 -317 q -153 -324 -160 -324 q -66 -288 -114 -324 q 30 -203 -18 -253 q 119 -104 78 -154 q 150 -65 136 -83 q -21 -154 58 -106 q -153 -262 -114 -211 q -172 -314 -172 -289 m 538 444 l 701 444 q 715 431 715 444 q 713 422 715 426 l 463 97 q 647 207 557 143 q 658 210 651 210 q 668 203 664 210 l 678 186 q 679 178 679 183 q 674 168 679 172 q 540 84 610 118 q 403 15 471 50 q 300 -114 353 -49 q 183 -235 247 -179 q 31 -331 118 -292 q -146 -371 -57 -371 q -197 -362 -181 -371 q -224 -343 -214 -354 q -235 -311 -235 -332 q -208 -240 -235 -275 q -50 -112 -156 -172 q 206 6 61 -47 l 246 57 q 172 10 210 31 q 100 -10 135 -10 q 30 23 53 -10 q 7 96 7 56 q 35 192 7 149 q 92 272 64 236 q 221 439 136 329 q 232 444 225 444 l 396 444 q 410 431 410 444 q 407 422 410 426 l 172 115 q 161 100 169 111 q 135 62 144 78 q 125 43 125 46 q 149 52 132 43 q 174 67 165 61 q 189 76 183 72 q 236 111 214 92 q 281 151 258 131 q 328 198 304 175 q 372 244 353 221 q 450 342 413 293 q 526 439 488 390 q 538 444 531 444 m 125 43 l 125 42 l 124 43 q 125 43 124 43 q 125 43 125 43 m 172 115 l 172 115 l 172 115 z "},"z":{"ha":510,"x_min":-39,"x_max":636,"o":"m 61 72 q 61 72 61 72 m 29 8 m 369 54 q 369 54 369 54 m 636 432 q 615 386 636 406 q 519 336 581 354 q 481 328 496 331 l 275 169 q 331 176 304 176 q 381 167 357 176 q 408 121 408 153 q 394 71 408 93 q 451 114 413 85 q 515 166 489 143 q 549 194 542 189 q 561 199 556 199 q 571 193 567 199 l 583 178 q 586 169 586 175 q 582 160 586 164 q 521 105 550 126 q 464 63 492 83 q 346 -8 403 14 q 284 -22 313 -22 q 232 -10 256 -22 q 203 39 203 4 q 226 97 203 68 q 236 107 232 101 q 154 75 206 101 q 101 44 126 60 q 63 18 76 29 l 38 -3 q 17 -16 31 -8 q -8 -24 4 -24 q -29 -17 -19 -24 q -39 4 -39 -10 q -26 31 -39 18 q 33 72 -4 50 q 54 85 47 81 q 107 113 88 106 q 119 118 114 115 l 390 324 q 388 324 389 324 q 341 328 358 324 q 306 349 324 333 l 103 186 q 93 183 99 183 q 83 189 88 183 l 71 207 q 68 217 68 211 q 74 226 68 222 l 278 389 q 275 410 275 400 q 299 464 275 442 q 354 486 324 486 q 387 476 372 486 q 401 443 401 465 q 383 393 401 414 q 363 376 374 383 q 450 381 400 372 q 553 457 506 435 q 592 467 576 467 q 621 460 608 467 q 636 432 636 450 z "},"{":{"ha":417,"x_min":-160,"x_max":847,"o":"m 847 986 l 793 986 q 716 985 757 986 q 639 971 675 985 q 593 940 614 961 q 553 893 572 919 q 519 840 535 867 q 489 793 503 815 l 332 561 q 297 511 310 529 q 260 466 281 486 q 215 433 240 446 q 156 417 189 419 l 143 399 q 167 381 158 390 q 175 354 175 372 q 169 329 175 343 q 154 301 163 315 q 136 272 146 286 q 122 251 132 265 l -87 -60 q -110 -92 -97 -74 q -133 -132 -122 -111 q -152 -174 -144 -153 q -160 -211 -160 -194 q -146 -253 -160 -239 q -111 -274 -132 -268 q -67 -282 -90 -281 q -24 -283 -43 -283 q -1 -283 -12 -283 q 19 -282 8 -283 l 56 -229 q 28 -228 44 -229 q -1 -222 13 -226 q -25 -209 -15 -218 q -35 -183 -35 -200 q -19 -131 -35 -160 q 8 -83 0 -94 l 231 244 q 263 297 254 279 q 279 356 279 328 q 276 378 279 369 q 264 397 274 386 q 321 419 294 401 q 369 461 347 438 q 410 512 392 485 q 444 563 429 539 l 614 814 q 643 854 618 819 q 678 896 664 885 q 726 917 697 911 q 807 924 754 924 l 847 986 z "},"|":{"ha":694,"x_min":151,"x_max":207,"o":"m 207 -347 l 207 1042 l 151 1042 l 151 -347 l 207 -347 z "},"}":{"ha":417,"x_min":-215,"x_max":811,"o":"m 811 914 q 797 956 811 942 q 763 978 783 971 q 718 986 742 985 q 675 988 694 988 q 653 987 664 988 q 632 986 643 986 l 611 957 q 638 956 622 957 q 668 950 654 954 q 692 937 682 946 q 701 911 701 928 q 685 856 701 886 q 654 806 668 825 l 482 549 q 449 496 467 526 q 432 438 432 465 q 435 415 432 424 q 447 397 438 407 q 390 375 415 393 q 342 333 364 357 q 301 283 319 310 q 268 232 283 256 l 38 -110 q 1 -162 19 -136 q -39 -211 -18 -187 q -72 -235 -54 -226 q -111 -247 -90 -243 q -153 -252 -132 -251 q -194 -253 -175 -253 l -215 -282 q -187 -283 -201 -283 q -160 -283 -174 -283 q -108 -283 -136 -283 q -53 -280 -81 -283 q 1 -268 -25 -276 q 46 -243 26 -260 q 75 -213 58 -233 q 108 -170 92 -193 q 138 -126 124 -147 q 163 -90 153 -104 l 379 232 q 413 282 396 257 q 451 328 431 307 q 498 362 472 349 q 557 376 524 375 l 569 396 q 545 413 553 404 q 538 440 538 421 q 543 465 538 450 q 557 494 549 479 q 574 522 565 508 q 589 543 583 535 l 738 764 q 759 796 746 776 q 783 836 772 815 q 803 877 794 857 q 811 914 811 897 z "},"~":{"ha":926,"x_min":-51,"x_max":639,"o":"m 604 910 q 508 831 565 853 q 440 818 478 818 q 360 835 401 818 q 279 873 318 853 q 205 909 240 893 q 142 925 169 925 q 97 917 115 925 q 36 860 63 900 q 13 819 24 840 q 0 813 8 813 q -7 815 -4 813 l -44 839 q -51 850 -51 842 q -50 857 -51 853 q 24 958 -15 922 q 142 1006 74 1006 q 225 988 185 1006 q 303 951 265 971 q 376 915 340 931 q 446 899 413 899 q 523 928 494 899 q 575 1000 551 958 q 588 1007 579 1007 q 594 1006 592 1007 l 632 983 q 639 971 639 979 q 638 964 639 967 q 604 910 622 936 z "},"¡":{"ha":433,"x_min":-144,"x_max":497,"o":"m 497 442 q 477 494 497 474 q 425 514 457 514 q 385 505 404 514 q 350 481 365 496 q 326 446 335 465 q 317 406 317 426 q 339 356 317 375 q 390 336 361 336 q 465 367 433 336 q 497 442 497 397 m 339 306 l 321 318 l -76 -108 q -122 -161 -99 -132 q -144 -225 -144 -190 q -120 -276 -144 -256 q -67 -297 -96 -297 q -24 -287 -43 -297 q 9 -263 -6 -278 q 35 -230 24 -249 q 58 -193 47 -211 l 339 306 z "},"¢":{"ha":565,"x_min":139,"x_max":697,"o":"m 697 697 l 678 713 l 594 604 q 581 606 590 606 q 443 578 518 606 q 302 506 368 551 q 192 398 236 460 q 149 265 149 336 q 169 197 149 225 q 226 156 189 168 l 139 43 l 158 28 l 253 149 l 271 149 q 357 167 310 149 q 451 215 404 186 q 539 275 497 243 q 608 333 581 307 l 596 350 q 534 299 574 329 q 450 241 494 269 q 361 192 406 213 q 286 172 317 172 q 265 178 275 172 q 254 196 254 183 q 275 255 254 218 q 329 334 296 292 q 404 420 363 376 q 487 499 446 464 q 564 557 528 535 q 624 579 600 579 q 639 576 632 579 q 646 563 646 572 q 633 546 646 549 q 603 540 619 543 q 573 530 586 538 q 560 497 560 522 q 603 456 560 456 q 657 483 636 456 q 678 543 678 511 q 664 583 678 571 q 626 603 650 596 l 697 697 z "},"£":{"ha":796,"x_min":-196,"x_max":1089,"o":"m 1089 704 q 1051 791 1089 763 q 960 819 1014 819 q 788 785 872 819 q 631 694 704 750 q 497 569 558 639 q 394 426 436 499 q 359 362 375 394 q 326 297 343 329 l 131 297 l 129 271 l 313 271 q 275 203 294 235 q 232 139 256 171 q 138 165 185 154 q 40 175 90 175 q -4 173 18 175 q -47 165 -26 171 q -91 152 -65 161 q -140 128 -117 143 q -179 95 -162 114 q -196 54 -196 76 q -180 22 -196 33 q -142 3 -164 10 q -99 -4 -121 -3 q -62 -6 -76 -6 q 40 6 -15 -6 q 136 39 94 17 q 263 1 194 15 q 393 -12 331 -12 q 556 16 485 -12 q 700 100 628 44 q 740 133 721 117 q 779 169 760 150 l 764 183 q 663 104 715 133 q 540 75 611 75 q 408 89 476 75 q 279 124 339 103 q 378 189 326 150 q 467 268 431 228 l 689 268 l 690 294 l 493 296 q 560 392 529 342 q 622 490 590 442 q 684 583 649 531 q 763 684 719 636 q 858 765 807 732 q 963 799 908 799 q 1033 778 1003 799 q 1064 714 1064 758 q 1030 592 1064 651 q 953 490 996 532 q 897 447 931 469 q 832 424 864 424 q 795 435 810 424 q 781 471 781 447 q 792 520 781 496 q 819 566 803 544 q 857 606 836 588 q 897 638 878 625 l 888 654 q 840 623 864 642 q 797 581 817 604 q 766 532 778 558 q 754 476 754 506 q 777 424 754 444 q 832 403 800 403 q 928 433 882 403 q 1010 507 974 463 q 1067 605 1046 551 q 1089 704 1089 658 m 106 50 q 26 25 72 33 q -57 17 -21 17 q -83 17 -65 17 q -120 22 -101 18 q -153 33 -139 26 q -168 53 -168 40 q -158 73 -168 65 q -134 85 -147 81 q -106 90 -121 89 q -83 92 -92 92 q 13 78 -37 92 q 106 50 63 65 z "},"¤":{"ha":1111,"x_min":406,"x_max":1108,"o":"m 1108 154 l 986 278 q 1043 372 1024 322 q 1063 479 1063 421 q 986 681 1063 592 l 1108 803 l 1085 826 l 961 706 q 757 785 871 785 q 551 706 640 785 l 429 826 l 406 803 l 529 681 q 472 588 492 636 q 451 479 451 539 q 472 372 451 421 q 529 278 492 322 l 410 154 l 433 131 l 556 253 q 650 196 600 215 q 758 176 700 176 q 961 253 872 176 l 1085 131 l 1108 154 m 1025 479 q 1004 375 1025 424 q 947 290 983 326 q 861 232 910 253 q 757 211 813 211 q 653 233 701 211 q 567 290 604 254 q 510 376 531 326 q 489 481 489 425 q 510 585 489 536 q 567 672 531 635 q 653 730 604 708 q 757 751 701 751 q 862 730 813 751 q 947 671 911 708 q 1004 584 983 633 q 1025 479 1025 535 z "},"¥":{"ha":722,"x_min":-135,"x_max":957,"o":"m 957 694 l 817 694 l 599 414 l 460 414 l 564 549 q 608 676 608 606 q 574 769 608 742 q 478 796 540 796 q 393 783 435 796 q 314 749 351 771 q 245 696 276 726 q 192 631 214 665 q 169 586 179 611 q 160 538 160 561 q 177 489 160 508 q 225 469 194 469 q 289 487 258 469 q 344 531 319 504 q 386 590 368 558 q 415 650 404 622 l 400 654 q 371 603 389 632 q 330 549 353 575 q 281 506 307 524 q 226 489 254 489 q 196 499 208 489 q 183 528 183 508 q 194 572 183 549 q 219 617 204 594 q 252 658 235 639 q 285 689 269 676 q 326 720 303 704 q 374 749 349 736 q 426 769 400 761 q 476 776 451 776 q 513 766 500 776 q 526 732 526 756 q 518 692 526 713 q 498 651 510 671 q 472 613 486 631 q 447 581 458 594 l 318 414 l 231 414 l 211 389 l 299 389 l 232 303 l 144 303 l 125 278 l 213 278 q 182 235 199 258 q 151 188 165 213 q 126 137 136 163 q 115 86 115 111 q 130 30 115 56 q 179 4 144 4 q 242 23 208 4 q 308 69 275 42 q 369 125 340 96 q 419 175 399 154 q 426 181 422 178 q 433 189 431 185 l 281 -6 q 215 -33 256 -15 q 128 -75 174 -51 q 35 -128 82 -99 q -50 -188 -12 -157 q -111 -251 -87 -219 q -135 -314 -135 -283 q -114 -349 -135 -340 q -71 -357 -93 -357 q 10 -346 -32 -357 q 90 -316 51 -335 q 165 -274 129 -297 q 229 -224 200 -250 q 283 -167 257 -197 q 332 -108 308 -137 q 383 -47 357 -76 q 435 14 408 -17 q 446 26 440 24 q 458 33 450 31 q 583 101 521 68 q 701 179 646 133 l 693 196 q 583 122 640 157 q 468 60 526 88 l 636 278 l 728 278 l 747 303 l 656 303 l 722 389 l 813 389 l 832 414 l 742 414 l 957 694 m 579 389 q 546 346 564 367 q 513 303 528 325 l 374 303 l 440 389 l 579 389 m 493 278 q 433 207 464 240 q 367 142 401 174 q 335 113 357 132 q 289 76 314 94 q 240 43 264 57 q 203 29 217 29 q 192 33 197 29 q 186 43 186 36 q 199 69 186 50 q 229 115 211 89 q 269 168 247 140 q 310 220 290 196 q 342 260 329 244 q 356 278 354 276 l 493 278 m 263 -32 q 224 -79 247 -50 q 172 -142 200 -108 q 111 -211 143 -176 q 47 -274 79 -246 q -16 -319 15 -301 q -74 -337 -47 -337 q -93 -332 -83 -337 q -103 -315 -103 -326 q -82 -258 -103 -287 q -27 -201 -61 -229 q 48 -145 7 -172 q 130 -96 89 -118 q 206 -57 171 -74 q 263 -32 242 -40 z "},"§":{"ha":593,"x_min":-26,"x_max":822,"o":"m 822 704 q 801 758 822 740 q 744 776 781 776 q 657 755 700 776 q 583 701 614 733 q 556 665 568 685 q 532 626 543 646 q 420 608 475 619 q 319 560 365 596 q 251 478 271 524 q 217 375 231 433 q 204 315 210 344 q 192 254 199 285 q 176 180 186 229 q 149 81 165 131 q 107 -5 132 32 q 47 -42 82 -42 q 17 -31 31 -42 q 4 -1 4 -19 q 10 19 4 8 q 28 29 17 29 q 44 25 36 29 q 61 21 53 21 q 90 38 79 21 q 101 69 101 54 q 88 100 101 89 q 56 111 75 111 q 22 101 36 111 q -4 77 7 92 q -21 44 -15 63 q -26 10 -26 26 q -1 -50 -26 -29 q 61 -71 25 -71 q 112 -62 88 -71 q 160 -40 136 -54 q 223 13 200 -17 q 272 82 246 43 q 335 90 303 83 q 401 107 368 96 q 463 134 433 118 q 515 171 492 150 q 571 253 553 206 q 600 349 589 300 q 614 414 607 381 q 628 479 621 447 q 638 533 632 500 q 653 601 644 567 q 672 667 661 636 q 694 717 682 699 q 717 742 704 732 q 749 753 729 753 q 778 744 767 753 q 790 715 790 735 q 783 695 790 704 q 765 686 776 686 q 761 688 763 686 q 751 688 756 688 q 742 689 747 689 q 710 675 722 689 q 699 642 699 661 q 710 613 699 624 q 740 603 722 603 q 775 613 760 603 q 801 637 790 622 q 817 669 811 651 q 822 704 822 688 m 524 606 q 501 533 510 569 q 486 458 493 496 q 468 376 478 417 q 447 294 458 335 q 425 228 438 261 q 394 168 413 194 q 348 124 375 142 q 282 104 321 106 q 316 203 304 153 q 339 307 328 254 q 353 373 344 335 q 375 449 363 411 q 404 521 388 488 q 444 574 421 554 q 482 596 464 589 q 524 606 500 603 z "},"¨":{"ha":694,"x_min":422,"x_max":836,"o":"m 836 621 q 818 668 836 650 q 771 686 800 686 q 731 677 750 686 q 695 653 711 668 q 669 619 679 638 q 660 579 660 600 q 677 531 660 549 q 725 514 694 514 q 765 523 746 514 q 801 547 785 532 q 826 581 817 563 q 836 621 836 600 m 599 621 q 580 669 599 651 q 532 686 561 686 q 492 677 513 686 q 457 653 472 668 q 432 618 442 638 q 422 579 422 599 q 439 532 422 550 q 486 514 456 514 q 527 523 507 514 q 563 547 547 532 q 589 581 579 561 q 599 621 599 600 z "},"©":{"ha":1204,"x_min":318,"x_max":1274,"o":"m 1274 463 q 1236 648 1274 561 q 1134 800 1199 735 q 983 903 1069 865 q 797 940 896 940 q 611 903 699 940 q 458 801 524 865 q 356 649 393 736 q 318 463 318 563 q 356 276 318 363 q 458 124 393 189 q 611 22 524 60 q 797 -15 699 -15 q 983 22 896 -15 q 1134 125 1069 60 q 1236 277 1199 190 q 1274 463 1274 364 m 1246 463 q 1210 288 1246 369 q 1114 144 1175 206 q 972 48 1053 83 q 797 13 890 13 q 622 48 704 13 q 478 144 540 83 q 381 286 417 204 q 346 463 346 368 q 381 638 346 556 q 478 781 417 721 q 622 877 540 842 q 797 913 704 913 q 972 877 890 913 q 1115 781 1054 842 q 1210 638 1175 719 q 1246 463 1246 556 m 1113 663 q 1093 697 1113 688 q 1053 706 1074 706 q 940 685 996 706 q 833 639 883 664 q 766 601 796 619 q 710 563 736 583 q 658 519 683 543 q 601 465 632 496 q 569 475 586 468 q 540 493 553 482 q 517 518 526 504 q 508 550 508 532 q 534 621 508 592 q 597 669 560 650 q 677 696 635 688 q 753 704 719 704 q 853 689 803 704 l 863 710 q 804 724 832 721 q 744 728 776 728 q 659 718 706 728 q 573 688 613 708 q 507 633 533 667 q 481 551 481 600 q 490 510 481 528 q 513 481 499 493 q 547 459 528 468 q 585 444 565 450 q 538 372 556 408 q 521 288 521 335 q 559 193 521 225 q 657 161 597 161 q 767 182 711 161 q 863 239 822 203 q 899 283 882 257 q 917 336 917 308 q 892 384 917 368 q 838 400 867 400 q 765 385 799 400 q 703 344 731 369 q 656 287 676 319 q 621 221 635 254 l 639 217 q 672 272 651 243 q 717 323 692 300 q 772 361 742 346 q 833 376 801 376 q 873 367 854 376 q 892 332 892 357 q 876 286 892 308 q 844 249 861 264 q 761 199 808 217 q 665 182 714 182 q 615 196 639 182 q 592 240 592 210 q 604 291 592 264 q 635 345 617 318 q 674 396 654 372 q 710 438 694 419 q 864 469 786 446 q 934 496 892 478 q 1016 539 976 514 q 1084 595 1056 564 q 1113 663 1113 626 m 1089 657 q 1072 615 1089 636 q 1030 574 1054 593 q 980 540 1006 554 q 938 517 954 525 q 835 479 889 493 q 728 458 782 465 q 789 525 750 486 q 873 599 828 564 q 964 660 918 635 q 1047 685 1010 685 q 1074 678 1060 685 q 1089 657 1089 672 z "},"ª":{"ha":556,"x_min":272,"x_max":979,"o":"m 979 926 l 843 926 l 786 851 q 795 875 792 863 q 799 900 799 888 q 779 932 799 925 q 740 939 760 939 q 617 914 683 939 q 494 847 551 889 q 399 750 438 806 q 361 633 361 694 q 383 573 361 599 q 440 547 404 547 q 499 563 468 547 q 561 600 531 578 q 618 648 592 622 q 663 693 644 674 q 644 656 651 674 q 636 614 636 638 q 657 565 636 583 q 707 547 678 547 q 764 563 738 547 q 814 596 790 578 q 878 647 846 621 q 939 701 910 672 l 928 715 q 847 644 889 676 q 758 582 806 611 q 748 576 753 579 q 736 574 743 574 q 728 576 732 574 q 724 585 724 579 q 730 601 724 590 q 744 622 736 611 q 760 644 753 633 q 772 658 768 654 l 979 926 m 744 447 l 744 472 l 272 472 l 272 447 l 744 447 m 782 897 q 764 844 782 876 q 716 776 746 813 q 650 703 686 739 q 578 637 614 667 q 510 589 542 607 q 458 571 479 571 q 447 574 453 571 q 442 585 442 578 q 461 628 442 599 q 511 694 481 658 q 580 769 542 731 q 654 838 618 807 q 722 890 690 869 q 769 910 753 910 q 782 897 782 910 z "},"«":{"ha":660,"x_min":117,"x_max":707,"o":"m 707 379 l 696 400 l 347 231 l 432 54 l 458 60 l 483 218 l 707 379 m 476 379 l 465 400 l 117 231 l 201 54 l 228 60 l 253 218 l 476 379 z "},"¬":{"ha":694,"x_min":-122,"x_max":479,"o":"m 479 0 l 479 371 l -122 371 l -122 318 l 424 318 l 424 0 l 479 0 z "},"®":{"ha":879,"x_min":496,"x_max":1131,"o":"m 1131 744 q 1106 868 1131 810 q 1038 969 1081 926 q 937 1038 994 1013 q 814 1063 879 1063 q 690 1038 749 1063 q 589 969 632 1013 q 521 868 546 926 q 496 744 496 810 q 521 620 496 678 q 589 520 546 563 q 690 453 632 478 q 814 428 749 428 q 937 453 879 428 q 1038 521 994 478 q 1106 622 1081 564 q 1131 744 1131 679 m 1103 744 q 1080 632 1103 685 q 1018 540 1057 579 q 926 477 979 500 q 814 454 874 454 q 700 477 753 454 q 608 539 647 500 q 547 631 569 578 q 524 744 524 683 q 547 857 524 804 q 609 949 569 910 q 701 1011 649 989 q 814 1033 754 1033 q 926 1010 874 1033 q 1017 948 978 988 q 1080 856 1057 908 q 1103 744 1103 804 m 1044 825 q 1028 869 1044 851 q 988 899 1011 888 q 937 914 964 910 q 889 918 910 918 q 817 909 857 918 q 740 881 776 900 q 678 833 703 863 q 653 765 653 804 q 669 732 653 743 q 706 721 686 721 q 769 735 740 721 q 819 771 797 749 q 855 822 840 793 q 876 883 869 851 l 857 886 q 836 829 847 854 q 800 781 825 804 q 760 752 782 764 q 714 740 739 740 q 687 749 697 740 q 676 775 676 757 q 699 832 676 808 q 753 871 721 856 q 820 893 785 886 q 882 900 856 900 q 928 897 908 900 q 972 882 949 894 q 933 858 953 871 q 896 831 914 846 q 845 781 868 807 q 800 725 822 754 q 771 688 788 708 q 735 651 754 668 q 694 622 717 633 q 649 610 672 610 q 622 613 638 610 q 601 629 606 617 q 617 626 607 626 q 638 635 628 626 q 647 656 647 644 q 640 671 647 665 q 624 676 633 676 q 590 663 606 676 q 575 632 575 650 q 583 611 575 619 q 601 598 590 603 q 624 592 611 593 q 646 590 636 590 q 741 604 703 590 q 808 643 779 618 q 862 703 838 668 q 914 782 886 739 q 928 803 919 790 q 945 828 936 815 q 965 851 954 840 q 983 867 975 861 q 986 850 986 856 q 981 822 986 836 q 969 793 976 807 q 951 768 961 779 q 928 751 940 757 q 914 757 919 757 q 901 744 901 757 q 914 735 901 735 q 915 726 915 732 q 905 706 915 717 q 882 683 894 696 q 859 656 869 671 q 849 625 849 642 q 882 590 849 590 q 913 598 896 590 q 947 616 931 606 q 979 639 964 626 q 1004 660 994 651 l 993 671 q 976 657 989 667 q 948 637 963 647 q 920 619 933 626 q 903 611 907 611 l 900 611 l 897 611 q 932 651 913 629 q 951 697 951 674 q 948 717 951 708 q 939 736 944 726 q 976 745 957 739 q 1010 762 996 751 q 1035 788 1025 772 q 1044 825 1044 803 z "},"¯":{"ha":694,"x_min":450,"x_max":792,"o":"m 792 614 l 486 614 l 450 568 l 756 568 l 792 614 z "},"°":{"ha":611,"x_min":418,"x_max":789,"o":"m 789 725 q 774 797 789 764 q 735 856 760 831 q 676 895 710 881 q 603 910 642 910 q 531 895 565 910 q 472 856 497 881 q 433 797 447 831 q 418 725 418 763 q 433 653 418 686 q 473 594 447 619 q 533 555 499 569 q 604 540 567 540 q 676 555 642 540 q 735 594 710 569 q 774 653 760 619 q 789 725 789 688 m 729 725 q 693 636 729 672 q 604 600 657 600 q 515 636 551 600 q 479 725 479 672 q 515 814 479 778 q 604 850 551 850 q 693 814 657 850 q 729 725 729 778 z "},"±":{"ha":649,"x_min":-25,"x_max":682,"o":"m 682 404 l 464 404 l 614 624 l 554 624 l 403 404 l 188 404 l 151 353 l 368 353 l 218 133 l 278 133 l 428 353 l 647 353 l 682 404 m 506 71 l 10 71 l -25 19 l 471 19 l 506 71 z "},"´":{"ha":694,"x_min":533,"x_max":910,"o":"m 910 663 l 626 663 l 533 517 l 571 515 l 910 663 z "},"µ":{"ha":658,"x_min":-233,"x_max":725,"o":"m 725 431 l 558 431 q 478 327 518 379 q 397 226 439 275 q 307 131 354 176 q 204 50 260 86 q 172 30 194 43 q 138 17 149 17 q 124 31 124 17 q 132 51 124 38 q 152 81 140 65 q 174 110 164 96 q 189 129 185 124 l 421 431 l 254 431 l -233 -204 l -65 -204 l 43 35 q 73 1 58 11 q 115 -8 88 -8 q 177 8 144 -8 q 241 48 210 25 q 300 97 272 71 q 349 142 328 122 q 331 104 338 121 q 325 64 325 88 q 347 11 325 31 q 401 -8 369 -8 q 472 12 432 -8 q 551 60 511 32 q 626 120 590 89 q 683 174 661 151 l 669 189 q 635 160 651 176 q 603 129 618 144 q 531 74 572 101 q 453 26 489 46 q 439 21 444 21 q 431 24 435 21 q 426 32 426 26 q 433 48 426 38 q 447 69 439 58 q 463 88 456 79 q 474 101 471 97 l 725 431 z "},"¶":{"ha":871,"x_min":129,"x_max":1307,"o":"m 1307 926 l 1010 926 q 879 919 943 926 q 756 896 815 913 q 640 850 696 879 q 532 776 583 821 q 479 726 507 756 q 428 664 451 697 q 388 594 404 631 q 372 524 372 558 q 403 465 372 485 q 475 438 433 446 q 560 429 517 429 q 628 429 603 429 l 129 -232 l 171 -232 l 1021 901 l 1185 901 l 331 -232 l 368 -232 l 1222 901 l 1288 901 l 1307 926 z "},"·":{"ha":236,"x_min":204,"x_max":411,"o":"m 411 500 q 385 557 411 535 q 326 579 360 579 q 279 570 301 579 q 240 544 257 561 q 214 506 224 528 q 204 460 204 485 q 227 399 204 424 q 286 375 250 375 q 333 385 311 375 q 373 413 356 396 q 401 453 390 431 q 411 500 411 475 z "},"∙":{"ha":236,"x_min":204,"x_max":411,"o":"m 411 500 q 385 557 411 535 q 326 579 360 579 q 279 570 301 579 q 240 544 257 561 q 214 506 224 528 q 204 460 204 485 q 227 399 204 424 q 286 375 250 375 q 333 385 311 375 q 373 413 356 396 q 401 453 390 431 q 411 500 411 475 z "},"¸":{"ha":694,"x_min":-10,"x_max":253,"o":"m 253 -124 q 238 -81 253 -97 q 196 -65 224 -65 q 130 -94 158 -65 q 101 -160 101 -122 q 110 -186 101 -175 q 119 -207 119 -197 q 106 -242 119 -225 q 73 -275 92 -260 q 33 -301 54 -290 q -3 -318 11 -312 l -10 -321 l -6 -337 q 32 -325 11 -333 q 74 -306 53 -317 q 116 -284 96 -296 q 150 -262 136 -272 q 185 -236 167 -250 q 219 -205 204 -222 q 243 -167 233 -187 q 253 -124 253 -147 z "},"º":{"ha":556,"x_min":222,"x_max":825,"o":"m 825 715 l 821 735 q 800 731 810 731 q 773 735 785 731 q 753 751 761 739 q 756 755 754 754 q 758 758 757 756 q 794 823 776 785 q 813 894 813 861 q 806 917 813 908 q 788 932 799 926 q 765 939 778 938 q 740 940 751 940 q 626 920 679 940 q 524 864 572 900 q 472 820 497 844 q 426 767 446 796 q 393 706 406 739 q 381 640 381 674 q 406 572 381 597 q 474 547 431 547 q 550 566 511 547 q 624 613 589 585 q 688 674 658 642 q 739 735 718 707 q 797 711 763 711 q 825 715 810 711 m 600 447 l 600 472 l 222 472 l 222 447 l 600 447 m 794 892 q 790 869 794 882 q 741 838 760 867 q 722 782 722 810 q 729 751 722 768 q 683 696 713 728 q 617 635 653 664 q 546 585 582 606 q 479 565 510 565 q 465 569 472 565 q 458 581 458 574 q 477 628 458 597 q 525 697 496 660 q 590 772 554 733 q 662 841 626 810 q 728 892 697 872 q 778 913 760 913 q 791 906 788 913 q 794 892 794 900 z "},"»":{"ha":660,"x_min":35,"x_max":625,"o":"m 625 224 l 540 400 l 514 394 l 490 236 l 265 75 l 276 54 l 625 224 m 394 224 l 310 400 l 283 394 l 260 236 l 35 75 l 46 54 l 394 224 z "},"¿":{"ha":567,"x_min":-165,"x_max":535,"o":"m 535 451 q 515 503 535 483 q 463 524 494 524 q 387 491 419 524 q 354 415 354 458 q 377 367 354 386 q 428 347 400 347 q 503 377 471 347 q 535 451 535 407 m 368 313 l 350 328 q 328 307 339 318 q 307 285 318 296 q 283 265 296 274 q 256 246 269 256 q 124 173 197 207 q -13 97 51 139 q -122 -4 -78 54 q -165 -149 -165 -62 q -158 -203 -165 -176 q -137 -250 -151 -229 q -100 -283 -122 -271 q -46 -296 -78 -296 q 59 -271 1 -296 q 165 -206 117 -246 q 247 -116 214 -167 q 281 -15 281 -65 q 264 29 281 13 q 219 46 247 46 q 174 35 196 46 q 131 8 151 25 q 93 -28 110 -8 q 65 -67 76 -49 l 78 -79 q 103 -48 88 -65 q 137 -15 118 -31 q 176 11 156 0 q 214 22 196 22 q 246 -10 246 22 q 217 -94 246 -47 q 147 -180 189 -140 q 58 -247 106 -219 q -28 -274 10 -274 q -53 -263 -44 -274 q -61 -237 -61 -253 q -54 -200 -61 -221 q -37 -158 -47 -179 q -16 -118 -28 -137 q 4 -85 -4 -99 q 106 42 49 -14 q 222 156 163 99 q 298 231 261 192 q 368 313 335 269 z "},"À":{"ha":879,"x_min":-11,"x_max":1318,"o":"m 1318 1021 l 1317 1171 l 1097 1171 l 1288 1019 l 1318 1021 m 1317 933 q 1306 936 1311 935 q 1293 938 1300 938 q 1208 919 1253 938 q 1119 872 1164 901 q 1029 803 1074 842 q 944 726 985 765 q 868 651 904 688 q 806 588 832 615 q 744 524 774 556 q 685 461 714 493 q 653 539 675 499 q 602 611 632 579 q 535 664 572 643 q 454 685 497 685 q 381 665 413 685 q 328 613 350 644 q 297 544 307 582 q 286 469 286 506 q 295 392 286 432 q 321 312 304 351 q 360 237 338 272 q 408 175 382 201 q 340 121 378 150 q 263 67 303 92 q 180 25 222 42 q 96 8 138 8 q 70 12 83 8 q 46 22 57 15 q 28 38 35 28 q 21 63 21 49 q 24 78 21 69 q 36 88 26 88 q 61 80 50 88 q 90 72 72 72 q 135 90 115 72 q 156 135 156 108 q 138 176 156 160 q 96 192 119 192 q 54 181 74 192 q 20 154 35 171 q -3 117 6 138 q -11 75 -11 96 q 22 8 -11 31 q 94 -15 54 -15 q 184 1 138 -15 q 274 43 231 18 q 357 99 318 68 q 425 160 396 131 q 575 74 490 97 l 526 0 l 728 0 l 765 69 q 846 106 807 81 q 910 167 885 131 l 896 182 q 844 133 871 154 q 782 100 818 111 q 864 239 822 171 q 947 378 906 307 q 1060 558 1001 469 q 1176 736 1118 647 q 1219 800 1197 768 q 1264 863 1240 832 q 1291 898 1278 881 q 1317 933 1304 915 m 1276 915 l 1263 904 q 1242 886 1251 896 q 1222 867 1232 876 q 1145 792 1181 826 q 1074 715 1110 758 q 957 580 1014 647 q 844 440 900 513 q 801 384 822 413 q 760 328 781 356 q 724 278 742 303 q 686 229 706 253 q 696 290 693 258 q 699 353 699 322 q 690 432 699 392 q 755 501 722 468 q 819 568 788 533 q 876 628 843 593 q 949 701 910 663 q 1031 777 989 739 q 1117 845 1074 815 q 1201 894 1160 875 q 1276 915 1242 914 m 665 440 q 635 408 649 425 q 606 375 621 390 q 556 321 581 347 q 504 268 531 294 q 465 230 485 249 q 426 192 446 211 q 348 314 379 244 q 317 454 317 383 q 326 519 317 485 q 352 583 335 554 q 397 631 369 613 q 461 650 424 650 q 535 631 501 650 q 595 581 569 611 q 639 513 621 550 q 665 440 657 475 m 674 358 q 672 321 674 347 q 667 265 669 294 q 659 210 664 235 q 650 178 654 185 q 619 135 635 156 q 589 93 604 114 q 511 124 549 104 q 443 175 474 144 q 500 228 469 199 q 560 290 531 258 q 619 352 590 321 q 671 411 647 383 q 674 385 674 397 q 674 358 674 372 z "},"Á":{"ha":879,"x_min":-11,"x_max":1703,"o":"m 1703 1169 l 1385 1169 l 1272 1025 l 1313 1024 l 1703 1169 m 1317 933 q 1306 936 1311 935 q 1293 938 1300 938 q 1208 919 1253 938 q 1119 872 1164 901 q 1029 803 1074 842 q 944 726 985 765 q 868 651 904 688 q 806 588 832 615 q 744 524 774 556 q 685 461 714 493 q 653 539 675 499 q 602 611 632 579 q 535 664 572 643 q 454 685 497 685 q 381 665 413 685 q 328 613 350 644 q 297 544 307 582 q 286 469 286 506 q 295 392 286 432 q 321 312 304 351 q 360 237 338 272 q 408 175 382 201 q 340 121 378 150 q 263 67 303 92 q 180 25 222 42 q 96 8 138 8 q 70 12 83 8 q 46 22 57 15 q 28 38 35 28 q 21 63 21 49 q 24 78 21 69 q 36 88 26 88 q 61 80 50 88 q 90 72 72 72 q 135 90 115 72 q 156 135 156 108 q 138 176 156 160 q 96 192 119 192 q 54 181 74 192 q 20 154 35 171 q -3 117 6 138 q -11 75 -11 96 q 22 8 -11 31 q 94 -15 54 -15 q 184 1 138 -15 q 274 43 231 18 q 357 99 318 68 q 425 160 396 131 q 575 74 490 97 l 526 0 l 728 0 l 765 69 q 846 106 807 81 q 910 167 885 131 l 896 182 q 844 133 871 154 q 782 100 818 111 q 864 239 822 171 q 947 378 906 307 q 1060 558 1001 469 q 1176 736 1118 647 q 1219 800 1197 768 q 1264 863 1240 832 q 1291 898 1278 881 q 1317 933 1304 915 m 1276 915 l 1263 904 q 1242 886 1251 896 q 1222 867 1232 876 q 1145 792 1181 826 q 1074 715 1110 758 q 957 580 1014 647 q 844 440 900 513 q 801 384 822 413 q 760 328 781 356 q 724 278 742 303 q 686 229 706 253 q 696 290 693 258 q 699 353 699 322 q 690 432 699 392 q 755 501 722 468 q 819 568 788 533 q 876 628 843 593 q 949 701 910 663 q 1031 777 989 739 q 1117 845 1074 815 q 1201 894 1160 875 q 1276 915 1242 914 m 665 440 q 635 408 649 425 q 606 375 621 390 q 556 321 581 347 q 504 268 531 294 q 465 230 485 249 q 426 192 446 211 q 348 314 379 244 q 317 454 317 383 q 326 519 317 485 q 352 583 335 554 q 397 631 369 613 q 461 650 424 650 q 535 631 501 650 q 595 581 569 611 q 639 513 621 550 q 665 440 657 475 m 674 358 q 672 321 674 347 q 667 265 669 294 q 659 210 664 235 q 650 178 654 185 q 619 135 635 156 q 589 93 604 114 q 511 124 549 104 q 443 175 474 144 q 500 228 469 199 q 560 290 531 258 q 619 352 590 321 q 671 411 647 383 q 674 385 674 397 q 674 358 674 372 z "},"Â":{"ha":879,"x_min":-11,"x_max":1442,"o":"m 1442 1018 l 1419 1206 l 1110 1017 q 1138 1016 1125 1017 q 1167 1015 1151 1015 q 1192 1023 1167 1015 q 1249 1040 1218 1031 q 1308 1057 1281 1049 q 1340 1067 1336 1065 l 1411 1018 l 1442 1018 m 1317 933 q 1306 936 1311 935 q 1293 938 1300 938 q 1208 919 1253 938 q 1119 872 1164 901 q 1029 803 1074 842 q 944 726 985 765 q 868 651 904 688 q 806 588 832 615 q 744 524 774 556 q 685 461 714 493 q 653 539 675 499 q 602 611 632 579 q 535 664 572 643 q 454 685 497 685 q 381 665 413 685 q 328 613 350 644 q 297 544 307 582 q 286 469 286 506 q 295 392 286 432 q 321 312 304 351 q 360 237 338 272 q 408 175 382 201 q 340 121 378 150 q 263 67 303 92 q 180 25 222 42 q 96 8 138 8 q 70 12 83 8 q 46 22 57 15 q 28 38 35 28 q 21 63 21 49 q 24 78 21 69 q 36 88 26 88 q 61 80 50 88 q 90 72 72 72 q 135 90 115 72 q 156 135 156 108 q 138 176 156 160 q 96 192 119 192 q 54 181 74 192 q 20 154 35 171 q -3 117 6 138 q -11 75 -11 96 q 22 8 -11 31 q 94 -15 54 -15 q 184 1 138 -15 q 274 43 231 18 q 357 99 318 68 q 425 160 396 131 q 575 74 490 97 l 526 0 l 728 0 l 765 69 q 846 106 807 81 q 910 167 885 131 l 896 182 q 844 133 871 154 q 782 100 818 111 q 864 239 822 171 q 947 378 906 307 q 1060 558 1001 469 q 1176 736 1118 647 q 1219 800 1197 768 q 1264 863 1240 832 q 1291 898 1278 881 q 1317 933 1304 915 m 1276 915 l 1263 904 q 1242 886 1251 896 q 1222 867 1232 876 q 1145 792 1181 826 q 1074 715 1110 758 q 957 580 1014 647 q 844 440 900 513 q 801 384 822 413 q 760 328 781 356 q 724 278 742 303 q 686 229 706 253 q 696 290 693 258 q 699 353 699 322 q 690 432 699 392 q 755 501 722 468 q 819 568 788 533 q 876 628 843 593 q 949 701 910 663 q 1031 777 989 739 q 1117 845 1074 815 q 1201 894 1160 875 q 1276 915 1242 914 m 665 440 q 635 408 649 425 q 606 375 621 390 q 556 321 581 347 q 504 268 531 294 q 465 230 485 249 q 426 192 446 211 q 348 314 379 244 q 317 454 317 383 q 326 519 317 485 q 352 583 335 554 q 397 631 369 613 q 461 650 424 650 q 535 631 501 650 q 595 581 569 611 q 639 513 621 550 q 665 440 657 475 m 674 358 q 672 321 674 347 q 667 265 669 294 q 659 210 664 235 q 650 178 654 185 q 619 135 635 156 q 589 93 604 114 q 511 124 549 104 q 443 175 474 144 q 500 228 469 199 q 560 290 531 258 q 619 352 590 321 q 671 411 647 383 q 674 385 674 397 q 674 358 674 372 z "},"Ã":{"ha":879,"x_min":-11,"x_max":1522,"o":"m 1522 1160 l 1481 1160 q 1457 1138 1471 1150 q 1428 1125 1443 1125 q 1402 1133 1415 1125 q 1375 1151 1389 1142 q 1346 1169 1361 1161 q 1314 1178 1331 1178 q 1263 1163 1289 1178 q 1212 1127 1236 1149 q 1167 1082 1188 1106 q 1132 1040 1146 1058 l 1178 1040 q 1199 1065 1186 1051 q 1228 1078 1213 1078 q 1251 1069 1239 1078 q 1277 1051 1264 1061 q 1306 1032 1290 1040 q 1338 1024 1321 1024 q 1389 1038 1361 1024 q 1442 1072 1417 1051 q 1489 1117 1468 1093 q 1522 1160 1510 1140 m 1317 933 q 1306 936 1311 935 q 1293 938 1300 938 q 1208 919 1253 938 q 1119 872 1164 901 q 1029 803 1074 842 q 944 726 985 765 q 868 651 904 688 q 806 588 832 615 q 744 524 774 556 q 685 461 714 493 q 653 539 675 499 q 602 611 632 579 q 535 664 572 643 q 454 685 497 685 q 381 665 413 685 q 328 613 350 644 q 297 544 307 582 q 286 469 286 506 q 295 392 286 432 q 321 312 304 351 q 360 237 338 272 q 408 175 382 201 q 340 121 378 150 q 263 67 303 92 q 180 25 222 42 q 96 8 138 8 q 70 12 83 8 q 46 22 57 15 q 28 38 35 28 q 21 63 21 49 q 24 78 21 69 q 36 88 26 88 q 61 80 50 88 q 90 72 72 72 q 135 90 115 72 q 156 135 156 108 q 138 176 156 160 q 96 192 119 192 q 54 181 74 192 q 20 154 35 171 q -3 117 6 138 q -11 75 -11 96 q 22 8 -11 31 q 94 -15 54 -15 q 184 1 138 -15 q 274 43 231 18 q 357 99 318 68 q 425 160 396 131 q 575 74 490 97 l 526 0 l 728 0 l 765 69 q 846 106 807 81 q 910 167 885 131 l 896 182 q 844 133 871 154 q 782 100 818 111 q 864 239 822 171 q 947 378 906 307 q 1060 558 1001 469 q 1176 736 1118 647 q 1219 800 1197 768 q 1264 863 1240 832 q 1291 898 1278 881 q 1317 933 1304 915 m 1276 915 l 1263 904 q 1242 886 1251 896 q 1222 867 1232 876 q 1145 792 1181 826 q 1074 715 1110 758 q 957 580 1014 647 q 844 440 900 513 q 801 384 822 413 q 760 328 781 356 q 724 278 742 303 q 686 229 706 253 q 696 290 693 258 q 699 353 699 322 q 690 432 699 392 q 755 501 722 468 q 819 568 788 533 q 876 628 843 593 q 949 701 910 663 q 1031 777 989 739 q 1117 845 1074 815 q 1201 894 1160 875 q 1276 915 1242 914 m 665 440 q 635 408 649 425 q 606 375 621 390 q 556 321 581 347 q 504 268 531 294 q 465 230 485 249 q 426 192 446 211 q 348 314 379 244 q 317 454 317 383 q 326 519 317 485 q 352 583 335 554 q 397 631 369 613 q 461 650 424 650 q 535 631 501 650 q 595 581 569 611 q 639 513 621 550 q 665 440 657 475 m 674 358 q 672 321 674 347 q 667 265 669 294 q 659 210 664 235 q 650 178 654 185 q 619 135 635 156 q 589 93 604 114 q 511 124 549 104 q 443 175 474 144 q 500 228 469 199 q 560 290 531 258 q 619 352 590 321 q 671 411 647 383 q 674 385 674 397 q 674 358 674 372 z "},"Ä":{"ha":879,"x_min":-11,"x_max":1507,"o":"m 1507 1124 q 1488 1170 1507 1153 q 1440 1188 1468 1188 q 1400 1178 1419 1188 q 1365 1154 1381 1169 q 1339 1120 1349 1139 q 1329 1081 1329 1101 q 1347 1033 1329 1050 q 1394 1015 1364 1015 q 1435 1024 1415 1015 q 1472 1049 1456 1033 q 1497 1083 1488 1064 q 1507 1124 1507 1103 m 1257 1124 q 1238 1170 1257 1153 q 1190 1188 1218 1188 q 1150 1178 1169 1188 q 1115 1154 1131 1169 q 1089 1120 1099 1139 q 1079 1081 1079 1101 q 1097 1033 1079 1050 q 1144 1015 1114 1015 q 1185 1024 1165 1015 q 1222 1049 1206 1033 q 1247 1083 1238 1064 q 1257 1124 1257 1103 m 1317 933 q 1306 936 1311 935 q 1293 938 1300 938 q 1208 919 1253 938 q 1119 872 1164 901 q 1029 803 1074 842 q 944 726 985 765 q 868 651 904 688 q 806 588 832 615 q 744 524 774 556 q 685 461 714 493 q 653 539 675 499 q 602 611 632 579 q 535 664 572 643 q 454 685 497 685 q 381 665 413 685 q 328 613 350 644 q 297 544 307 582 q 286 469 286 506 q 295 392 286 432 q 321 312 304 351 q 360 237 338 272 q 408 175 382 201 q 340 121 378 150 q 263 67 303 92 q 180 25 222 42 q 96 8 138 8 q 70 12 83 8 q 46 22 57 15 q 28 38 35 28 q 21 63 21 49 q 24 78 21 69 q 36 88 26 88 q 61 80 50 88 q 90 72 72 72 q 135 90 115 72 q 156 135 156 108 q 138 176 156 160 q 96 192 119 192 q 54 181 74 192 q 20 154 35 171 q -3 117 6 138 q -11 75 -11 96 q 22 8 -11 31 q 94 -15 54 -15 q 184 1 138 -15 q 274 43 231 18 q 357 99 318 68 q 425 160 396 131 q 575 74 490 97 l 526 0 l 728 0 l 765 69 q 846 106 807 81 q 910 167 885 131 l 896 182 q 844 133 871 154 q 782 100 818 111 q 864 239 822 171 q 947 378 906 307 q 1060 558 1001 469 q 1176 736 1118 647 q 1219 800 1197 768 q 1264 863 1240 832 q 1291 898 1278 881 q 1317 933 1304 915 m 1276 915 l 1263 904 q 1242 886 1251 896 q 1222 867 1232 876 q 1145 792 1181 826 q 1074 715 1110 758 q 957 580 1014 647 q 844 440 900 513 q 801 384 822 413 q 760 328 781 356 q 724 278 742 303 q 686 229 706 253 q 696 290 693 258 q 699 353 699 322 q 690 432 699 392 q 755 501 722 468 q 819 568 788 533 q 876 628 843 593 q 949 701 910 663 q 1031 777 989 739 q 1117 845 1074 815 q 1201 894 1160 875 q 1276 915 1242 914 m 665 440 q 635 408 649 425 q 606 375 621 390 q 556 321 581 347 q 504 268 531 294 q 465 230 485 249 q 426 192 446 211 q 348 314 379 244 q 317 454 317 383 q 326 519 317 485 q 352 583 335 554 q 397 631 369 613 q 461 650 424 650 q 535 631 501 650 q 595 581 569 611 q 639 513 621 550 q 665 440 657 475 m 674 358 q 672 321 674 347 q 667 265 669 294 q 659 210 664 235 q 650 178 654 185 q 619 135 635 156 q 589 93 604 114 q 511 124 549 104 q 443 175 474 144 q 500 228 469 199 q 560 290 531 258 q 619 352 590 321 q 671 411 647 383 q 674 385 674 397 q 674 358 674 372 z "},"Å":{"ha":879,"x_min":-11,"x_max":1413,"o":"m 1413 1103 q 1383 1175 1413 1146 q 1310 1204 1353 1204 q 1238 1175 1267 1204 q 1208 1103 1208 1146 q 1238 1030 1208 1060 q 1310 1000 1267 1000 q 1382 1031 1351 1000 q 1413 1103 1413 1061 m 1317 933 q 1306 936 1311 935 q 1293 938 1300 938 q 1208 919 1253 938 q 1119 872 1164 901 q 1029 803 1074 842 q 944 726 985 765 q 868 651 904 688 q 806 588 832 615 q 744 524 774 556 q 685 461 714 493 q 653 539 675 499 q 602 611 632 579 q 535 664 572 643 q 454 685 497 685 q 381 665 413 685 q 328 613 350 644 q 297 544 307 582 q 286 469 286 506 q 295 392 286 432 q 321 312 304 351 q 360 237 338 272 q 408 175 382 201 q 340 121 378 150 q 263 67 303 92 q 180 25 222 42 q 96 8 138 8 q 70 12 83 8 q 46 22 57 15 q 28 38 35 28 q 21 63 21 49 q 24 78 21 69 q 36 88 26 88 q 61 80 50 88 q 90 72 72 72 q 135 90 115 72 q 156 135 156 108 q 138 176 156 160 q 96 192 119 192 q 54 181 74 192 q 20 154 35 171 q -3 117 6 138 q -11 75 -11 96 q 22 8 -11 31 q 94 -15 54 -15 q 184 1 138 -15 q 274 43 231 18 q 357 99 318 68 q 425 160 396 131 q 575 74 490 97 l 526 0 l 728 0 l 765 69 q 846 106 807 81 q 910 167 885 131 l 896 182 q 844 133 871 154 q 782 100 818 111 q 864 239 822 171 q 947 378 906 307 q 1060 558 1001 469 q 1176 736 1118 647 q 1219 800 1197 768 q 1264 863 1240 832 q 1291 898 1278 881 q 1317 933 1304 915 m 1372 1103 q 1353 1059 1372 1076 q 1310 1042 1335 1042 q 1267 1060 1285 1042 q 1249 1103 1249 1078 q 1266 1147 1249 1129 q 1310 1164 1283 1164 q 1354 1147 1336 1164 q 1372 1103 1372 1129 m 1276 915 l 1263 904 q 1242 886 1251 896 q 1222 867 1232 876 q 1145 792 1181 826 q 1074 715 1110 758 q 957 580 1014 647 q 844 440 900 513 q 801 384 822 413 q 760 328 781 356 q 724 278 742 303 q 686 229 706 253 q 696 290 693 258 q 699 353 699 322 q 690 432 699 392 q 755 501 722 468 q 819 568 788 533 q 876 628 843 593 q 949 701 910 663 q 1031 777 989 739 q 1117 845 1074 815 q 1201 894 1160 875 q 1276 915 1242 914 m 665 440 q 635 408 649 425 q 606 375 621 390 q 556 321 581 347 q 504 268 531 294 q 465 230 485 249 q 426 192 446 211 q 348 314 379 244 q 317 454 317 383 q 326 519 317 485 q 352 583 335 554 q 397 631 369 613 q 461 650 424 650 q 535 631 501 650 q 595 581 569 611 q 639 513 621 550 q 665 440 657 475 m 674 358 q 672 321 674 347 q 667 265 669 294 q 659 210 664 235 q 650 178 654 185 q 619 135 635 156 q 589 93 604 114 q 511 124 549 104 q 443 175 474 144 q 500 228 469 199 q 560 290 531 258 q 619 352 590 321 q 671 411 647 383 q 674 385 674 397 q 674 358 674 372 z "},"Æ":{"ha":1354,"x_min":172,"x_max":1617,"o":"m 1617 881 q 1608 913 1617 900 q 1585 933 1599 925 q 1553 943 1571 940 q 1521 946 1536 946 q 1362 917 1433 946 q 1222 836 1290 889 q 1236 858 1226 842 q 1257 893 1246 875 q 1276 927 1268 911 q 1285 949 1285 943 q 1280 958 1285 956 q 1269 961 1275 961 q 1182 931 1233 961 q 1071 851 1131 900 q 949 743 1011 803 q 833 626 888 683 q 735 518 778 568 q 669 440 692 468 q 647 501 658 472 q 618 557 635 529 q 582 603 603 581 q 536 642 561 625 q 483 670 511 660 q 426 681 456 681 q 357 661 388 681 q 306 611 326 642 q 274 544 285 581 q 264 474 264 508 q 275 381 264 428 q 306 291 286 335 q 354 208 326 247 q 417 139 382 169 q 385 100 404 122 q 345 58 367 78 q 299 25 324 39 q 251 11 275 11 q 221 20 235 11 q 207 49 207 29 q 211 65 207 56 q 225 75 215 75 q 244 71 236 75 q 264 67 253 67 q 307 88 292 67 q 322 135 322 110 q 269 188 322 188 q 229 176 247 188 q 199 149 211 165 q 179 111 186 132 q 172 71 172 90 q 192 10 172 35 q 249 -14 211 -14 q 306 -1 279 -14 q 357 33 333 13 q 400 76 381 53 q 436 122 419 100 q 499 87 468 99 q 569 67 531 75 l 524 0 l 717 0 l 765 79 q 793 31 774 50 q 838 2 813 13 q 893 -12 864 -8 q 949 -15 922 -15 q 1115 10 1033 -15 q 1267 83 1197 35 q 1310 119 1288 99 q 1350 163 1332 139 q 1379 215 1368 188 q 1390 269 1390 242 q 1353 349 1390 325 q 1265 372 1315 372 q 1098 333 1174 372 q 958 228 1022 293 q 916 181 935 204 q 881 128 897 157 l 897 118 q 967 200 924 158 q 1060 276 1010 242 q 1166 331 1111 310 q 1271 353 1221 353 q 1337 334 1307 353 q 1367 275 1367 315 q 1338 188 1367 228 q 1268 116 1310 147 q 1179 62 1226 85 q 1094 28 1132 39 q 946 7 1021 7 q 903 10 926 7 q 860 22 881 13 q 827 46 840 31 q 814 86 814 61 q 836 167 814 124 q 895 256 858 211 q 978 342 932 300 q 1072 419 1024 383 q 1164 481 1119 454 q 1243 521 1208 508 q 1281 506 1265 510 q 1321 503 1297 503 q 1344 506 1328 503 q 1360 521 1360 508 q 1353 533 1360 528 q 1339 540 1347 538 q 1322 542 1331 542 q 1308 543 1313 543 q 1247 538 1275 543 q 1210 566 1224 547 q 1197 610 1197 585 q 1215 678 1197 642 q 1260 749 1232 714 q 1326 815 1289 783 q 1401 872 1363 847 q 1478 910 1440 896 q 1546 924 1515 924 q 1580 913 1565 924 q 1594 882 1594 903 q 1564 803 1594 846 q 1489 725 1533 761 q 1396 665 1444 689 q 1313 640 1347 640 q 1289 647 1299 640 q 1279 668 1279 653 q 1288 701 1279 685 q 1309 731 1296 717 q 1338 756 1322 744 q 1365 775 1353 767 l 1358 792 q 1324 770 1342 783 q 1290 740 1306 757 q 1264 704 1274 724 q 1254 664 1254 685 q 1272 632 1254 643 q 1308 621 1289 621 q 1406 644 1353 621 q 1507 703 1460 667 q 1585 787 1554 740 q 1617 881 1617 833 m 1211 531 q 1099 503 1156 519 q 994 457 1043 488 l 1111 640 q 1147 573 1119 596 q 1211 531 1175 550 m 1256 932 q 1240 918 1249 928 q 1221 897 1231 908 q 1202 875 1211 886 q 1188 857 1193 864 q 1130 792 1158 825 q 1072 728 1101 760 q 1018 663 1044 696 q 965 599 992 631 q 858 463 911 531 q 753 325 804 396 q 715 274 733 299 q 678 222 697 249 q 682 264 681 243 q 683 306 683 285 q 681 359 683 333 q 675 413 678 385 q 746 492 703 444 q 840 595 789 540 q 946 706 890 650 q 1056 810 1001 763 q 1160 892 1110 858 q 1251 938 1211 926 l 1256 932 m 649 417 q 628 390 640 404 q 603 360 617 375 q 577 331 590 346 q 554 304 564 317 q 494 231 524 268 q 433 157 465 193 q 333 296 371 219 q 296 463 296 372 q 304 526 296 493 q 330 585 313 558 q 374 628 347 611 q 436 646 400 646 q 494 633 465 646 q 547 599 522 619 q 590 552 571 578 q 621 501 608 526 q 637 460 631 482 q 649 417 643 439 m 657 324 q 656 292 657 314 q 654 246 656 269 q 649 201 653 222 q 642 172 646 179 q 614 131 628 151 q 585 89 600 110 q 515 106 544 96 q 453 142 485 117 q 510 213 481 178 q 568 283 539 249 q 613 334 588 307 q 653 385 638 361 q 656 354 656 369 q 657 324 657 339 z "},"Ç":{"ha":1025,"x_min":322,"x_max":1396,"o":"m 1396 875 q 1387 908 1396 894 q 1364 931 1378 922 q 1333 942 1350 939 q 1299 946 1315 946 q 1164 927 1235 946 q 1019 876 1093 908 q 872 801 944 843 q 734 710 800 758 q 612 613 668 663 q 517 515 556 563 q 459 533 489 521 q 405 565 429 546 q 365 610 381 585 q 350 669 350 636 q 374 762 350 719 q 436 837 399 804 q 519 893 474 869 q 607 931 564 917 q 793 958 699 958 q 876 953 833 958 q 957 936 918 947 l 967 956 q 869 979 917 972 q 769 986 822 986 q 672 980 721 986 q 575 958 622 974 q 481 918 526 943 q 401 858 436 893 q 344 778 365 824 q 322 679 322 733 q 337 610 322 640 q 376 556 351 579 q 433 518 401 533 q 500 494 465 503 q 413 362 447 436 q 378 208 378 288 q 440 45 378 101 q 606 -11 501 -11 q 790 24 699 -11 q 950 122 881 60 q 1015 199 986 154 q 1044 292 1044 243 q 1033 340 1044 319 q 1003 374 1022 361 q 961 394 985 388 q 913 400 938 400 q 792 373 847 400 q 690 303 736 346 q 608 205 643 260 q 550 96 572 150 l 567 92 q 627 188 590 138 q 710 279 664 238 q 809 347 756 321 q 919 374 863 374 q 956 369 938 374 q 988 356 974 365 q 1012 331 1003 346 q 1021 296 1021 317 q 1013 250 1021 272 q 991 207 1004 228 q 962 167 978 186 q 929 135 946 149 q 779 44 867 78 q 607 11 692 11 q 560 17 583 11 q 519 35 538 22 q 490 67 501 47 q 479 114 479 86 q 503 210 479 158 q 562 311 528 261 q 634 406 596 361 q 701 483 672 450 q 738 485 721 483 q 774 490 754 488 q 945 530 861 506 q 1110 594 1029 554 q 1194 640 1144 611 q 1288 706 1243 669 q 1364 786 1332 743 q 1396 875 1396 829 m 632 -132 q 615 -82 632 -100 q 565 -64 597 -64 q 524 -73 544 -64 q 489 -97 504 -82 q 465 -133 474 -112 q 456 -174 456 -153 q 466 -205 456 -193 q 476 -229 476 -217 q 471 -249 476 -239 q 458 -270 465 -260 q 441 -290 450 -281 q 426 -304 432 -299 q 380 -338 401 -326 q 326 -362 358 -350 l 331 -381 q 374 -367 350 -376 q 424 -344 399 -357 q 472 -319 449 -332 q 511 -294 494 -306 q 553 -263 532 -281 q 592 -226 574 -246 q 621 -183 610 -206 q 632 -132 632 -160 m 1375 874 q 1343 793 1375 833 q 1267 717 1311 753 q 1175 653 1222 682 q 1097 611 1128 625 q 944 551 1022 575 q 782 513 865 528 q 751 508 767 510 q 719 506 736 506 q 788 585 746 540 q 878 676 829 629 q 983 767 928 722 q 1094 847 1039 811 q 1203 903 1150 882 q 1301 925 1256 925 q 1351 915 1326 925 q 1375 874 1375 904 z "},"È":{"ha":976,"x_min":292,"x_max":1303,"o":"m 1239 1021 l 1238 1171 l 1018 1171 l 1208 1019 l 1239 1021 m 1303 901 q 1294 931 1303 919 q 1271 947 1285 942 q 1241 954 1257 953 q 1211 956 1225 956 q 1010 929 1106 956 q 910 893 965 917 q 806 835 856 869 q 724 756 757 801 q 690 657 690 711 q 693 634 690 644 q 700 613 696 624 q 623 620 667 613 q 540 644 579 628 q 472 690 500 661 q 444 761 444 718 q 463 830 444 799 q 509 885 481 861 q 572 924 538 908 q 639 949 607 940 q 763 965 699 965 q 824 962 799 965 q 882 947 849 958 l 892 964 q 813 986 853 979 q 731 993 772 993 q 628 981 683 993 q 525 942 572 968 q 447 874 478 915 q 415 775 415 832 q 443 687 415 722 q 513 631 471 651 q 603 601 554 610 q 694 592 653 592 l 710 592 q 726 567 715 579 q 747 547 736 554 q 608 522 675 539 q 478 471 542 504 q 406 424 440 451 q 347 362 372 396 q 306 288 321 328 q 292 203 292 247 q 312 107 292 147 q 366 41 332 67 q 445 3 400 15 q 540 -10 490 -10 q 722 19 632 -10 q 883 107 811 49 q 956 184 924 139 q 988 283 988 229 q 975 331 988 311 q 942 362 963 350 q 898 378 922 374 q 850 383 874 383 q 737 363 793 383 q 631 306 681 342 q 539 226 581 271 q 471 132 497 181 l 485 122 q 551 199 511 158 q 628 267 592 239 q 739 332 676 306 q 865 358 801 358 q 931 340 899 358 q 963 283 963 322 q 951 228 963 254 q 921 178 939 201 q 880 136 903 156 q 835 101 857 117 q 699 38 772 60 q 550 15 625 15 q 506 19 529 15 q 463 34 482 24 q 431 62 443 44 q 418 106 418 79 q 455 222 418 157 q 545 350 492 288 q 657 462 599 413 q 760 529 715 511 q 829 511 793 511 q 842 512 833 511 q 858 515 850 513 q 873 521 867 517 q 879 532 879 525 q 871 544 879 540 q 851 551 863 549 q 829 555 840 554 q 814 556 818 556 q 771 550 789 556 q 765 565 765 556 q 774 594 765 579 q 937 624 854 601 q 1092 683 1019 647 q 1155 719 1118 697 q 1224 771 1192 742 q 1280 833 1257 800 q 1303 901 1303 867 m 1279 900 q 1256 838 1279 868 q 1199 780 1232 807 q 1131 731 1167 753 q 1072 697 1096 710 q 934 645 1006 665 q 788 618 863 625 q 851 700 814 663 q 928 772 882 732 q 1028 849 975 813 q 1135 909 1081 885 q 1235 933 1189 933 q 1265 926 1250 933 q 1279 900 1279 918 z "},"É":{"ha":976,"x_min":292,"x_max":1633,"o":"m 1633 1169 l 1315 1169 l 1203 1025 l 1243 1024 l 1633 1169 m 1303 901 q 1294 931 1303 919 q 1271 947 1285 942 q 1241 954 1257 953 q 1211 956 1225 956 q 1010 929 1106 956 q 910 893 965 917 q 806 835 856 869 q 724 756 757 801 q 690 657 690 711 q 693 634 690 644 q 700 613 696 624 q 623 620 667 613 q 540 644 579 628 q 472 690 500 661 q 444 761 444 718 q 463 830 444 799 q 509 885 481 861 q 572 924 538 908 q 639 949 607 940 q 763 965 699 965 q 824 962 799 965 q 882 947 849 958 l 892 964 q 813 986 853 979 q 731 993 772 993 q 628 981 683 993 q 525 942 572 968 q 447 874 478 915 q 415 775 415 832 q 443 687 415 722 q 513 631 471 651 q 603 601 554 610 q 694 592 653 592 l 710 592 q 726 567 715 579 q 747 547 736 554 q 608 522 675 539 q 478 471 542 504 q 406 424 440 451 q 347 362 372 396 q 306 288 321 328 q 292 203 292 247 q 312 107 292 147 q 366 41 332 67 q 445 3 400 15 q 540 -10 490 -10 q 722 19 632 -10 q 883 107 811 49 q 956 184 924 139 q 988 283 988 229 q 975 331 988 311 q 942 362 963 350 q 898 378 922 374 q 850 383 874 383 q 737 363 793 383 q 631 306 681 342 q 539 226 581 271 q 471 132 497 181 l 485 122 q 551 199 511 158 q 628 267 592 239 q 739 332 676 306 q 865 358 801 358 q 931 340 899 358 q 963 283 963 322 q 951 228 963 254 q 921 178 939 201 q 880 136 903 156 q 835 101 857 117 q 699 38 772 60 q 550 15 625 15 q 506 19 529 15 q 463 34 482 24 q 431 62 443 44 q 418 106 418 79 q 455 222 418 157 q 545 350 492 288 q 657 462 599 413 q 760 529 715 511 q 829 511 793 511 q 842 512 833 511 q 858 515 850 513 q 873 521 867 517 q 879 532 879 525 q 871 544 879 540 q 851 551 863 549 q 829 555 840 554 q 814 556 818 556 q 771 550 789 556 q 765 565 765 556 q 774 594 765 579 q 937 624 854 601 q 1092 683 1019 647 q 1155 719 1118 697 q 1224 771 1192 742 q 1280 833 1257 800 q 1303 901 1303 867 m 1279 900 q 1256 838 1279 868 q 1199 780 1232 807 q 1131 731 1167 753 q 1072 697 1096 710 q 934 645 1006 665 q 788 618 863 625 q 851 700 814 663 q 928 772 882 732 q 1028 849 975 813 q 1135 909 1081 885 q 1235 933 1189 933 q 1265 926 1250 933 q 1279 900 1279 918 z "},"Ê":{"ha":976,"x_min":292,"x_max":1372,"o":"m 1372 1018 l 1350 1206 l 1040 1017 q 1069 1016 1056 1017 q 1097 1015 1082 1015 q 1123 1023 1097 1015 q 1180 1040 1149 1031 q 1239 1057 1211 1049 q 1271 1067 1267 1065 l 1342 1018 l 1372 1018 m 1303 901 q 1294 931 1303 919 q 1271 947 1285 942 q 1241 954 1257 953 q 1211 956 1225 956 q 1010 929 1106 956 q 910 893 965 917 q 806 835 856 869 q 724 756 757 801 q 690 657 690 711 q 693 634 690 644 q 700 613 696 624 q 623 620 667 613 q 540 644 579 628 q 472 690 500 661 q 444 761 444 718 q 463 830 444 799 q 509 885 481 861 q 572 924 538 908 q 639 949 607 940 q 763 965 699 965 q 824 962 799 965 q 882 947 849 958 l 892 964 q 813 986 853 979 q 731 993 772 993 q 628 981 683 993 q 525 942 572 968 q 447 874 478 915 q 415 775 415 832 q 443 687 415 722 q 513 631 471 651 q 603 601 554 610 q 694 592 653 592 l 710 592 q 726 567 715 579 q 747 547 736 554 q 608 522 675 539 q 478 471 542 504 q 406 424 440 451 q 347 362 372 396 q 306 288 321 328 q 292 203 292 247 q 312 107 292 147 q 366 41 332 67 q 445 3 400 15 q 540 -10 490 -10 q 722 19 632 -10 q 883 107 811 49 q 956 184 924 139 q 988 283 988 229 q 975 331 988 311 q 942 362 963 350 q 898 378 922 374 q 850 383 874 383 q 737 363 793 383 q 631 306 681 342 q 539 226 581 271 q 471 132 497 181 l 485 122 q 551 199 511 158 q 628 267 592 239 q 739 332 676 306 q 865 358 801 358 q 931 340 899 358 q 963 283 963 322 q 951 228 963 254 q 921 178 939 201 q 880 136 903 156 q 835 101 857 117 q 699 38 772 60 q 550 15 625 15 q 506 19 529 15 q 463 34 482 24 q 431 62 443 44 q 418 106 418 79 q 455 222 418 157 q 545 350 492 288 q 657 462 599 413 q 760 529 715 511 q 829 511 793 511 q 842 512 833 511 q 858 515 850 513 q 873 521 867 517 q 879 532 879 525 q 871 544 879 540 q 851 551 863 549 q 829 555 840 554 q 814 556 818 556 q 771 550 789 556 q 765 565 765 556 q 774 594 765 579 q 937 624 854 601 q 1092 683 1019 647 q 1155 719 1118 697 q 1224 771 1192 742 q 1280 833 1257 800 q 1303 901 1303 867 m 1279 900 q 1256 838 1279 868 q 1199 780 1232 807 q 1131 731 1167 753 q 1072 697 1096 710 q 934 645 1006 665 q 788 618 863 625 q 851 700 814 663 q 928 772 882 732 q 1028 849 975 813 q 1135 909 1081 885 q 1235 933 1189 933 q 1265 926 1250 933 q 1279 900 1279 918 z "},"Ë":{"ha":976,"x_min":292,"x_max":1446,"o":"m 1446 1124 q 1427 1170 1446 1153 q 1381 1188 1408 1188 q 1340 1178 1360 1188 q 1305 1154 1321 1169 q 1279 1120 1289 1139 q 1269 1081 1269 1101 q 1287 1033 1269 1050 q 1335 1015 1304 1015 q 1376 1024 1356 1015 q 1411 1049 1396 1033 q 1436 1083 1426 1064 q 1446 1124 1446 1103 m 1196 1124 q 1177 1170 1196 1153 q 1131 1188 1158 1188 q 1090 1178 1110 1188 q 1055 1154 1071 1169 q 1029 1120 1039 1139 q 1019 1081 1019 1101 q 1037 1033 1019 1050 q 1085 1015 1054 1015 q 1126 1024 1106 1015 q 1161 1049 1146 1033 q 1186 1083 1176 1064 q 1196 1124 1196 1103 m 1303 901 q 1294 931 1303 919 q 1271 947 1285 942 q 1241 954 1257 953 q 1211 956 1225 956 q 1010 929 1106 956 q 910 893 965 917 q 806 835 856 869 q 724 756 757 801 q 690 657 690 711 q 693 634 690 644 q 700 613 696 624 q 623 620 667 613 q 540 644 579 628 q 472 690 500 661 q 444 761 444 718 q 463 830 444 799 q 509 885 481 861 q 572 924 538 908 q 639 949 607 940 q 763 965 699 965 q 824 962 799 965 q 882 947 849 958 l 892 964 q 813 986 853 979 q 731 993 772 993 q 628 981 683 993 q 525 942 572 968 q 447 874 478 915 q 415 775 415 832 q 443 687 415 722 q 513 631 471 651 q 603 601 554 610 q 694 592 653 592 l 710 592 q 726 567 715 579 q 747 547 736 554 q 608 522 675 539 q 478 471 542 504 q 406 424 440 451 q 347 362 372 396 q 306 288 321 328 q 292 203 292 247 q 312 107 292 147 q 366 41 332 67 q 445 3 400 15 q 540 -10 490 -10 q 722 19 632 -10 q 883 107 811 49 q 956 184 924 139 q 988 283 988 229 q 975 331 988 311 q 942 362 963 350 q 898 378 922 374 q 850 383 874 383 q 737 363 793 383 q 631 306 681 342 q 539 226 581 271 q 471 132 497 181 l 485 122 q 551 199 511 158 q 628 267 592 239 q 739 332 676 306 q 865 358 801 358 q 931 340 899 358 q 963 283 963 322 q 951 228 963 254 q 921 178 939 201 q 880 136 903 156 q 835 101 857 117 q 699 38 772 60 q 550 15 625 15 q 506 19 529 15 q 463 34 482 24 q 431 62 443 44 q 418 106 418 79 q 455 222 418 157 q 545 350 492 288 q 657 462 599 413 q 760 529 715 511 q 829 511 793 511 q 842 512 833 511 q 858 515 850 513 q 873 521 867 517 q 879 532 879 525 q 871 544 879 540 q 851 551 863 549 q 829 555 840 554 q 814 556 818 556 q 771 550 789 556 q 765 565 765 556 q 774 594 765 579 q 937 624 854 601 q 1092 683 1019 647 q 1155 719 1118 697 q 1224 771 1192 742 q 1280 833 1257 800 q 1303 901 1303 867 m 1279 900 q 1256 838 1279 868 q 1199 780 1232 807 q 1131 731 1167 753 q 1072 697 1096 710 q 934 645 1006 665 q 788 618 863 625 q 851 700 814 663 q 928 772 882 732 q 1028 849 975 813 q 1135 909 1081 885 q 1235 933 1189 933 q 1265 926 1250 933 q 1279 900 1279 918 z "},"Ì":{"ha":799,"x_min":-44,"x_max":1353,"o":"m 1174 1021 l 1172 1171 l 953 1171 l 1143 1019 l 1174 1021 m 1353 953 q 1348 960 1353 958 q 1339 963 1343 963 q 1274 949 1306 963 q 1210 933 1243 936 q 1086 925 1150 928 q 958 915 1022 922 q 834 890 894 907 q 721 840 774 874 q 640 761 672 810 q 607 653 607 713 q 642 558 607 593 q 731 506 678 522 q 592 307 664 404 q 429 128 519 210 q 300 47 374 79 q 151 14 226 14 q 105 17 133 14 q 50 30 76 21 q 5 56 24 39 q -14 97 -14 72 q -10 113 -14 104 q 3 122 -7 122 q 28 113 17 122 q 63 104 40 104 q 108 121 89 104 q 126 165 126 138 q 108 206 126 192 q 65 221 90 221 q 24 212 44 221 q -11 187 4 203 q -35 151 -26 171 q -44 110 -44 131 q -19 46 -44 69 q 41 10 6 22 q 115 -6 76 -3 q 183 -10 154 -10 q 359 9 265 -10 q 526 65 453 28 q 614 122 574 89 q 690 192 654 154 q 728 232 710 211 q 764 275 747 253 q 835 381 804 325 q 897 493 865 438 l 904 506 q 964 527 932 513 q 1027 560 996 542 q 1086 599 1058 578 q 1133 642 1114 621 l 1121 656 q 1076 620 1100 639 q 1026 585 1051 601 q 973 555 1000 568 q 921 535 946 542 q 971 623 943 576 q 1030 715 999 669 q 1097 800 1061 760 q 1168 872 1132 840 q 1208 901 1190 892 q 1242 917 1225 911 q 1279 926 1260 922 q 1325 938 1299 931 q 1342 942 1331 939 q 1353 953 1353 944 m 1193 914 q 1149 887 1174 899 q 1103 863 1125 875 q 1002 797 1053 835 q 905 714 951 758 q 817 622 858 669 q 744 525 776 574 q 670 562 700 532 q 640 638 640 592 q 664 716 640 679 q 722 782 688 753 q 797 833 757 811 q 872 867 838 854 q 1031 901 947 894 q 1193 914 1114 907 z "},"Í":{"ha":799,"x_min":-44,"x_max":1531,"o":"m 1531 1169 l 1214 1169 l 1100 1025 l 1140 1024 l 1531 1169 m 1353 953 q 1348 960 1353 958 q 1339 963 1343 963 q 1274 949 1306 963 q 1210 933 1243 936 q 1086 925 1150 928 q 958 915 1022 922 q 834 890 894 907 q 721 840 774 874 q 640 761 672 810 q 607 653 607 713 q 642 558 607 593 q 731 506 678 522 q 592 307 664 404 q 429 128 519 210 q 300 47 374 79 q 151 14 226 14 q 105 17 133 14 q 50 30 76 21 q 5 56 24 39 q -14 97 -14 72 q -10 113 -14 104 q 3 122 -7 122 q 28 113 17 122 q 63 104 40 104 q 108 121 89 104 q 126 165 126 138 q 108 206 126 192 q 65 221 90 221 q 24 212 44 221 q -11 187 4 203 q -35 151 -26 171 q -44 110 -44 131 q -19 46 -44 69 q 41 10 6 22 q 115 -6 76 -3 q 183 -10 154 -10 q 359 9 265 -10 q 526 65 453 28 q 614 122 574 89 q 690 192 654 154 q 728 232 710 211 q 764 275 747 253 q 835 381 804 325 q 897 493 865 438 l 904 506 q 964 527 932 513 q 1027 560 996 542 q 1086 599 1058 578 q 1133 642 1114 621 l 1121 656 q 1076 620 1100 639 q 1026 585 1051 601 q 973 555 1000 568 q 921 535 946 542 q 971 623 943 576 q 1030 715 999 669 q 1097 800 1061 760 q 1168 872 1132 840 q 1208 901 1190 892 q 1242 917 1225 911 q 1279 926 1260 922 q 1325 938 1299 931 q 1342 942 1331 939 q 1353 953 1353 944 m 1193 914 q 1149 887 1174 899 q 1103 863 1125 875 q 1002 797 1053 835 q 905 714 951 758 q 817 622 858 669 q 744 525 776 574 q 670 562 700 532 q 640 638 640 592 q 664 716 640 679 q 722 782 688 753 q 797 833 757 811 q 872 867 838 854 q 1031 901 947 894 q 1193 914 1114 907 z "},"Î":{"ha":799,"x_min":-44,"x_max":1353,"o":"m 1251 1018 l 1229 1206 l 919 1017 q 948 1016 935 1017 q 976 1015 961 1015 q 1002 1023 976 1015 q 1059 1040 1028 1031 q 1118 1057 1090 1049 q 1150 1067 1146 1065 l 1221 1018 l 1251 1018 m 1353 953 q 1348 960 1353 958 q 1339 963 1343 963 q 1274 949 1306 963 q 1210 933 1243 936 q 1086 925 1150 928 q 958 915 1022 922 q 834 890 894 907 q 721 840 774 874 q 640 761 672 810 q 607 653 607 713 q 642 558 607 593 q 731 506 678 522 q 592 307 664 404 q 429 128 519 210 q 300 47 374 79 q 151 14 226 14 q 105 17 133 14 q 50 30 76 21 q 5 56 24 39 q -14 97 -14 72 q -10 113 -14 104 q 3 122 -7 122 q 28 113 17 122 q 63 104 40 104 q 108 121 89 104 q 126 165 126 138 q 108 206 126 192 q 65 221 90 221 q 24 212 44 221 q -11 187 4 203 q -35 151 -26 171 q -44 110 -44 131 q -19 46 -44 69 q 41 10 6 22 q 115 -6 76 -3 q 183 -10 154 -10 q 359 9 265 -10 q 526 65 453 28 q 614 122 574 89 q 690 192 654 154 q 728 232 710 211 q 764 275 747 253 q 835 381 804 325 q 897 493 865 438 l 904 506 q 964 527 932 513 q 1027 560 996 542 q 1086 599 1058 578 q 1133 642 1114 621 l 1121 656 q 1076 620 1100 639 q 1026 585 1051 601 q 973 555 1000 568 q 921 535 946 542 q 971 623 943 576 q 1030 715 999 669 q 1097 800 1061 760 q 1168 872 1132 840 q 1208 901 1190 892 q 1242 917 1225 911 q 1279 926 1260 922 q 1325 938 1299 931 q 1342 942 1331 939 q 1353 953 1353 944 m 1193 914 q 1149 887 1174 899 q 1103 863 1125 875 q 1002 797 1053 835 q 905 714 951 758 q 817 622 858 669 q 744 525 776 574 q 670 562 700 532 q 640 638 640 592 q 664 716 640 679 q 722 782 688 753 q 797 833 757 811 q 872 867 838 854 q 1031 901 947 894 q 1193 914 1114 907 z "},"Ï":{"ha":799,"x_min":-44,"x_max":1353,"o":"m 1339 1124 q 1320 1170 1339 1153 q 1274 1188 1301 1188 q 1233 1178 1253 1188 q 1198 1154 1214 1169 q 1172 1120 1182 1139 q 1163 1081 1163 1101 q 1180 1033 1163 1050 q 1228 1015 1197 1015 q 1269 1024 1249 1015 q 1304 1049 1289 1033 q 1329 1083 1319 1064 q 1339 1124 1339 1103 m 1126 1124 q 1108 1170 1126 1153 q 1060 1188 1089 1188 q 1020 1178 1040 1188 q 984 1154 1000 1169 q 958 1120 968 1139 q 949 1081 949 1101 q 966 1033 949 1050 q 1014 1015 983 1015 q 1055 1024 1035 1015 q 1091 1048 1075 1033 q 1117 1083 1107 1063 q 1126 1124 1126 1103 m 1353 953 q 1348 960 1353 958 q 1339 963 1343 963 q 1274 949 1306 963 q 1210 933 1243 936 q 1086 925 1150 928 q 958 915 1022 922 q 834 890 894 907 q 721 840 774 874 q 640 761 672 810 q 607 653 607 713 q 642 558 607 593 q 731 506 678 522 q 592 307 664 404 q 429 128 519 210 q 300 47 374 79 q 151 14 226 14 q 105 17 133 14 q 50 30 76 21 q 5 56 24 39 q -14 97 -14 72 q -10 113 -14 104 q 3 122 -7 122 q 28 113 17 122 q 63 104 40 104 q 108 121 89 104 q 126 165 126 138 q 108 206 126 192 q 65 221 90 221 q 24 212 44 221 q -11 187 4 203 q -35 151 -26 171 q -44 110 -44 131 q -19 46 -44 69 q 41 10 6 22 q 115 -6 76 -3 q 183 -10 154 -10 q 359 9 265 -10 q 526 65 453 28 q 614 122 574 89 q 690 192 654 154 q 728 232 710 211 q 764 275 747 253 q 835 381 804 325 q 897 493 865 438 l 904 506 q 964 527 932 513 q 1027 560 996 542 q 1086 599 1058 578 q 1133 642 1114 621 l 1121 656 q 1076 620 1100 639 q 1026 585 1051 601 q 973 555 1000 568 q 921 535 946 542 q 971 623 943 576 q 1030 715 999 669 q 1097 800 1061 760 q 1168 872 1132 840 q 1208 901 1190 892 q 1242 917 1225 911 q 1279 926 1260 922 q 1325 938 1299 931 q 1342 942 1331 939 q 1353 953 1353 944 m 1193 914 q 1149 887 1174 899 q 1103 863 1125 875 q 1002 797 1053 835 q 905 714 951 758 q 817 622 858 669 q 744 525 776 574 q 670 562 700 532 q 640 638 640 592 q 664 716 640 679 q 722 782 688 753 q 797 833 757 811 q 872 867 838 854 q 1031 901 947 894 q 1193 914 1114 907 z "},"Ñ":{"ha":878,"x_min":-49,"x_max":1426,"o":"m 1426 1160 l 1385 1160 q 1361 1138 1375 1150 q 1332 1125 1347 1125 q 1306 1133 1319 1125 q 1279 1151 1293 1142 q 1250 1169 1265 1161 q 1218 1178 1235 1178 q 1167 1163 1193 1178 q 1116 1127 1140 1149 q 1071 1082 1092 1106 q 1036 1040 1050 1058 l 1082 1040 q 1103 1065 1090 1051 q 1132 1078 1117 1078 q 1156 1069 1143 1078 q 1181 1051 1168 1061 q 1210 1032 1194 1040 q 1242 1024 1225 1024 q 1293 1038 1265 1024 q 1347 1072 1321 1051 q 1393 1117 1372 1093 q 1426 1160 1414 1140 m 1426 867 q 1407 918 1426 899 q 1356 938 1388 938 q 1303 924 1329 938 q 1253 889 1276 910 q 1209 845 1229 868 q 1174 804 1189 822 q 1060 653 1113 731 q 954 496 1007 575 l 854 349 q 804 277 831 315 q 749 201 778 239 q 689 127 719 163 q 629 64 658 92 l 624 68 q 645 99 636 82 q 665 132 654 117 q 706 194 686 164 q 747 257 726 225 q 833 435 800 339 q 878 628 867 531 q 883 689 881 653 q 890 763 886 725 q 901 835 894 800 q 918 892 907 869 q 931 915 924 904 q 944 938 938 926 q 850 873 894 911 q 767 794 806 835 q 660 669 708 735 q 563 538 611 604 q 417 342 492 439 q 260 157 343 244 q 213 111 239 136 q 158 65 188 86 q 96 31 128 44 q 33 17 64 17 q -3 27 13 17 q -18 61 -18 38 q -15 78 -18 69 q 0 88 -11 88 q 17 79 11 88 q 40 71 22 71 q 85 90 65 71 q 106 135 106 108 q 88 171 106 158 q 50 183 71 183 q 11 173 29 183 q -20 146 -7 163 q -41 108 -33 129 q -49 68 -49 88 q -26 13 -49 32 q 31 -6 -3 -6 q 99 8 65 -6 q 165 43 133 22 q 224 90 196 64 q 275 139 253 115 q 432 322 358 226 q 575 514 506 417 q 669 644 622 581 q 771 767 717 707 q 829 828 800 799 q 894 882 858 857 q 853 821 875 850 q 810 761 831 792 q 710 578 750 676 q 656 376 671 479 l 633 215 q 625 155 629 183 q 614 100 621 126 q 596 47 607 74 q 565 -6 585 21 q 592 3 578 -6 q 619 26 606 13 q 644 52 633 39 q 664 74 656 65 q 773 201 722 136 q 872 336 824 267 q 922 408 897 372 q 969 481 946 444 q 1033 576 997 522 q 1106 683 1068 629 q 1185 787 1144 738 q 1263 869 1225 836 q 1303 900 1279 885 q 1350 915 1326 915 q 1378 906 1365 915 q 1392 881 1392 897 q 1388 867 1392 874 q 1375 860 1383 860 q 1361 861 1368 860 q 1347 863 1354 863 q 1313 849 1326 863 q 1299 815 1299 836 q 1315 781 1299 794 q 1350 768 1331 768 q 1384 777 1369 768 q 1408 801 1399 786 q 1422 833 1417 815 q 1426 867 1426 850 z "},"Ò":{"ha":843,"x_min":165,"x_max":1239,"o":"m 1129 1021 l 1128 1171 l 908 1171 l 1099 1019 l 1129 1021 m 1239 826 q 1223 885 1239 861 q 1181 924 1207 910 q 1124 945 1156 939 q 1064 951 1093 951 q 886 927 976 951 q 710 863 796 903 q 547 769 625 822 q 406 660 469 717 q 316 569 360 618 q 239 466 272 521 q 185 351 206 411 q 165 225 165 290 q 179 137 165 179 q 220 63 193 94 q 286 13 247 32 q 374 -6 325 -6 q 519 22 449 -6 q 650 93 589 50 q 763 184 708 135 q 865 286 817 233 q 931 367 896 321 q 997 466 967 414 q 1047 571 1026 518 q 1067 672 1067 624 q 1040 747 1067 721 q 964 774 1013 774 q 844 746 910 774 q 723 674 779 718 q 629 572 667 629 q 592 457 592 515 q 611 400 592 425 q 664 375 631 375 q 732 391 699 375 q 795 432 765 407 q 850 487 825 457 q 893 543 875 517 q 921 587 908 567 q 940 635 933 607 l 926 640 q 885 567 913 610 q 822 487 857 525 q 747 422 786 449 q 669 394 707 394 q 648 401 657 394 q 639 422 639 408 q 652 469 639 443 q 683 521 665 494 q 721 570 701 547 q 753 607 740 593 q 799 652 772 628 q 855 698 825 676 q 917 734 885 719 q 979 749 949 749 q 1030 725 1014 749 q 1046 669 1046 701 q 1018 551 1046 613 q 949 429 990 489 q 861 317 908 369 q 776 226 814 264 q 690 151 736 189 q 593 83 644 113 q 486 34 542 53 q 374 15 431 15 q 332 21 353 15 q 295 38 311 26 q 269 66 279 49 q 258 107 258 83 q 270 183 258 144 q 301 258 282 222 q 342 329 319 294 q 386 393 365 364 q 469 503 421 443 q 573 622 517 563 q 692 735 629 681 q 822 833 756 790 q 957 900 889 875 q 1092 925 1025 925 q 1133 919 1113 925 q 1172 902 1154 914 q 1200 873 1189 890 q 1211 832 1211 856 q 1177 733 1211 772 q 1094 667 1143 693 l 1100 654 q 1198 718 1157 674 q 1239 826 1239 763 z "},"Ó":{"ha":843,"x_min":165,"x_max":1485,"o":"m 1485 1169 l 1168 1169 l 1056 1025 l 1096 1024 l 1485 1169 m 1239 826 q 1223 885 1239 861 q 1181 924 1207 910 q 1124 945 1156 939 q 1064 951 1093 951 q 886 927 976 951 q 710 863 796 903 q 547 769 625 822 q 406 660 469 717 q 316 569 360 618 q 239 466 272 521 q 185 351 206 411 q 165 225 165 290 q 179 137 165 179 q 220 63 193 94 q 286 13 247 32 q 374 -6 325 -6 q 519 22 449 -6 q 650 93 589 50 q 763 184 708 135 q 865 286 817 233 q 931 367 896 321 q 997 466 967 414 q 1047 571 1026 518 q 1067 672 1067 624 q 1040 747 1067 721 q 964 774 1013 774 q 844 746 910 774 q 723 674 779 718 q 629 572 667 629 q 592 457 592 515 q 611 400 592 425 q 664 375 631 375 q 732 391 699 375 q 795 432 765 407 q 850 487 825 457 q 893 543 875 517 q 921 587 908 567 q 940 635 933 607 l 926 640 q 885 567 913 610 q 822 487 857 525 q 747 422 786 449 q 669 394 707 394 q 648 401 657 394 q 639 422 639 408 q 652 469 639 443 q 683 521 665 494 q 721 570 701 547 q 753 607 740 593 q 799 652 772 628 q 855 698 825 676 q 917 734 885 719 q 979 749 949 749 q 1030 725 1014 749 q 1046 669 1046 701 q 1018 551 1046 613 q 949 429 990 489 q 861 317 908 369 q 776 226 814 264 q 690 151 736 189 q 593 83 644 113 q 486 34 542 53 q 374 15 431 15 q 332 21 353 15 q 295 38 311 26 q 269 66 279 49 q 258 107 258 83 q 270 183 258 144 q 301 258 282 222 q 342 329 319 294 q 386 393 365 364 q 469 503 421 443 q 573 622 517 563 q 692 735 629 681 q 822 833 756 790 q 957 900 889 875 q 1092 925 1025 925 q 1133 919 1113 925 q 1172 902 1154 914 q 1200 873 1189 890 q 1211 832 1211 856 q 1177 733 1211 772 q 1094 667 1143 693 l 1100 654 q 1198 718 1157 674 q 1239 826 1239 763 z "},"Ô":{"ha":843,"x_min":165,"x_max":1239,"o":"m 1233 1018 l 1211 1206 l 901 1017 q 930 1016 917 1017 q 958 1015 943 1015 q 984 1023 958 1015 q 1041 1040 1010 1031 q 1100 1057 1072 1049 q 1132 1067 1128 1065 l 1203 1018 l 1233 1018 m 1239 826 q 1223 885 1239 861 q 1181 924 1207 910 q 1124 945 1156 939 q 1064 951 1093 951 q 886 927 976 951 q 710 863 796 903 q 547 769 625 822 q 406 660 469 717 q 316 569 360 618 q 239 466 272 521 q 185 351 206 411 q 165 225 165 290 q 179 137 165 179 q 220 63 193 94 q 286 13 247 32 q 374 -6 325 -6 q 519 22 449 -6 q 650 93 589 50 q 763 184 708 135 q 865 286 817 233 q 931 367 896 321 q 997 466 967 414 q 1047 571 1026 518 q 1067 672 1067 624 q 1040 747 1067 721 q 964 774 1013 774 q 844 746 910 774 q 723 674 779 718 q 629 572 667 629 q 592 457 592 515 q 611 400 592 425 q 664 375 631 375 q 732 391 699 375 q 795 432 765 407 q 850 487 825 457 q 893 543 875 517 q 921 587 908 567 q 940 635 933 607 l 926 640 q 885 567 913 610 q 822 487 857 525 q 747 422 786 449 q 669 394 707 394 q 648 401 657 394 q 639 422 639 408 q 652 469 639 443 q 683 521 665 494 q 721 570 701 547 q 753 607 740 593 q 799 652 772 628 q 855 698 825 676 q 917 734 885 719 q 979 749 949 749 q 1030 725 1014 749 q 1046 669 1046 701 q 1018 551 1046 613 q 949 429 990 489 q 861 317 908 369 q 776 226 814 264 q 690 151 736 189 q 593 83 644 113 q 486 34 542 53 q 374 15 431 15 q 332 21 353 15 q 295 38 311 26 q 269 66 279 49 q 258 107 258 83 q 270 183 258 144 q 301 258 282 222 q 342 329 319 294 q 386 393 365 364 q 469 503 421 443 q 573 622 517 563 q 692 735 629 681 q 822 833 756 790 q 957 900 889 875 q 1092 925 1025 925 q 1133 919 1113 925 q 1172 902 1154 914 q 1200 873 1189 890 q 1211 832 1211 856 q 1177 733 1211 772 q 1094 667 1143 693 l 1100 654 q 1198 718 1157 674 q 1239 826 1239 763 z "},"Õ":{"ha":843,"x_min":165,"x_max":1314,"o":"m 1314 1160 l 1272 1160 q 1249 1137 1263 1149 q 1219 1125 1235 1125 q 1195 1133 1208 1125 q 1168 1151 1182 1142 q 1139 1169 1154 1161 q 1107 1178 1124 1178 q 1056 1163 1082 1178 q 1005 1127 1029 1149 q 960 1082 981 1106 q 925 1040 939 1058 l 969 1040 q 991 1065 978 1051 q 1019 1078 1004 1078 q 1042 1069 1031 1078 q 1068 1051 1054 1061 q 1097 1032 1082 1040 q 1131 1024 1113 1024 q 1181 1038 1154 1024 q 1234 1072 1208 1051 q 1281 1117 1260 1093 q 1314 1160 1301 1140 m 1239 826 q 1223 885 1239 861 q 1181 924 1207 910 q 1124 945 1156 939 q 1064 951 1093 951 q 886 927 976 951 q 710 863 796 903 q 547 769 625 822 q 406 660 469 717 q 316 569 360 618 q 239 466 272 521 q 185 351 206 411 q 165 225 165 290 q 179 137 165 179 q 220 63 193 94 q 286 13 247 32 q 374 -6 325 -6 q 519 22 449 -6 q 650 93 589 50 q 763 184 708 135 q 865 286 817 233 q 931 367 896 321 q 997 466 967 414 q 1047 571 1026 518 q 1067 672 1067 624 q 1040 747 1067 721 q 964 774 1013 774 q 844 746 910 774 q 723 674 779 718 q 629 572 667 629 q 592 457 592 515 q 611 400 592 425 q 664 375 631 375 q 732 391 699 375 q 795 432 765 407 q 850 487 825 457 q 893 543 875 517 q 921 587 908 567 q 940 635 933 607 l 926 640 q 885 567 913 610 q 822 487 857 525 q 747 422 786 449 q 669 394 707 394 q 648 401 657 394 q 639 422 639 408 q 652 469 639 443 q 683 521 665 494 q 721 570 701 547 q 753 607 740 593 q 799 652 772 628 q 855 698 825 676 q 917 734 885 719 q 979 749 949 749 q 1030 725 1014 749 q 1046 669 1046 701 q 1018 551 1046 613 q 949 429 990 489 q 861 317 908 369 q 776 226 814 264 q 690 151 736 189 q 593 83 644 113 q 486 34 542 53 q 374 15 431 15 q 332 21 353 15 q 295 38 311 26 q 269 66 279 49 q 258 107 258 83 q 270 183 258 144 q 301 258 282 222 q 342 329 319 294 q 386 393 365 364 q 469 503 421 443 q 573 622 517 563 q 692 735 629 681 q 822 833 756 790 q 957 900 889 875 q 1092 925 1025 925 q 1133 919 1113 925 q 1172 902 1154 914 q 1200 873 1189 890 q 1211 832 1211 856 q 1177 733 1211 772 q 1094 667 1143 693 l 1100 654 q 1198 718 1157 674 q 1239 826 1239 763 z "},"Ö":{"ha":843,"x_min":165,"x_max":1299,"o":"m 1299 1124 q 1280 1170 1299 1153 q 1232 1188 1261 1188 q 1192 1178 1213 1188 q 1157 1154 1172 1169 q 1132 1120 1142 1139 q 1122 1081 1122 1101 q 1139 1033 1122 1051 q 1186 1015 1156 1015 q 1227 1024 1207 1015 q 1263 1048 1247 1033 q 1289 1083 1279 1063 q 1299 1124 1299 1103 m 1049 1124 q 1030 1170 1049 1153 q 982 1188 1011 1188 q 942 1178 963 1188 q 907 1154 922 1169 q 882 1120 892 1139 q 872 1081 872 1101 q 889 1033 872 1051 q 936 1015 906 1015 q 977 1024 957 1015 q 1013 1048 997 1033 q 1039 1083 1029 1063 q 1049 1124 1049 1103 m 1239 826 q 1223 885 1239 861 q 1181 924 1207 910 q 1124 945 1156 939 q 1064 951 1093 951 q 886 927 976 951 q 710 863 796 903 q 547 769 625 822 q 406 660 469 717 q 316 569 360 618 q 239 466 272 521 q 185 351 206 411 q 165 225 165 290 q 179 137 165 179 q 220 63 193 94 q 286 13 247 32 q 374 -6 325 -6 q 519 22 449 -6 q 650 93 589 50 q 763 184 708 135 q 865 286 817 233 q 931 367 896 321 q 997 466 967 414 q 1047 571 1026 518 q 1067 672 1067 624 q 1040 747 1067 721 q 964 774 1013 774 q 844 746 910 774 q 723 674 779 718 q 629 572 667 629 q 592 457 592 515 q 611 400 592 425 q 664 375 631 375 q 732 391 699 375 q 795 432 765 407 q 850 487 825 457 q 893 543 875 517 q 921 587 908 567 q 940 635 933 607 l 926 640 q 885 567 913 610 q 822 487 857 525 q 747 422 786 449 q 669 394 707 394 q 648 401 657 394 q 639 422 639 408 q 652 469 639 443 q 683 521 665 494 q 721 570 701 547 q 753 607 740 593 q 799 652 772 628 q 855 698 825 676 q 917 734 885 719 q 979 749 949 749 q 1030 725 1014 749 q 1046 669 1046 701 q 1018 551 1046 613 q 949 429 990 489 q 861 317 908 369 q 776 226 814 264 q 690 151 736 189 q 593 83 644 113 q 486 34 542 53 q 374 15 431 15 q 332 21 353 15 q 295 38 311 26 q 269 66 279 49 q 258 107 258 83 q 270 183 258 144 q 301 258 282 222 q 342 329 319 294 q 386 393 365 364 q 469 503 421 443 q 573 622 517 563 q 692 735 629 681 q 822 833 756 790 q 957 900 889 875 q 1092 925 1025 925 q 1133 919 1113 925 q 1172 902 1154 914 q 1200 873 1189 890 q 1211 832 1211 856 q 1177 733 1211 772 q 1094 667 1143 693 l 1100 654 q 1198 718 1157 674 q 1239 826 1239 763 z "},"Ø":{"ha":843,"x_min":39,"x_max":1368,"o":"m 1368 894 l 1354 918 l 1236 844 q 1213 897 1229 876 q 1172 930 1196 918 q 1121 947 1149 942 q 1064 951 1093 951 q 885 927 975 951 q 710 863 796 903 q 547 769 625 822 q 406 660 469 717 q 317 571 360 619 q 240 467 274 522 q 185 351 206 411 q 165 226 165 290 q 167 199 165 213 q 171 172 168 186 l 39 90 l 56 64 l 178 142 q 250 33 201 71 q 374 -6 299 -6 q 519 23 449 -6 q 650 93 589 51 q 763 184 708 135 q 865 286 817 233 q 931 367 896 321 q 997 466 967 414 q 1047 572 1026 518 q 1067 674 1067 625 q 1066 688 1067 681 q 1063 701 1065 694 l 1206 792 q 1188 749 1199 767 q 1165 717 1178 731 q 1134 691 1151 703 q 1094 667 1117 679 l 1099 654 q 1193 713 1157 674 q 1238 813 1229 751 l 1368 894 m 1033 717 l 658 481 q 714 561 678 515 q 794 649 750 607 q 888 719 839 690 q 979 749 936 749 q 1011 742 999 749 q 1033 717 1024 736 m 1211 829 l 1053 729 q 1015 765 1038 757 q 963 772 993 772 q 845 745 910 772 q 724 674 781 718 q 630 574 668 629 q 592 461 592 518 q 592 450 592 456 q 593 439 592 444 l 299 253 q 340 324 318 290 q 386 393 363 358 q 500 542 440 469 q 628 679 560 614 q 726 764 671 721 q 841 843 781 807 q 965 902 901 879 q 1092 925 1029 925 q 1173 902 1138 925 q 1211 829 1208 879 m 907 603 q 865 541 892 576 q 807 473 839 506 q 739 417 775 440 q 669 394 703 394 q 648 402 657 394 q 639 422 639 410 q 640 433 639 429 l 907 603 m 1044 665 q 1017 549 1044 611 q 948 427 989 488 q 860 314 907 367 q 776 226 814 261 q 691 151 738 189 q 593 83 644 113 q 486 34 542 53 q 374 15 431 15 q 293 39 328 15 q 258 113 258 63 q 263 160 258 139 q 276 204 268 181 l 603 411 q 669 375 625 375 q 750 401 708 375 q 828 465 792 428 q 894 545 865 503 q 936 621 922 588 l 1043 689 q 1044 676 1044 682 q 1044 665 1044 672 z "},"Ù":{"ha":1093,"x_min":331,"x_max":1533,"o":"m 1219 1021 l 1218 1171 l 999 1171 l 1189 1019 l 1219 1021 m 1533 936 l 1357 936 l 1110 613 q 1006 485 1060 546 q 896 364 953 424 q 841 308 875 342 q 766 235 807 274 q 680 156 725 196 q 591 85 635 117 q 508 34 547 54 q 439 14 468 14 q 420 17 429 14 q 411 32 411 21 q 423 66 411 46 q 451 107 435 86 q 485 146 468 128 q 510 175 501 164 l 807 526 q 855 583 829 553 q 902 648 881 614 q 938 718 924 682 q 953 790 953 754 q 935 864 953 833 q 889 913 918 894 q 824 940 860 932 q 750 949 788 949 q 608 926 678 949 q 479 861 539 903 q 425 817 451 842 q 378 763 399 792 q 344 700 357 733 q 332 632 332 667 q 362 560 332 588 q 435 532 392 532 q 548 563 494 532 q 643 640 601 593 q 712 746 685 688 q 744 860 739 804 l 726 864 q 688 752 711 801 q 621 656 665 703 q 537 587 585 618 q 435 556 489 556 q 378 578 399 556 q 357 636 357 601 q 372 704 357 671 q 412 767 388 738 q 465 822 436 797 q 521 863 493 846 q 630 911 572 894 q 747 928 688 928 q 783 924 765 928 q 815 913 801 921 q 838 890 829 904 q 846 854 846 875 q 835 805 846 831 q 809 753 825 779 q 776 705 793 728 q 744 665 758 682 l 525 410 q 465 342 499 379 q 402 265 432 306 q 351 180 372 224 q 331 93 331 136 q 354 20 331 49 q 424 -8 378 -8 q 544 29 479 -8 q 674 119 610 67 q 794 228 738 172 q 886 321 850 285 l 892 317 q 887 310 889 314 q 882 303 885 306 q 844 257 864 281 q 808 208 825 233 q 781 155 792 183 q 771 96 771 126 q 794 25 771 57 q 860 -7 818 -7 q 935 12 900 -7 q 1001 53 969 31 q 1086 115 1044 83 q 1165 182 1128 146 l 1150 197 q 1094 150 1131 181 q 1016 90 1057 119 q 936 38 975 60 q 872 17 897 17 q 860 19 867 17 q 854 29 854 22 q 860 51 854 39 q 874 76 865 64 q 891 99 882 89 q 907 118 900 110 l 1533 936 z "},"Ú":{"ha":1093,"x_min":331,"x_max":1613,"o":"m 1613 1169 l 1296 1169 l 1183 1025 l 1222 1024 l 1613 1169 m 1533 936 l 1357 936 l 1110 613 q 1006 485 1060 546 q 896 364 953 424 q 841 308 875 342 q 766 235 807 274 q 680 156 725 196 q 591 85 635 117 q 508 34 547 54 q 439 14 468 14 q 420 17 429 14 q 411 32 411 21 q 423 66 411 46 q 451 107 435 86 q 485 146 468 128 q 510 175 501 164 l 807 526 q 855 583 829 553 q 902 648 881 614 q 938 718 924 682 q 953 790 953 754 q 935 864 953 833 q 889 913 918 894 q 824 940 860 932 q 750 949 788 949 q 608 926 678 949 q 479 861 539 903 q 425 817 451 842 q 378 763 399 792 q 344 700 357 733 q 332 632 332 667 q 362 560 332 588 q 435 532 392 532 q 548 563 494 532 q 643 640 601 593 q 712 746 685 688 q 744 860 739 804 l 726 864 q 688 752 711 801 q 621 656 665 703 q 537 587 585 618 q 435 556 489 556 q 378 578 399 556 q 357 636 357 601 q 372 704 357 671 q 412 767 388 738 q 465 822 436 797 q 521 863 493 846 q 630 911 572 894 q 747 928 688 928 q 783 924 765 928 q 815 913 801 921 q 838 890 829 904 q 846 854 846 875 q 835 805 846 831 q 809 753 825 779 q 776 705 793 728 q 744 665 758 682 l 525 410 q 465 342 499 379 q 402 265 432 306 q 351 180 372 224 q 331 93 331 136 q 354 20 331 49 q 424 -8 378 -8 q 544 29 479 -8 q 674 119 610 67 q 794 228 738 172 q 886 321 850 285 l 892 317 q 887 310 889 314 q 882 303 885 306 q 844 257 864 281 q 808 208 825 233 q 781 155 792 183 q 771 96 771 126 q 794 25 771 57 q 860 -7 818 -7 q 935 12 900 -7 q 1001 53 969 31 q 1086 115 1044 83 q 1165 182 1128 146 l 1150 197 q 1094 150 1131 181 q 1016 90 1057 119 q 936 38 975 60 q 872 17 897 17 q 860 19 867 17 q 854 29 854 22 q 860 51 854 39 q 874 76 865 64 q 891 99 882 89 q 907 118 900 110 l 1533 936 z "},"Û":{"ha":1093,"x_min":331,"x_max":1533,"o":"m 1342 1018 l 1319 1206 l 1010 1017 q 1038 1016 1025 1017 q 1067 1015 1051 1015 q 1092 1023 1067 1015 q 1149 1040 1118 1031 q 1208 1057 1181 1049 q 1240 1067 1236 1065 l 1311 1018 l 1342 1018 m 1533 936 l 1357 936 l 1110 613 q 1006 485 1060 546 q 896 364 953 424 q 841 308 875 342 q 766 235 807 274 q 680 156 725 196 q 591 85 635 117 q 508 34 547 54 q 439 14 468 14 q 420 17 429 14 q 411 32 411 21 q 423 66 411 46 q 451 107 435 86 q 485 146 468 128 q 510 175 501 164 l 807 526 q 855 583 829 553 q 902 648 881 614 q 938 718 924 682 q 953 790 953 754 q 935 864 953 833 q 889 913 918 894 q 824 940 860 932 q 750 949 788 949 q 608 926 678 949 q 479 861 539 903 q 425 817 451 842 q 378 763 399 792 q 344 700 357 733 q 332 632 332 667 q 362 560 332 588 q 435 532 392 532 q 548 563 494 532 q 643 640 601 593 q 712 746 685 688 q 744 860 739 804 l 726 864 q 688 752 711 801 q 621 656 665 703 q 537 587 585 618 q 435 556 489 556 q 378 578 399 556 q 357 636 357 601 q 372 704 357 671 q 412 767 388 738 q 465 822 436 797 q 521 863 493 846 q 630 911 572 894 q 747 928 688 928 q 783 924 765 928 q 815 913 801 921 q 838 890 829 904 q 846 854 846 875 q 835 805 846 831 q 809 753 825 779 q 776 705 793 728 q 744 665 758 682 l 525 410 q 465 342 499 379 q 402 265 432 306 q 351 180 372 224 q 331 93 331 136 q 354 20 331 49 q 424 -8 378 -8 q 544 29 479 -8 q 674 119 610 67 q 794 228 738 172 q 886 321 850 285 l 892 317 q 887 310 889 314 q 882 303 885 306 q 844 257 864 281 q 808 208 825 233 q 781 155 792 183 q 771 96 771 126 q 794 25 771 57 q 860 -7 818 -7 q 935 12 900 -7 q 1001 53 969 31 q 1086 115 1044 83 q 1165 182 1128 146 l 1150 197 q 1094 150 1131 181 q 1016 90 1057 119 q 936 38 975 60 q 872 17 897 17 q 860 19 867 17 q 854 29 854 22 q 860 51 854 39 q 874 76 865 64 q 891 99 882 89 q 907 118 900 110 l 1533 936 z "},"Ü":{"ha":1093,"x_min":331,"x_max":1533,"o":"m 1426 1124 q 1407 1170 1426 1153 q 1360 1188 1388 1188 q 1319 1178 1339 1188 q 1284 1155 1300 1169 q 1258 1121 1268 1140 q 1249 1081 1249 1101 q 1266 1033 1249 1050 q 1314 1015 1283 1015 q 1355 1024 1335 1015 q 1391 1048 1375 1033 q 1417 1083 1407 1063 q 1426 1124 1426 1103 m 1176 1124 q 1157 1170 1176 1153 q 1110 1188 1138 1188 q 1069 1178 1089 1188 q 1034 1155 1050 1169 q 1008 1121 1018 1140 q 999 1081 999 1101 q 1016 1033 999 1050 q 1064 1015 1033 1015 q 1105 1024 1085 1015 q 1141 1048 1125 1033 q 1167 1083 1157 1063 q 1176 1124 1176 1103 m 1533 936 l 1357 936 l 1110 613 q 1006 485 1060 546 q 896 364 953 424 q 841 308 875 342 q 766 235 807 274 q 680 156 725 196 q 591 85 635 117 q 508 34 547 54 q 439 14 468 14 q 420 17 429 14 q 411 32 411 21 q 423 66 411 46 q 451 107 435 86 q 485 146 468 128 q 510 175 501 164 l 807 526 q 855 583 829 553 q 902 648 881 614 q 938 718 924 682 q 953 790 953 754 q 935 864 953 833 q 889 913 918 894 q 824 940 860 932 q 750 949 788 949 q 608 926 678 949 q 479 861 539 903 q 425 817 451 842 q 378 763 399 792 q 344 700 357 733 q 332 632 332 667 q 362 560 332 588 q 435 532 392 532 q 548 563 494 532 q 643 640 601 593 q 712 746 685 688 q 744 860 739 804 l 726 864 q 688 752 711 801 q 621 656 665 703 q 537 587 585 618 q 435 556 489 556 q 378 578 399 556 q 357 636 357 601 q 372 704 357 671 q 412 767 388 738 q 465 822 436 797 q 521 863 493 846 q 630 911 572 894 q 747 928 688 928 q 783 924 765 928 q 815 913 801 921 q 838 890 829 904 q 846 854 846 875 q 835 805 846 831 q 809 753 825 779 q 776 705 793 728 q 744 665 758 682 l 525 410 q 465 342 499 379 q 402 265 432 306 q 351 180 372 224 q 331 93 331 136 q 354 20 331 49 q 424 -8 378 -8 q 544 29 479 -8 q 674 119 610 67 q 794 228 738 172 q 886 321 850 285 l 892 317 q 887 310 889 314 q 882 303 885 306 q 844 257 864 281 q 808 208 825 233 q 781 155 792 183 q 771 96 771 126 q 794 25 771 57 q 860 -7 818 -7 q 935 12 900 -7 q 1001 53 969 31 q 1086 115 1044 83 q 1165 182 1128 146 l 1150 197 q 1094 150 1131 181 q 1016 90 1057 119 q 936 38 975 60 q 872 17 897 17 q 860 19 867 17 q 854 29 854 22 q 860 51 854 39 q 874 76 865 64 q 891 99 882 89 q 907 118 900 110 l 1533 936 z "},"ß":{"ha":617,"x_min":-369,"x_max":976,"o":"m 976 861 q 953 915 976 899 q 894 931 929 931 q 790 910 844 931 q 681 854 736 889 q 571 776 625 819 q 468 686 517 732 q 378 596 419 640 q 308 517 338 551 q 251 447 279 482 q 196 375 224 411 l -369 -357 l -203 -357 l 540 607 q 558 628 549 618 q 575 650 567 639 q 669 766 622 708 q 778 868 715 824 q 822 894 794 881 q 871 907 850 907 q 890 901 882 907 q 899 882 899 894 q 881 822 899 854 q 839 757 864 789 q 787 697 814 725 q 742 651 760 668 q 665 586 706 618 q 585 525 625 554 q 557 503 572 515 q 535 476 542 492 q 527 451 529 465 q 522 425 525 438 q 497 332 514 381 q 458 237 481 283 q 409 147 436 190 q 353 69 382 104 q 312 31 336 50 q 260 13 288 13 q 242 15 251 13 q 233 29 233 18 q 245 45 233 42 q 270 53 257 49 q 295 67 283 57 q 307 101 307 76 q 294 134 307 121 q 263 147 282 147 q 206 122 226 147 q 185 63 185 97 q 207 10 185 29 q 261 -10 229 -10 q 321 -2 289 -10 q 385 18 353 6 q 448 46 418 31 q 500 76 478 61 q 576 150 544 107 q 608 249 608 193 q 600 307 608 279 q 581 361 592 335 q 563 411 571 388 q 554 456 554 435 q 569 487 554 475 q 600 507 585 499 q 766 603 681 551 q 913 725 851 654 q 956 788 936 753 q 976 861 976 822 z "},"à":{"ha":631,"x_min":24,"x_max":742,"o":"m 532 513 l 531 663 l 311 663 l 501 511 l 532 513 m 742 431 l 585 431 l 517 343 q 528 370 524 356 q 533 400 533 385 q 511 438 533 429 q 465 446 489 446 q 326 419 393 446 q 200 353 258 393 q 137 303 168 332 q 81 241 106 275 q 40 169 56 207 q 24 90 24 131 q 49 21 24 51 q 115 -10 75 -10 q 185 8 149 -10 q 256 51 221 25 q 322 107 292 78 q 374 160 353 136 q 351 115 360 136 q 343 67 343 94 q 367 11 343 32 q 425 -10 392 -10 q 491 8 461 -10 q 549 47 521 26 q 696 169 626 106 l 682 186 q 588 103 636 142 q 485 31 539 65 q 473 24 478 26 q 460 21 468 21 q 444 35 444 21 q 452 52 444 40 q 469 78 460 64 q 488 103 479 92 q 501 119 497 115 l 742 431 m 513 397 q 511 390 513 392 q 494 341 506 364 q 467 297 482 318 q 286 104 389 189 q 256 80 275 94 q 215 51 236 65 q 173 27 194 38 q 136 17 151 17 q 123 22 129 17 q 117 35 117 28 q 139 84 117 51 q 190 153 161 117 q 248 219 219 189 q 289 263 276 250 q 329 300 301 275 q 388 350 357 325 q 449 394 419 375 q 497 413 479 413 q 513 397 513 413 z "},"á":{"ha":631,"x_min":24,"x_max":864,"o":"m 864 663 l 581 663 l 488 517 l 525 515 l 864 663 m 742 431 l 585 431 l 517 343 q 528 370 524 356 q 533 400 533 385 q 511 438 533 429 q 465 446 489 446 q 326 419 393 446 q 200 353 258 393 q 137 303 168 332 q 81 241 106 275 q 40 169 56 207 q 24 90 24 131 q 49 21 24 51 q 115 -10 75 -10 q 185 8 149 -10 q 256 51 221 25 q 322 107 292 78 q 374 160 353 136 q 351 115 360 136 q 343 67 343 94 q 367 11 343 32 q 425 -10 392 -10 q 491 8 461 -10 q 549 47 521 26 q 696 169 626 106 l 682 186 q 588 103 636 142 q 485 31 539 65 q 473 24 478 26 q 460 21 468 21 q 444 35 444 21 q 452 52 444 40 q 469 78 460 64 q 488 103 479 92 q 501 119 497 115 l 742 431 m 513 397 q 511 390 513 392 q 494 341 506 364 q 467 297 482 318 q 286 104 389 189 q 256 80 275 94 q 215 51 236 65 q 173 27 194 38 q 136 17 151 17 q 123 22 129 17 q 117 35 117 28 q 139 84 117 51 q 190 153 161 117 q 248 219 219 189 q 289 263 276 250 q 329 300 301 275 q 388 350 357 325 q 449 394 419 375 q 497 413 479 413 q 513 397 513 413 z "},"â":{"ha":631,"x_min":24,"x_max":742,"o":"m 688 514 l 665 701 l 356 513 q 384 512 371 513 q 413 511 397 511 q 438 519 413 511 q 495 535 464 526 q 554 553 526 544 q 586 563 582 561 l 657 514 l 688 514 m 742 431 l 585 431 l 517 343 q 528 370 524 356 q 533 400 533 385 q 511 438 533 429 q 465 446 489 446 q 326 419 393 446 q 200 353 258 393 q 137 303 168 332 q 81 241 106 275 q 40 169 56 207 q 24 90 24 131 q 49 21 24 51 q 115 -10 75 -10 q 185 8 149 -10 q 256 51 221 25 q 322 107 292 78 q 374 160 353 136 q 351 115 360 136 q 343 67 343 94 q 367 11 343 32 q 425 -10 392 -10 q 491 8 461 -10 q 549 47 521 26 q 696 169 626 106 l 682 186 q 588 103 636 142 q 485 31 539 65 q 473 24 478 26 q 460 21 468 21 q 444 35 444 21 q 452 52 444 40 q 469 78 460 64 q 488 103 479 92 q 501 119 497 115 l 742 431 m 513 397 q 511 390 513 392 q 494 341 506 364 q 467 297 482 318 q 286 104 389 189 q 256 80 275 94 q 215 51 236 65 q 173 27 194 38 q 136 17 151 17 q 123 22 129 17 q 117 35 117 28 q 139 84 117 51 q 190 153 161 117 q 248 219 219 189 q 289 263 276 250 q 329 300 301 275 q 388 350 357 325 q 449 394 419 375 q 497 413 479 413 q 513 397 513 413 z "},"ã":{"ha":631,"x_min":24,"x_max":757,"o":"m 757 650 l 715 650 q 693 626 707 639 q 664 614 679 614 q 638 622 651 614 q 612 640 625 631 q 583 657 599 649 q 550 665 568 665 q 499 651 524 665 q 450 615 474 636 q 406 572 426 594 q 368 532 385 549 l 413 532 q 435 556 422 544 q 465 568 449 568 q 490 560 478 568 q 515 542 503 551 q 542 525 528 533 q 576 517 557 517 q 627 531 601 517 q 677 565 653 544 q 722 609 701 586 q 757 650 742 632 m 742 431 l 585 431 l 517 343 q 528 370 524 356 q 533 400 533 385 q 511 438 533 429 q 465 446 489 446 q 326 419 393 446 q 200 353 258 393 q 137 303 168 332 q 81 241 106 275 q 40 169 56 207 q 24 90 24 131 q 49 21 24 51 q 115 -10 75 -10 q 185 8 149 -10 q 256 51 221 25 q 322 107 292 78 q 374 160 353 136 q 351 115 360 136 q 343 67 343 94 q 367 11 343 32 q 425 -10 392 -10 q 491 8 461 -10 q 549 47 521 26 q 696 169 626 106 l 682 186 q 588 103 636 142 q 485 31 539 65 q 473 24 478 26 q 460 21 468 21 q 444 35 444 21 q 452 52 444 40 q 469 78 460 64 q 488 103 479 92 q 501 119 497 115 l 742 431 m 513 397 q 511 390 513 392 q 494 341 506 364 q 467 297 482 318 q 286 104 389 189 q 256 80 275 94 q 215 51 236 65 q 173 27 194 38 q 136 17 151 17 q 123 22 129 17 q 117 35 117 28 q 139 84 117 51 q 190 153 161 117 q 248 219 219 189 q 289 263 276 250 q 329 300 301 275 q 388 350 357 325 q 449 394 419 375 q 497 413 479 413 q 513 397 513 413 z "},"ä":{"ha":631,"x_min":24,"x_max":776,"o":"m 776 621 q 758 668 776 650 q 711 686 740 686 q 671 677 690 686 q 635 653 651 668 q 610 619 619 638 q 600 579 600 600 q 617 531 600 549 q 665 514 635 514 q 706 523 686 514 q 741 547 725 532 q 767 581 757 563 q 776 621 776 600 m 539 621 q 520 669 539 651 q 472 686 501 686 q 433 677 453 686 q 397 653 413 668 q 372 618 382 638 q 363 579 363 599 q 379 532 363 550 q 426 514 396 514 q 467 523 447 514 q 503 547 488 532 q 529 581 519 561 q 539 621 539 600 m 742 431 l 585 431 l 517 343 q 528 370 524 356 q 533 400 533 385 q 511 438 533 429 q 465 446 489 446 q 326 419 393 446 q 200 353 258 393 q 137 303 168 332 q 81 241 106 275 q 40 169 56 207 q 24 90 24 131 q 49 21 24 51 q 115 -10 75 -10 q 185 8 149 -10 q 256 51 221 25 q 322 107 292 78 q 374 160 353 136 q 351 115 360 136 q 343 67 343 94 q 367 11 343 32 q 425 -10 392 -10 q 491 8 461 -10 q 549 47 521 26 q 696 169 626 106 l 682 186 q 588 103 636 142 q 485 31 539 65 q 473 24 478 26 q 460 21 468 21 q 444 35 444 21 q 452 52 444 40 q 469 78 460 64 q 488 103 479 92 q 501 119 497 115 l 742 431 m 513 397 q 511 390 513 392 q 494 341 506 364 q 467 297 482 318 q 286 104 389 189 q 256 80 275 94 q 215 51 236 65 q 173 27 194 38 q 136 17 151 17 q 123 22 129 17 q 117 35 117 28 q 139 84 117 51 q 190 153 161 117 q 248 219 219 189 q 289 263 276 250 q 329 300 301 275 q 388 350 357 325 q 449 394 419 375 q 497 413 479 413 q 513 397 513 413 z "},"å":{"ha":631,"x_min":24,"x_max":742,"o":"m 669 603 q 640 675 669 646 q 567 704 610 704 q 494 675 524 704 q 465 603 465 646 q 494 530 465 560 q 567 500 524 500 q 639 531 608 500 q 669 603 669 561 m 742 431 l 585 431 l 517 343 q 528 370 524 356 q 533 400 533 385 q 511 438 533 429 q 465 446 489 446 q 326 419 393 446 q 200 353 258 393 q 137 303 168 332 q 81 241 106 275 q 40 169 56 207 q 24 90 24 131 q 49 21 24 51 q 115 -10 75 -10 q 185 8 149 -10 q 256 51 221 25 q 322 107 292 78 q 374 160 353 136 q 351 115 360 136 q 343 67 343 94 q 367 11 343 32 q 425 -10 392 -10 q 491 8 461 -10 q 549 47 521 26 q 696 169 626 106 l 682 186 q 588 103 636 142 q 485 31 539 65 q 473 24 478 26 q 460 21 468 21 q 444 35 444 21 q 452 52 444 40 q 469 78 460 64 q 488 103 479 92 q 501 119 497 115 l 742 431 m 629 603 q 610 559 629 576 q 567 542 592 542 q 524 560 542 542 q 506 603 506 578 q 523 647 506 629 q 567 664 540 664 q 611 647 593 664 q 629 603 629 629 m 513 397 q 511 390 513 392 q 494 341 506 364 q 467 297 482 318 q 286 104 389 189 q 256 80 275 94 q 215 51 236 65 q 173 27 194 38 q 136 17 151 17 q 123 22 129 17 q 117 35 117 28 q 139 84 117 51 q 190 153 161 117 q 248 219 219 189 q 289 263 276 250 q 329 300 301 275 q 388 350 357 325 q 449 394 419 375 q 497 413 479 413 q 513 397 513 413 z "},"æ":{"ha":801,"x_min":25,"x_max":888,"o":"m 888 410 q 873 436 888 429 q 843 443 858 443 q 795 435 819 443 q 748 414 771 426 q 704 386 725 401 q 665 357 683 371 l 718 431 l 583 431 l 519 344 q 528 369 524 356 q 533 394 533 382 q 511 436 533 428 q 461 444 489 444 q 310 413 382 444 q 176 335 238 382 q 122 287 149 314 q 73 229 94 260 q 38 164 51 199 q 25 92 25 129 q 47 20 25 51 q 113 -11 69 -11 q 183 6 146 -11 q 254 47 219 22 q 319 101 289 72 q 371 154 350 131 q 364 128 367 140 q 361 101 361 115 q 394 15 361 43 q 482 -14 426 -14 q 561 -3 522 -14 q 637 24 600 7 q 709 62 674 40 q 778 104 744 83 q 824 135 801 119 q 868 171 847 151 l 854 188 q 782 132 826 163 q 689 74 738 101 q 592 28 640 47 q 506 10 543 10 q 480 17 490 10 q 469 42 469 25 q 479 76 469 56 q 502 115 489 96 q 530 153 515 135 q 553 182 544 171 q 639 213 583 192 q 750 265 694 235 q 847 331 806 294 q 888 410 888 368 m 856 406 q 821 344 856 375 q 740 285 786 313 q 649 239 694 258 q 579 213 603 219 q 628 266 596 231 q 697 336 660 301 q 772 397 735 371 q 838 422 810 422 q 850 417 844 422 q 856 406 856 413 m 511 393 q 490 331 511 368 q 434 251 468 293 q 358 167 400 210 q 274 91 315 125 q 195 35 232 57 q 136 14 158 14 q 124 17 129 14 q 118 28 118 21 q 141 82 118 46 q 199 160 164 118 q 278 247 235 203 q 364 328 322 292 q 441 387 406 364 q 496 410 476 410 q 511 393 511 410 z "},"ç":{"ha":422,"x_min":-125,"x_max":558,"o":"m 558 385 q 531 435 558 424 q 472 447 504 447 q 329 423 400 447 q 199 358 258 399 q 138 310 168 338 q 83 251 107 283 q 43 181 58 218 q 28 104 28 143 q 38 60 28 81 q 63 25 47 40 q 100 1 79 10 q 144 -8 121 -8 q 235 10 188 -8 q 328 56 282 29 q 415 115 374 83 q 489 175 457 147 l 476 192 q 416 142 456 172 q 331 84 376 113 q 242 35 286 56 q 168 14 197 14 q 146 19 157 14 q 135 39 135 25 q 156 99 135 61 q 210 179 176 136 q 285 265 243 222 q 367 343 326 308 q 445 400 408 378 q 506 422 482 422 q 521 418 514 422 q 528 404 528 414 q 515 388 528 390 q 485 382 501 385 q 455 371 468 379 q 442 338 442 363 q 453 308 442 318 q 483 299 464 299 q 539 326 519 299 q 558 385 558 353 m 138 -124 q 123 -81 138 -97 q 81 -65 108 -65 q 15 -94 43 -65 q -14 -160 -14 -122 q -5 -186 -14 -175 q 4 -207 4 -197 q -10 -242 4 -225 q -42 -275 -24 -260 q -83 -301 -61 -290 q -118 -318 -104 -312 l -125 -321 l -121 -337 q -83 -325 -104 -333 q -41 -306 -62 -317 q 1 -284 -19 -296 q 35 -262 21 -272 q 70 -236 51 -250 q 103 -205 89 -222 q 128 -167 118 -187 q 138 -124 138 -147 z "},"è":{"ha":467,"x_min":32,"x_max":547,"o":"m 525 513 l 524 663 l 304 663 l 494 511 l 525 513 m 547 406 q 540 426 547 418 q 523 438 533 433 q 500 443 513 442 q 478 444 488 444 q 326 418 400 444 q 189 347 251 392 q 130 300 158 326 q 80 243 101 274 q 45 177 58 213 q 32 103 32 142 q 66 19 32 49 q 153 -11 100 -11 q 232 1 192 -11 q 310 31 272 13 q 385 72 349 49 q 453 115 421 94 q 494 143 474 129 q 533 174 514 157 l 519 192 q 448 135 492 167 q 354 77 404 104 q 256 31 304 50 q 169 13 207 13 q 146 18 157 13 q 135 39 135 24 q 145 75 135 54 q 169 117 156 96 q 198 156 183 138 q 221 186 213 175 q 294 213 256 199 q 369 244 332 228 q 441 282 407 261 q 503 329 475 303 q 533 364 518 344 q 547 406 547 383 m 519 406 q 500 363 519 385 q 453 321 481 340 q 399 285 426 301 q 356 261 371 269 q 304 238 331 249 q 250 218 278 226 q 297 270 265 236 q 367 338 329 304 q 441 396 404 371 q 503 421 478 421 q 515 417 510 421 q 519 406 519 413 z "},"é":{"ha":467,"x_min":32,"x_max":843,"o":"m 843 663 l 560 663 l 467 517 l 504 515 l 843 663 m 547 406 q 540 426 547 418 q 523 438 533 433 q 500 443 513 442 q 478 444 488 444 q 326 418 400 444 q 189 347 251 392 q 130 300 158 326 q 80 243 101 274 q 45 177 58 213 q 32 103 32 142 q 66 19 32 49 q 153 -11 100 -11 q 232 1 192 -11 q 310 31 272 13 q 385 72 349 49 q 453 115 421 94 q 494 143 474 129 q 533 174 514 157 l 519 192 q 448 135 492 167 q 354 77 404 104 q 256 31 304 50 q 169 13 207 13 q 146 18 157 13 q 135 39 135 24 q 145 75 135 54 q 169 117 156 96 q 198 156 183 138 q 221 186 213 175 q 294 213 256 199 q 369 244 332 228 q 441 282 407 261 q 503 329 475 303 q 533 364 518 344 q 547 406 547 383 m 519 406 q 500 363 519 385 q 453 321 481 340 q 399 285 426 301 q 356 261 371 269 q 304 238 331 249 q 250 218 278 226 q 297 270 265 236 q 367 338 329 304 q 441 396 404 371 q 503 421 478 421 q 515 417 510 421 q 519 406 519 413 z "},"ê":{"ha":467,"x_min":32,"x_max":629,"o":"m 629 514 l 607 701 l 297 513 q 326 512 313 513 q 354 511 339 511 q 380 519 354 511 q 437 535 406 526 q 496 553 468 544 q 528 563 524 561 l 599 514 l 629 514 m 547 406 q 540 426 547 418 q 523 438 533 433 q 500 443 513 442 q 478 444 488 444 q 326 418 400 444 q 189 347 251 392 q 130 300 158 326 q 80 243 101 274 q 45 177 58 213 q 32 103 32 142 q 66 19 32 49 q 153 -11 100 -11 q 232 1 192 -11 q 310 31 272 13 q 385 72 349 49 q 453 115 421 94 q 494 143 474 129 q 533 174 514 157 l 519 192 q 448 135 492 167 q 354 77 404 104 q 256 31 304 50 q 169 13 207 13 q 146 18 157 13 q 135 39 135 24 q 145 75 135 54 q 169 117 156 96 q 198 156 183 138 q 221 186 213 175 q 294 213 256 199 q 369 244 332 228 q 441 282 407 261 q 503 329 475 303 q 533 364 518 344 q 547 406 547 383 m 519 406 q 500 363 519 385 q 453 321 481 340 q 399 285 426 301 q 356 261 371 269 q 304 238 331 249 q 250 218 278 226 q 297 270 265 236 q 367 338 329 304 q 441 396 404 371 q 503 421 478 421 q 515 417 510 421 q 519 406 519 413 z "},"ë":{"ha":467,"x_min":32,"x_max":719,"o":"m 719 621 q 701 668 719 650 q 654 686 683 686 q 614 677 633 686 q 578 653 594 668 q 553 619 563 638 q 543 579 543 600 q 560 531 543 549 q 608 514 578 514 q 649 523 629 514 q 684 547 668 532 q 710 581 700 563 q 719 621 719 600 m 482 621 q 463 669 482 651 q 415 686 444 686 q 376 677 396 686 q 340 653 356 668 q 315 618 325 638 q 306 579 306 599 q 322 532 306 550 q 369 514 339 514 q 410 523 390 514 q 447 547 431 532 q 472 581 463 561 q 482 621 482 600 m 547 406 q 540 426 547 418 q 523 438 533 433 q 500 443 513 442 q 478 444 488 444 q 326 418 400 444 q 189 347 251 392 q 130 300 158 326 q 80 243 101 274 q 45 177 58 213 q 32 103 32 142 q 66 19 32 49 q 153 -11 100 -11 q 232 1 192 -11 q 310 31 272 13 q 385 72 349 49 q 453 115 421 94 q 494 143 474 129 q 533 174 514 157 l 519 192 q 448 135 492 167 q 354 77 404 104 q 256 31 304 50 q 169 13 207 13 q 146 18 157 13 q 135 39 135 24 q 145 75 135 54 q 169 117 156 96 q 198 156 183 138 q 221 186 213 175 q 294 213 256 199 q 369 244 332 228 q 441 282 407 261 q 503 329 475 303 q 533 364 518 344 q 547 406 547 383 m 519 406 q 500 363 519 385 q 453 321 481 340 q 399 285 426 301 q 356 261 371 269 q 304 238 331 249 q 250 218 278 226 q 297 270 265 236 q 367 338 329 304 q 441 396 404 371 q 503 421 478 421 q 515 417 510 421 q 519 406 519 413 z "},"ì":{"ha":293,"x_min":7,"x_max":401,"o":"m 378 513 l 376 663 l 157 663 l 347 511 l 378 513 m 401 431 l 238 431 l 69 214 q 26 150 44 182 q 7 75 7 118 q 28 14 7 36 q 88 -8 49 -8 q 149 8 119 -8 q 203 42 178 24 q 240 69 218 53 q 284 104 263 86 q 326 140 306 122 q 357 172 346 158 l 344 188 q 303 149 333 176 q 237 94 272 122 q 169 43 201 65 q 122 21 136 21 q 107 36 107 21 q 114 53 107 42 q 130 76 121 64 q 148 100 139 89 q 160 115 157 111 l 401 431 z "},"í":{"ha":293,"x_min":7,"x_max":693,"o":"m 693 663 l 428 663 l 335 517 l 372 515 l 693 663 m 401 431 l 238 431 l 69 214 q 26 150 44 182 q 7 75 7 118 q 28 14 7 36 q 88 -8 49 -8 q 149 8 119 -8 q 203 42 178 24 q 240 69 218 53 q 284 104 263 86 q 326 140 306 122 q 357 172 346 158 l 344 188 q 303 149 333 176 q 237 94 272 122 q 169 43 201 65 q 122 21 136 21 q 107 36 107 21 q 114 53 107 42 q 130 76 121 64 q 148 100 139 89 q 160 115 157 111 l 401 431 z "},"î":{"ha":293,"x_min":7,"x_max":506,"o":"m 506 514 l 483 701 l 174 513 q 202 512 189 513 q 231 511 215 511 q 256 519 231 511 q 313 535 282 526 q 372 553 344 544 q 404 563 400 561 l 475 514 l 506 514 m 401 431 l 238 431 l 69 214 q 26 150 44 182 q 7 75 7 118 q 28 14 7 36 q 88 -8 49 -8 q 149 8 119 -8 q 203 42 178 24 q 240 69 218 53 q 284 104 263 86 q 326 140 306 122 q 357 172 346 158 l 344 188 q 303 149 333 176 q 237 94 272 122 q 169 43 201 65 q 122 21 136 21 q 107 36 107 21 q 114 53 107 42 q 130 76 121 64 q 148 100 139 89 q 160 115 157 111 l 401 431 z "},"ï":{"ha":293,"x_min":7,"x_max":590,"o":"m 590 621 q 572 669 590 651 q 524 686 553 686 q 483 677 503 686 q 448 653 464 668 q 422 619 432 639 q 413 579 413 600 q 431 532 413 550 q 478 514 449 514 q 519 523 499 514 q 555 547 539 532 q 581 581 571 561 q 590 621 590 600 m 381 621 q 362 668 381 650 q 314 686 343 686 q 274 677 293 686 q 238 653 254 668 q 213 619 222 638 q 203 579 203 600 q 220 531 203 549 q 268 514 238 514 q 308 523 288 514 q 344 547 328 532 q 370 581 360 563 q 381 621 381 600 m 401 431 l 238 431 l 69 214 q 26 150 44 182 q 7 75 7 118 q 28 14 7 36 q 88 -8 49 -8 q 149 8 119 -8 q 203 42 178 24 q 240 69 218 53 q 284 104 263 86 q 326 140 306 122 q 357 172 346 158 l 344 188 q 303 149 333 176 q 237 94 272 122 q 169 43 201 65 q 122 21 136 21 q 107 36 107 21 q 114 53 107 42 q 130 76 121 64 q 148 100 139 89 q 160 115 157 111 l 401 431 z "},"ñ":{"ha":600,"x_min":-93,"x_max":746,"o":"m 746 650 l 704 650 q 682 626 696 639 q 653 614 668 614 q 627 622 640 614 q 601 640 614 631 q 572 657 588 649 q 539 665 557 665 q 488 651 513 665 q 439 615 463 636 q 394 572 415 594 q 357 532 374 549 l 401 532 q 424 556 411 544 q 454 568 438 568 q 479 560 467 568 q 504 542 492 551 q 531 525 517 533 q 565 517 546 517 q 616 531 590 517 q 666 565 642 544 q 710 609 690 586 q 746 650 731 632 m 663 167 l 649 182 q 644 179 646 181 q 640 176 643 178 q 592 137 624 164 q 524 83 560 110 q 456 37 489 57 q 403 17 424 17 q 389 28 389 17 q 408 56 389 32 q 451 108 428 81 q 496 160 475 136 q 521 188 517 183 q 553 225 536 206 q 585 266 571 244 q 608 311 599 288 q 617 360 617 335 q 599 415 617 392 q 546 438 581 438 q 471 417 511 438 q 391 367 431 396 q 317 305 351 338 q 260 250 282 272 l 396 431 l 239 431 l -93 0 l 71 0 q 212 169 142 86 q 367 322 282 251 q 396 345 376 331 q 437 374 415 360 q 480 399 458 389 q 514 410 501 410 q 524 399 524 410 q 506 370 524 392 q 468 325 489 349 q 428 281 447 301 q 404 256 408 260 q 367 215 388 236 q 330 169 347 193 q 301 118 313 144 q 289 65 289 92 q 308 8 289 31 q 363 -15 326 -15 q 438 5 396 -15 q 522 53 479 25 q 601 113 564 82 q 663 167 639 144 z "},"ò":{"ha":474,"x_min":29,"x_max":546,"o":"m 492 513 l 490 663 l 271 663 l 461 511 l 492 513 m 546 186 l 540 208 q 515 204 528 204 q 487 209 500 204 q 463 226 474 214 q 485 264 472 243 q 508 307 497 285 q 525 351 518 329 q 532 394 532 374 q 524 422 532 411 q 503 438 515 432 q 475 445 490 443 q 447 447 460 447 q 315 424 376 447 q 196 360 253 400 q 135 309 165 338 q 82 247 106 281 q 44 176 58 214 q 29 99 29 138 q 58 19 29 49 q 138 -10 88 -10 q 226 13 182 -10 q 312 67 271 35 q 388 138 353 100 q 447 208 422 176 q 514 181 474 181 q 546 186 531 181 m 511 392 q 507 365 511 378 q 449 330 471 361 q 426 264 426 299 q 428 246 426 253 q 435 229 431 239 q 382 164 417 201 q 306 92 347 126 q 222 35 265 58 q 144 11 179 11 q 128 15 138 11 q 119 29 119 19 q 141 85 119 49 q 197 165 163 122 q 273 253 231 208 q 357 333 315 297 q 434 392 399 369 q 492 415 469 415 q 507 408 503 415 q 511 392 511 401 z "},"ó":{"ha":474,"x_min":29,"x_max":797,"o":"m 797 663 l 514 663 l 421 517 l 458 515 l 797 663 m 546 186 l 540 208 q 515 204 528 204 q 487 209 500 204 q 463 226 474 214 q 485 264 472 243 q 508 307 497 285 q 525 351 518 329 q 532 394 532 374 q 524 422 532 411 q 503 438 515 432 q 475 445 490 443 q 447 447 460 447 q 315 424 376 447 q 196 360 253 400 q 135 309 165 338 q 82 247 106 281 q 44 176 58 214 q 29 99 29 138 q 58 19 29 49 q 138 -10 88 -10 q 226 13 182 -10 q 312 67 271 35 q 388 138 353 100 q 447 208 422 176 q 514 181 474 181 q 546 186 531 181 m 511 392 q 507 365 511 378 q 449 330 471 361 q 426 264 426 299 q 428 246 426 253 q 435 229 431 239 q 382 164 417 201 q 306 92 347 126 q 222 35 265 58 q 144 11 179 11 q 128 15 138 11 q 119 29 119 19 q 141 85 119 49 q 197 165 163 122 q 273 253 231 208 q 357 333 315 297 q 434 392 399 369 q 492 415 469 415 q 507 408 503 415 q 511 392 511 401 z "},"ô":{"ha":474,"x_min":29,"x_max":611,"o":"m 611 514 l 589 701 l 279 513 q 308 512 294 513 q 336 511 321 511 q 362 519 336 511 q 419 535 388 526 q 478 553 450 544 q 510 563 506 561 l 581 514 l 611 514 m 546 186 l 540 208 q 515 204 528 204 q 487 209 500 204 q 463 226 474 214 q 485 264 472 243 q 508 307 497 285 q 525 351 518 329 q 532 394 532 374 q 524 422 532 411 q 503 438 515 432 q 475 445 490 443 q 447 447 460 447 q 315 424 376 447 q 196 360 253 400 q 135 309 165 338 q 82 247 106 281 q 44 176 58 214 q 29 99 29 138 q 58 19 29 49 q 138 -10 88 -10 q 226 13 182 -10 q 312 67 271 35 q 388 138 353 100 q 447 208 422 176 q 514 181 474 181 q 546 186 531 181 m 511 392 q 507 365 511 378 q 449 330 471 361 q 426 264 426 299 q 428 246 426 253 q 435 229 431 239 q 382 164 417 201 q 306 92 347 126 q 222 35 265 58 q 144 11 179 11 q 128 15 138 11 q 119 29 119 19 q 141 85 119 49 q 197 165 163 122 q 273 253 231 208 q 357 333 315 297 q 434 392 399 369 q 492 415 469 415 q 507 408 503 415 q 511 392 511 401 z "},"õ":{"ha":474,"x_min":29,"x_max":700,"o":"m 700 650 l 658 650 q 636 626 650 639 q 607 614 622 614 q 581 622 594 614 q 555 640 568 631 q 526 657 542 649 q 493 665 511 665 q 442 651 467 665 q 393 615 417 636 q 349 572 369 594 q 311 532 328 549 l 356 532 q 378 556 365 544 q 408 568 392 568 q 433 560 421 568 q 458 542 446 551 q 485 525 471 533 q 519 517 500 517 q 570 531 544 517 q 620 565 596 544 q 665 609 644 586 q 700 650 685 632 m 546 186 l 540 208 q 515 204 528 204 q 487 209 500 204 q 463 226 474 214 q 485 264 472 243 q 508 307 497 285 q 525 351 518 329 q 532 394 532 374 q 524 422 532 411 q 503 438 515 432 q 475 445 490 443 q 447 447 460 447 q 315 424 376 447 q 196 360 253 400 q 135 309 165 338 q 82 247 106 281 q 44 176 58 214 q 29 99 29 138 q 58 19 29 49 q 138 -10 88 -10 q 226 13 182 -10 q 312 67 271 35 q 388 138 353 100 q 447 208 422 176 q 514 181 474 181 q 546 186 531 181 m 511 392 q 507 365 511 378 q 449 330 471 361 q 426 264 426 299 q 428 246 426 253 q 435 229 431 239 q 382 164 417 201 q 306 92 347 126 q 222 35 265 58 q 144 11 179 11 q 128 15 138 11 q 119 29 119 19 q 141 85 119 49 q 197 165 163 122 q 273 253 231 208 q 357 333 315 297 q 434 392 399 369 q 492 415 469 415 q 507 408 503 415 q 511 392 511 401 z "}}}
